{"glyphs":{"0":{"ha":703,"x_min":56,"x_max":703,"o":"m 283 -29 q 147 5 197 -29 q 76 97 97 39 q 56 225 56 156 q 85 375 56 297 q 170 519 115 453 q 299 628 225 586 q 460 669 372 669 q 598 636 544 669 q 677 548 651 603 q 703 426 703 493 q 667 260 703 342 q 572 114 632 179 q 437 10 511 49 q 283 -29 363 -29 m 263 0 q 413 40 342 0 q 539 147 483 81 q 626 294 594 214 q 657 451 657 374 q 617 584 657 529 q 485 639 578 639 q 347 602 417 639 q 218 503 276 565 q 124 360 160 440 q 89 194 89 281 q 138 57 89 114 q 263 0 186 0 z "},"1":{"ha":399,"x_min":129,"x_max":458,"o":"m 131 0 q 158 85 139 32 q 203 205 176 139 q 257 338 229 271 q 310 462 285 404 q 353 559 335 519 q 375 608 371 599 q 338 584 368 606 q 269 534 308 563 q 196 479 231 506 q 144 440 161 453 q 140 439 143 439 q 133 451 133 439 q 139 464 133 460 q 258 558 201 510 q 372 657 314 606 q 428 692 417 694 q 458 667 458 688 q 451 642 458 656 q 406 553 439 617 q 332 400 374 489 q 249 211 290 311 q 179 17 208 111 q 165 6 178 13 q 141 -3 153 0 q 131 0 129 -6 z "},"2":{"ha":549,"x_min":19,"x_max":576,"o":"m 38 -8 q 19 13 19 -8 q 24 44 19 24 q 67 126 35 89 q 141 196 99 164 q 226 255 183 228 q 301 304 269 282 q 410 385 360 344 q 492 470 461 425 q 524 568 524 515 q 491 641 524 615 q 401 667 458 667 q 337 658 374 667 q 266 633 300 650 q 209 591 232 617 q 185 531 186 565 q 175 513 185 513 q 161 531 165 513 q 160 544 160 536 q 198 621 160 589 q 294 669 236 653 q 410 686 351 686 q 491 675 453 686 q 553 638 529 664 q 576 567 576 613 q 538 454 576 506 q 437 358 499 403 q 308 272 375 314 q 251 238 286 258 q 179 191 217 217 q 110 136 142 165 q 63 76 79 107 q 56 56 56 63 q 96 29 56 38 q 160 24 119 25 q 244 22 200 22 q 332 24 289 22 q 408 36 375 26 q 455 60 440 46 q 472 107 469 74 q 471 134 474 118 q 465 158 468 150 q 464 168 464 161 q 468 175 464 175 q 482 163 474 175 q 497 128 490 151 q 503 82 503 104 q 481 26 503 46 q 424 -1 458 7 q 351 -8 389 -8 q 245 -6 304 -8 q 135 -3 186 -4 q 63 -4 85 -1 q 49 -7 56 -6 q 38 -8 43 -8 z "},"3":{"ha":649,"x_min":14,"x_max":635,"o":"m 192 -32 q 117 -17 158 -31 q 44 28 75 -3 q 14 114 14 60 q 21 153 14 128 q 45 202 28 178 q 93 235 63 226 q 108 235 103 238 q 107 226 113 233 q 54 101 54 167 q 90 19 54 54 q 211 -15 126 -15 q 324 6 264 -15 q 435 67 383 28 q 514 158 486 107 q 542 258 542 211 q 519 329 542 299 q 447 369 496 360 q 400 375 424 375 q 373 374 386 375 q 344 369 360 372 q 314 366 329 368 q 288 364 299 364 q 256 383 256 364 q 263 401 256 393 q 285 408 271 408 q 300 406 289 408 q 328 399 311 403 q 365 396 346 396 q 422 403 392 396 q 486 426 453 410 q 558 498 533 451 q 582 575 582 544 q 546 645 582 617 q 446 674 510 674 q 352 656 399 674 q 275 609 306 639 q 244 542 244 579 q 236 521 244 521 q 222 539 228 521 q 220 549 221 544 q 219 560 219 554 q 255 631 219 601 q 344 677 290 661 q 456 693 399 693 q 543 679 501 693 q 610 636 585 665 q 631 563 635 607 q 572 453 624 494 q 454 392 519 411 q 554 344 522 386 q 586 247 586 301 q 564 156 586 199 q 467 47 532 90 q 329 -15 403 4 q 192 -32 256 -35 z "},"4":{"ha":660,"x_min":3,"x_max":658,"o":"m 210 -3 q 192 4 192 -3 q 205 19 192 11 q 231 26 218 26 l 346 26 q 371 113 354 60 q 406 221 388 167 q 288 224 351 221 q 171 234 224 228 q 96 247 118 240 q 66 233 86 242 q 33 224 46 224 q 14 228 25 224 q 3 244 3 232 q 16 266 3 256 q 39 276 29 276 q 64 276 51 276 q 89 274 76 275 q 297 433 190 344 q 499 610 404 521 q 529 639 508 622 l 554 658 l 594 690 q 608 698 603 697 q 615 699 614 699 q 640 690 633 699 q 646 671 646 682 q 639 642 646 658 q 547 451 594 553 q 458 254 499 349 q 475 256 467 256 q 492 257 483 256 q 555 265 525 260 q 608 288 585 271 q 643 342 632 304 q 650 350 646 350 q 656 333 658 350 q 600 247 644 267 q 499 224 556 226 q 472 222 485 222 q 444 221 458 221 q 406 116 424 169 q 376 26 388 63 q 433 25 404 25 q 494 25 461 25 q 500 19 500 25 q 493 7 500 14 q 471 0 486 0 l 360 0 q 285 0 321 0 q 215 -3 249 0 l 210 -3 m 342 251 q 380 251 361 251 q 417 253 399 251 q 470 392 442 321 q 528 528 499 464 q 545 565 532 538 q 572 620 558 593 q 589 656 585 647 q 568 639 582 650 q 535 611 554 628 q 330 432 439 524 q 114 267 221 340 q 217 256 156 260 q 342 251 278 251 z "},"5":{"ha":658,"x_min":-1,"x_max":704,"o":"m 199 -35 q 133 -30 168 -35 q 68 -10 99 -25 q 18 33 38 4 q -1 108 -1 61 q 14 156 -1 132 q 42 179 29 179 q 49 171 49 179 q 46 160 49 168 q 40 133 43 147 q 38 107 38 118 q 64 35 40 63 q 121 -3 88 8 q 185 -15 154 -15 q 310 10 246 -15 q 428 80 374 35 q 517 185 483 125 q 551 318 551 246 q 517 404 551 368 q 396 440 482 440 q 288 426 333 440 q 214 392 243 411 q 167 363 185 374 q 165 362 165 363 q 164 361 165 361 q 157 372 157 361 q 174 425 157 392 q 217 498 190 458 q 274 575 243 538 q 331 642 304 613 q 302 633 317 638 q 274 622 288 628 l 272 622 q 263 629 267 622 q 268 642 258 636 q 560 697 411 697 q 663 683 621 697 q 704 632 704 669 q 685 583 704 608 q 631 539 665 558 q 629 538 629 539 q 628 538 629 538 q 623 542 624 538 q 626 550 622 547 q 664 601 664 574 q 653 629 664 615 q 594 660 635 651 q 504 668 554 668 q 361 650 429 668 q 286 542 326 601 q 215 421 246 482 q 268 443 235 433 q 337 458 301 453 q 399 463 372 463 q 563 424 519 463 q 606 322 606 386 q 567 184 606 249 q 466 70 528 119 q 333 -7 404 21 q 199 -35 263 -35 z "},"6":{"ha":603,"x_min":58,"x_max":629,"o":"m 257 -24 q 141 3 185 -24 q 78 76 97 31 q 58 175 58 121 q 92 340 58 261 q 178 486 125 419 q 294 601 232 553 q 414 674 356 650 q 506 692 460 692 q 592 671 554 692 q 629 603 629 650 q 619 556 629 581 q 607 547 618 549 q 599 551 596 544 q 607 594 607 576 q 580 649 607 632 q 514 665 553 665 q 428 646 471 665 q 317 573 374 621 q 211 460 260 525 q 133 317 163 394 q 104 158 104 240 q 140 47 104 94 q 264 0 176 0 q 353 22 313 0 q 425 76 394 43 q 478 163 453 108 q 504 268 504 217 q 485 335 504 306 q 422 375 467 365 q 378 379 401 379 q 274 358 326 379 q 183 306 222 338 q 169 299 174 299 q 168 319 160 299 q 215 358 176 340 q 295 388 250 376 q 385 399 340 399 q 413 397 400 399 q 440 393 426 396 q 528 345 503 381 q 554 264 554 310 q 524 152 554 210 q 454 58 494 94 q 361 -1 413 21 q 257 -24 310 -24 z "},"7":{"ha":525,"x_min":101,"x_max":701,"o":"m 119 -14 q 101 0 101 -14 q 131 58 101 14 q 209 167 161 103 q 313 301 257 231 q 424 435 369 371 q 505 533 464 483 q 589 631 546 583 q 549 637 571 632 q 515 643 528 642 q 455 651 485 649 q 394 653 425 653 q 362 652 378 653 q 331 650 346 651 q 233 638 279 647 q 165 607 186 628 q 146 564 146 588 q 154 534 146 549 q 181 510 163 519 q 183 504 183 507 q 181 499 183 501 q 174 497 178 496 q 124 538 142 513 q 106 589 106 564 q 140 647 106 626 q 228 675 174 667 q 343 683 282 683 q 518 667 435 683 q 560 658 533 664 q 607 649 586 651 q 620 663 614 656 q 632 675 626 669 q 653 692 642 685 q 675 700 665 700 q 692 692 682 700 q 692 678 701 685 q 567 562 628 635 q 446 414 507 489 q 297 215 367 315 q 160 0 226 115 q 119 -14 146 -14 z "},"8":{"ha":588,"x_min":21,"x_max":638,"o":"m 197 -8 q 69 29 118 -8 q 21 126 21 67 q 29 178 21 151 q 81 265 44 225 q 169 335 118 306 q 276 378 221 364 q 210 475 210 408 q 217 517 210 493 q 276 604 233 565 q 376 667 319 643 q 492 690 433 690 q 597 660 557 690 q 638 578 638 629 q 629 535 638 558 q 558 437 611 481 q 439 374 504 393 q 507 327 482 358 q 532 253 532 296 q 529 227 532 240 q 522 200 526 214 q 453 97 504 144 q 334 20 401 49 q 197 -8 267 -8 m 397 392 q 435 399 410 390 q 485 422 460 408 q 525 447 511 435 q 574 505 556 472 q 592 572 592 538 q 561 641 592 614 q 478 668 531 668 q 378 643 426 668 q 299 581 331 618 q 272 537 283 563 q 260 486 260 511 q 266 456 260 471 q 286 429 272 440 q 334 405 306 414 q 397 392 363 396 m 214 13 q 312 33 264 13 q 398 86 360 53 q 459 161 436 119 q 482 246 482 203 q 469 301 482 275 q 424 336 456 326 q 385 347 410 340 q 338 360 361 354 q 303 365 314 365 q 246 348 281 365 q 175 302 211 331 q 111 239 139 274 q 75 168 83 204 q 71 133 71 150 q 110 47 71 82 q 214 13 149 13 z "},"9":{"ha":600,"x_min":44,"x_max":588,"o":"m 143 -19 q 94 -14 117 -19 q 54 3 71 -8 q 44 17 44 8 q 56 28 44 28 q 71 22 64 28 q 103 9 85 13 q 139 6 121 6 q 263 38 204 6 q 373 125 322 71 q 461 244 424 179 q 519 376 499 310 q 540 499 540 443 q 504 613 540 565 q 378 661 468 661 q 289 639 331 661 q 215 582 247 617 q 160 494 186 550 q 133 385 133 438 q 152 317 133 347 q 218 276 171 288 q 264 271 239 271 q 369 293 317 271 q 460 347 421 315 q 475 354 467 354 q 477 333 486 354 q 428 293 468 313 q 347 264 393 275 q 256 253 301 253 q 227 254 242 253 q 199 258 213 256 q 110 308 136 272 q 83 390 83 344 q 113 504 83 446 q 185 600 143 563 q 281 662 228 639 q 386 685 333 685 q 503 657 460 685 q 567 583 547 629 q 588 481 588 538 q 564 348 588 417 q 499 214 540 279 q 401 96 457 149 q 278 12 344 43 q 143 -19 213 -19 z "},"\r":{"ha":196,"x_min":0,"x_max":0,"o":""}," ":{"ha":278,"x_min":0,"x_max":0,"o":""}," ":{"ha":278,"x_min":0,"x_max":0,"o":""},"A":{"ha":1240,"x_min":3,"x_max":1301,"o":"m 139 -111 q 92 -107 115 -111 q 8 -50 25 -96 q 3 -15 3 -35 q 47 99 3 38 q 174 215 90 161 q 376 294 258 268 q 516 317 444 310 q 657 324 588 324 q 769 319 715 324 q 947 511 861 413 q 1099 696 1032 610 q 1098 699 1099 697 q 1097 703 1097 701 q 1064 738 1094 726 q 994 753 1033 750 q 924 757 956 757 q 888 757 892 757 q 747 740 815 751 q 642 713 678 728 q 586 683 607 699 q 565 649 565 667 q 606 601 565 625 q 608 596 608 600 q 606 589 608 592 q 600 588 603 586 q 546 658 546 618 q 619 739 546 711 q 690 756 640 747 q 803 771 740 765 q 928 776 867 776 q 1054 766 1000 776 q 1115 728 1108 756 q 1115 718 1117 724 q 1136 745 1126 732 q 1156 772 1146 758 q 1163 775 1157 775 q 1169 771 1167 775 q 1168 763 1172 767 q 1068 630 1128 707 q 940 472 1008 553 q 804 317 872 390 q 1001 282 928 304 q 1010 311 1006 297 q 1019 339 1014 325 q 1078 485 1046 413 q 1141 622 1110 558 q 1197 731 1172 686 q 1232 792 1221 776 q 1253 806 1239 801 q 1279 811 1268 811 q 1294 800 1301 811 q 1244 719 1276 775 q 1173 587 1211 663 q 1100 428 1135 511 q 1044 265 1065 344 q 1065 249 1061 257 q 1067 243 1067 247 q 1061 233 1067 238 q 1053 235 1056 229 q 1048 240 1051 238 q 1040 244 1044 242 q 1028 184 1033 214 q 1024 126 1024 154 q 1045 33 1024 71 q 1117 -17 1067 -6 q 1130 -19 1124 -18 q 1143 -19 1136 -19 q 1186 -10 1164 -19 q 1228 21 1208 -1 q 1236 24 1231 24 q 1247 19 1243 24 q 1247 11 1251 15 q 1199 -25 1225 -14 q 1144 -36 1172 -36 q 1111 -32 1128 -36 q 1011 35 1040 -17 q 982 154 982 86 q 986 206 982 179 q 996 261 990 233 q 905 281 960 272 q 785 296 850 290 l 757 267 q 633 146 704 211 q 479 22 561 81 q 310 -74 397 -36 q 139 -111 224 -111 m 171 -75 q 326 -39 247 -75 q 480 53 404 -3 q 624 175 556 110 q 750 299 693 240 q 638 303 694 303 q 520 297 578 303 q 406 279 463 292 q 259 226 322 260 q 154 151 196 192 q 95 76 119 118 q 71 -3 71 33 q 94 -54 71 -33 q 171 -75 117 -75 z "},"Æ":{"ha":1606,"x_min":3,"x_max":1765,"o":"m 139 -111 q 92 -107 115 -111 q 8 -50 25 -96 q 3 -15 3 -35 q 47 99 3 38 q 174 215 90 161 q 376 294 258 268 q 516 317 444 310 q 657 324 588 324 q 769 319 715 324 q 886 445 822 379 q 1018 572 950 511 q 1153 681 1086 633 q 1282 749 1221 728 q 1090 731 1182 744 q 947 703 997 718 q 870 671 900 689 q 840 633 840 653 q 899 582 840 608 q 901 576 901 581 q 889 567 901 564 q 831 603 850 583 q 813 644 813 624 q 840 693 813 669 q 917 732 867 717 q 994 747 940 739 q 1122 761 1049 754 q 1278 772 1196 768 q 1440 776 1361 776 q 1590 771 1521 776 q 1706 752 1660 765 q 1761 715 1751 739 q 1765 696 1765 707 q 1749 645 1765 672 q 1710 594 1732 618 q 1696 588 1703 588 q 1688 596 1688 588 q 1693 607 1688 601 q 1724 682 1731 646 q 1695 715 1721 701 q 1631 736 1669 728 q 1550 749 1593 744 q 1469 753 1507 753 q 1389 746 1414 753 q 1347 717 1376 743 q 1281 652 1318 690 q 1208 572 1244 614 q 1140 496 1171 531 q 1094 443 1110 461 q 1222 455 1160 450 q 1351 460 1283 460 q 1420 458 1385 460 q 1494 453 1456 457 q 1517 443 1517 451 q 1507 433 1517 438 q 1490 429 1497 429 q 1452 430 1472 429 q 1410 431 1432 431 q 1288 428 1351 431 q 1167 419 1224 425 q 1069 407 1110 414 q 1029 347 1049 378 q 993 285 1010 317 q 1001 282 997 283 q 1042 267 1026 276 q 1057 251 1057 258 q 1040 244 1057 244 q 982 264 1010 256 q 956 202 967 233 q 938 142 944 171 q 929 81 929 108 q 953 1 929 29 q 1018 -39 978 -28 q 1106 -50 1058 -50 q 1249 -37 1167 -50 q 1415 8 1331 -24 q 1563 90 1499 39 q 1605 131 1586 108 q 1639 176 1624 153 q 1646 182 1643 182 q 1650 175 1650 182 q 1646 161 1650 168 q 1615 115 1632 139 q 1579 72 1599 92 q 1442 -21 1518 13 q 1285 -67 1367 -54 q 1126 -79 1204 -79 q 1006 -67 1063 -79 q 915 -22 950 -56 q 881 72 881 11 q 883 108 881 89 q 892 147 886 126 q 913 209 900 178 q 944 274 926 240 q 870 287 908 282 q 785 296 832 292 l 757 267 q 633 146 704 211 q 479 22 561 81 q 310 -74 397 -36 q 139 -111 224 -111 m 804 317 q 956 293 889 308 q 993 358 972 324 q 1144 560 1054 458 q 1329 746 1235 663 q 1206 685 1274 728 q 1068 584 1139 643 q 929 456 997 525 q 804 317 861 388 m 171 -75 q 326 -39 247 -75 q 480 53 404 -3 q 624 175 556 110 q 750 299 693 240 q 638 303 694 303 q 520 297 578 303 q 406 279 463 292 q 259 226 322 260 q 154 151 196 192 q 95 76 119 118 q 71 -3 71 33 q 94 -54 71 -33 q 171 -75 117 -75 z "},"Ǽ":{"ha":1606,"x_min":3,"x_max":1765,"o":"m 139 -111 q 92 -107 115 -111 q 8 -50 25 -96 q 3 -15 3 -35 q 47 99 3 38 q 174 215 90 161 q 376 294 258 268 q 516 317 444 310 q 657 324 588 324 q 769 319 715 324 q 886 445 822 379 q 1018 572 950 511 q 1153 681 1086 633 q 1282 749 1221 728 q 1090 731 1182 744 q 947 703 997 718 q 870 671 900 689 q 840 633 840 653 q 899 582 840 608 q 901 576 901 581 q 889 567 901 564 q 831 603 850 583 q 813 644 813 624 q 840 693 813 669 q 917 732 867 717 q 994 747 940 739 q 1122 761 1049 754 q 1278 772 1196 768 q 1440 776 1361 776 q 1590 771 1521 776 q 1706 752 1660 765 q 1761 715 1751 739 q 1765 696 1765 707 q 1749 645 1765 672 q 1710 594 1732 618 q 1696 588 1703 588 q 1688 596 1688 588 q 1693 607 1688 601 q 1724 682 1731 646 q 1695 715 1721 701 q 1631 736 1669 728 q 1550 749 1593 744 q 1469 753 1507 753 q 1389 746 1414 753 q 1347 717 1376 743 q 1281 652 1318 690 q 1208 572 1244 614 q 1140 496 1171 531 q 1094 443 1110 461 q 1222 455 1160 450 q 1351 460 1283 460 q 1420 458 1385 460 q 1494 453 1456 457 q 1517 443 1517 451 q 1507 433 1517 438 q 1490 429 1497 429 q 1452 430 1472 429 q 1410 431 1432 431 q 1288 428 1351 431 q 1167 419 1224 425 q 1069 407 1110 414 q 1029 347 1049 378 q 993 285 1010 317 q 1001 282 997 283 q 1042 267 1026 276 q 1057 251 1057 258 q 1040 244 1057 244 q 982 264 1010 256 q 956 202 967 233 q 938 142 944 171 q 929 81 929 108 q 953 1 929 29 q 1018 -39 978 -28 q 1106 -50 1058 -50 q 1249 -37 1167 -50 q 1415 8 1331 -24 q 1563 90 1499 39 q 1605 131 1586 108 q 1639 176 1624 153 q 1646 182 1643 182 q 1650 175 1650 182 q 1646 161 1650 168 q 1615 115 1632 139 q 1579 72 1599 92 q 1442 -21 1518 13 q 1285 -67 1367 -54 q 1126 -79 1204 -79 q 1006 -67 1063 -79 q 915 -22 950 -56 q 881 72 881 11 q 883 108 881 89 q 892 147 886 126 q 913 209 900 178 q 944 274 926 240 q 870 287 908 282 q 785 296 832 292 l 757 267 q 633 146 704 211 q 479 22 561 81 q 310 -74 397 -36 q 139 -111 224 -111 m 804 317 q 956 293 889 308 q 993 358 972 324 q 1144 560 1054 458 q 1329 746 1235 663 q 1206 685 1274 728 q 1068 584 1139 643 q 929 456 997 525 q 804 317 861 388 m 171 -75 q 326 -39 247 -75 q 480 53 404 -3 q 624 175 556 110 q 750 299 693 240 q 638 303 694 303 q 520 297 578 303 q 406 279 463 292 q 259 226 322 260 q 154 151 196 192 q 95 76 119 118 q 71 -3 71 33 q 94 -54 71 -33 q 171 -75 117 -75 m 1467 860 q 1464 863 1464 860 q 1469 871 1464 865 q 1478 879 1475 876 q 1522 917 1493 893 q 1568 954 1550 940 q 1581 964 1575 960 q 1592 968 1586 968 q 1609 964 1601 968 q 1615 950 1617 960 q 1599 931 1615 942 q 1571 914 1582 921 q 1533 892 1556 906 q 1492 869 1511 879 q 1467 860 1474 860 z "},"Á":{"ha":1240,"x_min":3,"x_max":1379,"o":"m 139 -111 q 92 -107 115 -111 q 8 -50 25 -96 q 3 -15 3 -35 q 47 99 3 38 q 174 215 90 161 q 376 294 258 268 q 516 317 444 310 q 657 324 588 324 q 769 319 715 324 q 947 511 861 413 q 1099 696 1032 610 q 1098 699 1099 697 q 1097 703 1097 701 q 1064 738 1094 726 q 994 753 1033 750 q 924 757 956 757 q 888 757 892 757 q 747 740 815 751 q 642 713 678 728 q 586 683 607 699 q 565 649 565 667 q 606 601 565 625 q 608 596 608 600 q 606 589 608 592 q 600 588 603 586 q 546 658 546 618 q 619 739 546 711 q 690 756 640 747 q 803 771 740 765 q 928 776 867 776 q 1054 766 1000 776 q 1115 728 1108 756 q 1115 718 1117 724 q 1136 745 1126 732 q 1156 772 1146 758 q 1163 775 1157 775 q 1169 771 1167 775 q 1168 763 1172 767 q 1068 630 1128 707 q 940 472 1008 553 q 804 317 872 390 q 1001 282 928 304 q 1010 311 1006 297 q 1019 339 1014 325 q 1078 485 1046 413 q 1141 622 1110 558 q 1197 731 1172 686 q 1232 792 1221 776 q 1253 806 1239 801 q 1279 811 1268 811 q 1294 800 1301 811 q 1244 719 1276 775 q 1173 587 1211 663 q 1100 428 1135 511 q 1044 265 1065 344 q 1065 249 1061 257 q 1067 243 1067 247 q 1061 233 1067 238 q 1053 235 1056 229 q 1048 240 1051 238 q 1040 244 1044 242 q 1028 184 1033 214 q 1024 126 1024 154 q 1045 33 1024 71 q 1117 -17 1067 -6 q 1130 -19 1124 -18 q 1143 -19 1136 -19 q 1186 -10 1164 -19 q 1228 21 1208 -1 q 1236 24 1231 24 q 1247 19 1243 24 q 1247 11 1251 15 q 1199 -25 1225 -14 q 1144 -36 1172 -36 q 1111 -32 1128 -36 q 1011 35 1040 -17 q 982 154 982 86 q 986 206 982 179 q 996 261 990 233 q 905 281 960 272 q 785 296 850 290 l 757 267 q 633 146 704 211 q 479 22 561 81 q 310 -74 397 -36 q 139 -111 224 -111 m 171 -75 q 326 -39 247 -75 q 480 53 404 -3 q 624 175 556 110 q 750 299 693 240 q 638 303 694 303 q 520 297 578 303 q 406 279 463 292 q 259 226 322 260 q 154 151 196 192 q 95 76 119 118 q 71 -3 71 33 q 94 -54 71 -33 q 171 -75 117 -75 m 1207 886 q 1204 889 1204 886 q 1210 897 1204 892 q 1218 906 1215 903 q 1250 934 1228 915 q 1296 972 1272 953 q 1331 1000 1319 990 q 1343 1010 1338 1006 q 1354 1014 1349 1014 q 1372 1010 1364 1014 q 1378 996 1379 1006 q 1361 977 1378 988 q 1333 960 1344 967 q 1290 933 1318 951 q 1238 901 1263 915 q 1207 886 1214 886 z "},"Ă":{"ha":1240,"x_min":3,"x_max":1435,"o":"m 139 -111 q 92 -107 115 -111 q 8 -50 25 -96 q 3 -15 3 -35 q 47 99 3 38 q 174 215 90 161 q 376 294 258 268 q 516 317 444 310 q 657 324 588 324 q 769 319 715 324 q 947 511 861 413 q 1099 696 1032 610 q 1098 699 1099 697 q 1097 703 1097 701 q 1064 738 1094 726 q 994 753 1033 750 q 924 757 956 757 q 888 757 892 757 q 747 740 815 751 q 642 713 678 728 q 586 683 607 699 q 565 649 565 667 q 606 601 565 625 q 608 596 608 600 q 606 589 608 592 q 600 588 603 586 q 546 658 546 618 q 619 739 546 711 q 690 756 640 747 q 803 771 740 765 q 928 776 867 776 q 1054 766 1000 776 q 1115 728 1108 756 q 1115 718 1117 724 q 1136 745 1126 732 q 1156 772 1146 758 q 1163 775 1157 775 q 1169 771 1167 775 q 1168 763 1172 767 q 1068 630 1128 707 q 940 472 1008 553 q 804 317 872 390 q 1001 282 928 304 q 1010 311 1006 297 q 1019 339 1014 325 q 1078 485 1046 413 q 1141 622 1110 558 q 1197 731 1172 686 q 1232 792 1221 776 q 1253 806 1239 801 q 1279 811 1268 811 q 1294 800 1301 811 q 1244 719 1276 775 q 1173 587 1211 663 q 1100 428 1135 511 q 1044 265 1065 344 q 1065 249 1061 257 q 1067 243 1067 247 q 1061 233 1067 238 q 1053 235 1056 229 q 1048 240 1051 238 q 1040 244 1044 242 q 1028 184 1033 214 q 1024 126 1024 154 q 1045 33 1024 71 q 1117 -17 1067 -6 q 1130 -19 1124 -18 q 1143 -19 1136 -19 q 1186 -10 1164 -19 q 1228 21 1208 -1 q 1236 24 1231 24 q 1247 19 1243 24 q 1247 11 1251 15 q 1199 -25 1225 -14 q 1144 -36 1172 -36 q 1111 -32 1128 -36 q 1011 35 1040 -17 q 982 154 982 86 q 986 206 982 179 q 996 261 990 233 q 905 281 960 272 q 785 296 850 290 l 757 267 q 633 146 704 211 q 479 22 561 81 q 310 -74 397 -36 q 139 -111 224 -111 m 171 -75 q 326 -39 247 -75 q 480 53 404 -3 q 624 175 556 110 q 750 299 693 240 q 638 303 694 303 q 520 297 578 303 q 406 279 463 292 q 259 226 322 260 q 154 151 196 192 q 95 76 119 118 q 71 -3 71 33 q 94 -54 71 -33 q 171 -75 117 -75 m 1258 888 q 1165 954 1165 888 q 1166 966 1165 961 q 1167 972 1167 971 q 1174 992 1169 988 q 1183 996 1179 996 q 1197 971 1194 996 q 1214 933 1200 946 q 1275 919 1228 919 q 1355 935 1324 919 q 1406 969 1386 950 q 1418 984 1414 978 q 1426 990 1422 990 q 1429 981 1435 990 q 1400 943 1424 965 q 1340 904 1376 921 q 1258 888 1304 888 z "},"Ắ":{"ha":1240,"x_min":3,"x_max":1435,"o":"m 139 -111 q 92 -107 115 -111 q 8 -50 25 -96 q 3 -15 3 -35 q 47 99 3 38 q 174 215 90 161 q 376 294 258 268 q 516 317 444 310 q 657 324 588 324 q 769 319 715 324 q 947 511 861 413 q 1099 696 1032 610 q 1098 699 1099 697 q 1097 703 1097 701 q 1064 738 1094 726 q 994 753 1033 750 q 924 757 956 757 q 888 757 892 757 q 747 740 815 751 q 642 713 678 728 q 586 683 607 699 q 565 649 565 667 q 606 601 565 625 q 608 596 608 600 q 606 589 608 592 q 600 588 603 586 q 546 658 546 618 q 619 739 546 711 q 690 756 640 747 q 803 771 740 765 q 928 776 867 776 q 1054 766 1000 776 q 1115 728 1108 756 q 1115 718 1117 724 q 1136 745 1126 732 q 1156 772 1146 758 q 1163 775 1157 775 q 1169 771 1167 775 q 1168 763 1172 767 q 1068 630 1128 707 q 940 472 1008 553 q 804 317 872 390 q 1001 282 928 304 q 1010 311 1006 297 q 1019 339 1014 325 q 1078 485 1046 413 q 1141 622 1110 558 q 1197 731 1172 686 q 1232 792 1221 776 q 1253 806 1239 801 q 1279 811 1268 811 q 1294 800 1301 811 q 1244 719 1276 775 q 1173 587 1211 663 q 1100 428 1135 511 q 1044 265 1065 344 q 1065 249 1061 257 q 1067 243 1067 247 q 1061 233 1067 238 q 1053 235 1056 229 q 1048 240 1051 238 q 1040 244 1044 242 q 1028 184 1033 214 q 1024 126 1024 154 q 1045 33 1024 71 q 1117 -17 1067 -6 q 1130 -19 1124 -18 q 1143 -19 1136 -19 q 1186 -10 1164 -19 q 1228 21 1208 -1 q 1236 24 1231 24 q 1247 19 1243 24 q 1247 11 1251 15 q 1199 -25 1225 -14 q 1144 -36 1172 -36 q 1111 -32 1128 -36 q 1011 35 1040 -17 q 982 154 982 86 q 986 206 982 179 q 996 261 990 233 q 905 281 960 272 q 785 296 850 290 l 757 267 q 633 146 704 211 q 479 22 561 81 q 310 -74 397 -36 q 139 -111 224 -111 m 171 -75 q 326 -39 247 -75 q 480 53 404 -3 q 624 175 556 110 q 750 299 693 240 q 638 303 694 303 q 520 297 578 303 q 406 279 463 292 q 259 226 322 260 q 154 151 196 192 q 95 76 119 118 q 71 -3 71 33 q 94 -54 71 -33 q 171 -75 117 -75 m 1258 888 q 1165 954 1165 888 q 1166 966 1165 961 q 1167 972 1167 971 q 1174 992 1169 988 q 1183 996 1179 996 q 1197 971 1194 996 q 1214 933 1200 946 q 1275 919 1228 919 q 1355 935 1324 919 q 1406 969 1386 950 q 1418 984 1414 978 q 1426 990 1422 990 q 1429 981 1435 990 q 1400 943 1424 965 q 1340 904 1376 921 q 1258 888 1304 888 m 1257 1021 q 1254 1024 1254 1021 q 1260 1032 1254 1026 q 1268 1040 1265 1038 q 1300 1069 1278 1050 q 1346 1106 1322 1088 q 1381 1135 1369 1125 q 1393 1144 1388 1140 q 1404 1149 1399 1149 q 1422 1144 1414 1149 q 1428 1131 1429 1140 q 1411 1112 1428 1122 q 1383 1094 1394 1101 q 1340 1068 1368 1086 q 1288 1035 1313 1050 q 1257 1021 1264 1021 z "},"Ặ":{"ha":1240,"x_min":3,"x_max":1435,"o":"m 139 -111 q 92 -107 115 -111 q 8 -50 25 -96 q 3 -15 3 -35 q 47 99 3 38 q 174 215 90 161 q 376 294 258 268 q 516 317 444 310 q 657 324 588 324 q 769 319 715 324 q 947 511 861 413 q 1099 696 1032 610 q 1098 699 1099 697 q 1097 703 1097 701 q 1064 738 1094 726 q 994 753 1033 750 q 924 757 956 757 q 888 757 892 757 q 747 740 815 751 q 642 713 678 728 q 586 683 607 699 q 565 649 565 667 q 606 601 565 625 q 608 596 608 600 q 606 589 608 592 q 600 588 603 586 q 546 658 546 618 q 619 739 546 711 q 690 756 640 747 q 803 771 740 765 q 928 776 867 776 q 1054 766 1000 776 q 1115 728 1108 756 q 1115 718 1117 724 q 1136 745 1126 732 q 1156 772 1146 758 q 1163 775 1157 775 q 1169 771 1167 775 q 1168 763 1172 767 q 1068 630 1128 707 q 940 472 1008 553 q 804 317 872 390 q 1001 282 928 304 q 1010 311 1006 297 q 1019 339 1014 325 q 1078 485 1046 413 q 1141 622 1110 558 q 1197 731 1172 686 q 1232 792 1221 776 q 1253 806 1239 801 q 1279 811 1268 811 q 1294 800 1301 811 q 1244 719 1276 775 q 1173 587 1211 663 q 1100 428 1135 511 q 1044 265 1065 344 q 1065 249 1061 257 q 1067 243 1067 247 q 1061 233 1067 238 q 1053 235 1056 229 q 1048 240 1051 238 q 1040 244 1044 242 q 1028 184 1033 214 q 1024 126 1024 154 q 1045 33 1024 71 q 1117 -17 1067 -6 q 1130 -19 1124 -18 q 1143 -19 1136 -19 q 1186 -10 1164 -19 q 1228 21 1208 -1 q 1236 24 1231 24 q 1247 19 1243 24 q 1247 11 1251 15 q 1199 -25 1225 -14 q 1144 -36 1172 -36 q 1111 -32 1128 -36 q 1011 35 1040 -17 q 982 154 982 86 q 986 206 982 179 q 996 261 990 233 q 905 281 960 272 q 785 296 850 290 l 757 267 q 633 146 704 211 q 479 22 561 81 q 310 -74 397 -36 q 139 -111 224 -111 m 171 -75 q 326 -39 247 -75 q 480 53 404 -3 q 624 175 556 110 q 750 299 693 240 q 638 303 694 303 q 520 297 578 303 q 406 279 463 292 q 259 226 322 260 q 154 151 196 192 q 95 76 119 118 q 71 -3 71 33 q 94 -54 71 -33 q 171 -75 117 -75 m 688 -165 q 672 -153 678 -165 q 665 -133 665 -142 q 678 -111 665 -122 q 708 -92 692 -100 q 733 -85 724 -85 q 740 -90 740 -85 q 738 -104 740 -96 q 726 -124 735 -112 q 715 -149 719 -133 q 688 -165 710 -165 m 1258 888 q 1165 954 1165 888 q 1166 966 1165 961 q 1167 972 1167 971 q 1174 992 1169 988 q 1183 996 1179 996 q 1197 971 1194 996 q 1214 933 1200 946 q 1275 919 1228 919 q 1355 935 1324 919 q 1406 969 1386 950 q 1418 984 1414 978 q 1426 990 1422 990 q 1429 981 1435 990 q 1400 943 1424 965 q 1340 904 1376 921 q 1258 888 1304 888 z "},"Ằ":{"ha":1240,"x_min":3,"x_max":1435,"o":"m 139 -111 q 92 -107 115 -111 q 8 -50 25 -96 q 3 -15 3 -35 q 47 99 3 38 q 174 215 90 161 q 376 294 258 268 q 516 317 444 310 q 657 324 588 324 q 769 319 715 324 q 947 511 861 413 q 1099 696 1032 610 q 1098 699 1099 697 q 1097 703 1097 701 q 1064 738 1094 726 q 994 753 1033 750 q 924 757 956 757 q 888 757 892 757 q 747 740 815 751 q 642 713 678 728 q 586 683 607 699 q 565 649 565 667 q 606 601 565 625 q 608 596 608 600 q 606 589 608 592 q 600 588 603 586 q 546 658 546 618 q 619 739 546 711 q 690 756 640 747 q 803 771 740 765 q 928 776 867 776 q 1054 766 1000 776 q 1115 728 1108 756 q 1115 718 1117 724 q 1136 745 1126 732 q 1156 772 1146 758 q 1163 775 1157 775 q 1169 771 1167 775 q 1168 763 1172 767 q 1068 630 1128 707 q 940 472 1008 553 q 804 317 872 390 q 1001 282 928 304 q 1010 311 1006 297 q 1019 339 1014 325 q 1078 485 1046 413 q 1141 622 1110 558 q 1197 731 1172 686 q 1232 792 1221 776 q 1253 806 1239 801 q 1279 811 1268 811 q 1294 800 1301 811 q 1244 719 1276 775 q 1173 587 1211 663 q 1100 428 1135 511 q 1044 265 1065 344 q 1065 249 1061 257 q 1067 243 1067 247 q 1061 233 1067 238 q 1053 235 1056 229 q 1048 240 1051 238 q 1040 244 1044 242 q 1028 184 1033 214 q 1024 126 1024 154 q 1045 33 1024 71 q 1117 -17 1067 -6 q 1130 -19 1124 -18 q 1143 -19 1136 -19 q 1186 -10 1164 -19 q 1228 21 1208 -1 q 1236 24 1231 24 q 1247 19 1243 24 q 1247 11 1251 15 q 1199 -25 1225 -14 q 1144 -36 1172 -36 q 1111 -32 1128 -36 q 1011 35 1040 -17 q 982 154 982 86 q 986 206 982 179 q 996 261 990 233 q 905 281 960 272 q 785 296 850 290 l 757 267 q 633 146 704 211 q 479 22 561 81 q 310 -74 397 -36 q 139 -111 224 -111 m 171 -75 q 326 -39 247 -75 q 480 53 404 -3 q 624 175 556 110 q 750 299 693 240 q 638 303 694 303 q 520 297 578 303 q 406 279 463 292 q 259 226 322 260 q 154 151 196 192 q 95 76 119 118 q 71 -3 71 33 q 94 -54 71 -33 q 171 -75 117 -75 m 1258 888 q 1165 954 1165 888 q 1166 966 1165 961 q 1167 972 1167 971 q 1174 992 1169 988 q 1183 996 1179 996 q 1197 971 1194 996 q 1214 933 1200 946 q 1275 919 1228 919 q 1355 935 1324 919 q 1406 969 1386 950 q 1418 984 1414 978 q 1426 990 1422 990 q 1429 981 1435 990 q 1400 943 1424 965 q 1340 904 1376 921 q 1258 888 1304 888 m 1322 1021 q 1292 1035 1317 1021 q 1239 1068 1267 1050 q 1196 1094 1211 1086 q 1169 1112 1186 1101 q 1151 1131 1151 1122 l 1151 1132 q 1158 1144 1151 1140 q 1175 1149 1165 1149 q 1188 1144 1182 1149 q 1199 1135 1193 1140 q 1234 1106 1211 1125 q 1279 1069 1257 1088 q 1311 1040 1301 1050 q 1319 1032 1314 1038 q 1325 1024 1325 1026 q 1322 1021 1325 1021 z "},"Ẳ":{"ha":1240,"x_min":3,"x_max":1435,"o":"m 139 -111 q 92 -107 115 -111 q 8 -50 25 -96 q 3 -15 3 -35 q 47 99 3 38 q 174 215 90 161 q 376 294 258 268 q 516 317 444 310 q 657 324 588 324 q 769 319 715 324 q 947 511 861 413 q 1099 696 1032 610 q 1098 699 1099 697 q 1097 703 1097 701 q 1064 738 1094 726 q 994 753 1033 750 q 924 757 956 757 q 888 757 892 757 q 747 740 815 751 q 642 713 678 728 q 586 683 607 699 q 565 649 565 667 q 606 601 565 625 q 608 596 608 600 q 606 589 608 592 q 600 588 603 586 q 546 658 546 618 q 619 739 546 711 q 690 756 640 747 q 803 771 740 765 q 928 776 867 776 q 1054 766 1000 776 q 1115 728 1108 756 q 1115 718 1117 724 q 1136 745 1126 732 q 1156 772 1146 758 q 1163 775 1157 775 q 1169 771 1167 775 q 1168 763 1172 767 q 1068 630 1128 707 q 940 472 1008 553 q 804 317 872 390 q 1001 282 928 304 q 1010 311 1006 297 q 1019 339 1014 325 q 1078 485 1046 413 q 1141 622 1110 558 q 1197 731 1172 686 q 1232 792 1221 776 q 1253 806 1239 801 q 1279 811 1268 811 q 1294 800 1301 811 q 1244 719 1276 775 q 1173 587 1211 663 q 1100 428 1135 511 q 1044 265 1065 344 q 1065 249 1061 257 q 1067 243 1067 247 q 1061 233 1067 238 q 1053 235 1056 229 q 1048 240 1051 238 q 1040 244 1044 242 q 1028 184 1033 214 q 1024 126 1024 154 q 1045 33 1024 71 q 1117 -17 1067 -6 q 1130 -19 1124 -18 q 1143 -19 1136 -19 q 1186 -10 1164 -19 q 1228 21 1208 -1 q 1236 24 1231 24 q 1247 19 1243 24 q 1247 11 1251 15 q 1199 -25 1225 -14 q 1144 -36 1172 -36 q 1111 -32 1128 -36 q 1011 35 1040 -17 q 982 154 982 86 q 986 206 982 179 q 996 261 990 233 q 905 281 960 272 q 785 296 850 290 l 757 267 q 633 146 704 211 q 479 22 561 81 q 310 -74 397 -36 q 139 -111 224 -111 m 171 -75 q 326 -39 247 -75 q 480 53 404 -3 q 624 175 556 110 q 750 299 693 240 q 638 303 694 303 q 520 297 578 303 q 406 279 463 292 q 259 226 322 260 q 154 151 196 192 q 95 76 119 118 q 71 -3 71 33 q 94 -54 71 -33 q 171 -75 117 -75 m 1258 888 q 1165 954 1165 888 q 1166 966 1165 961 q 1167 972 1167 971 q 1174 992 1169 988 q 1183 996 1179 996 q 1197 971 1194 996 q 1214 933 1200 946 q 1275 919 1228 919 q 1355 935 1324 919 q 1406 969 1386 950 q 1418 984 1414 978 q 1426 990 1422 990 q 1429 981 1435 990 q 1400 943 1424 965 q 1340 904 1376 921 q 1258 888 1304 888 m 1301 1007 q 1294 1013 1294 1007 q 1301 1025 1294 1015 q 1314 1038 1308 1032 q 1324 1049 1319 1043 q 1357 1100 1353 1076 q 1358 1105 1357 1103 q 1358 1108 1358 1107 q 1326 1131 1358 1131 q 1294 1121 1310 1131 q 1270 1104 1279 1111 q 1263 1106 1261 1097 q 1292 1145 1268 1129 q 1353 1161 1315 1161 q 1385 1147 1375 1161 q 1394 1118 1394 1133 q 1344 1038 1394 1074 q 1328 1027 1339 1035 q 1308 1013 1317 1019 q 1301 1007 1300 1007 z "},"Ẵ":{"ha":1240,"x_min":3,"x_max":1457,"o":"m 139 -111 q 92 -107 115 -111 q 8 -50 25 -96 q 3 -15 3 -35 q 47 99 3 38 q 174 215 90 161 q 376 294 258 268 q 516 317 444 310 q 657 324 588 324 q 769 319 715 324 q 947 511 861 413 q 1099 696 1032 610 q 1098 699 1099 697 q 1097 703 1097 701 q 1064 738 1094 726 q 994 753 1033 750 q 924 757 956 757 q 888 757 892 757 q 747 740 815 751 q 642 713 678 728 q 586 683 607 699 q 565 649 565 667 q 606 601 565 625 q 608 596 608 600 q 606 589 608 592 q 600 588 603 586 q 546 658 546 618 q 619 739 546 711 q 690 756 640 747 q 803 771 740 765 q 928 776 867 776 q 1054 766 1000 776 q 1115 728 1108 756 q 1115 718 1117 724 q 1136 745 1126 732 q 1156 772 1146 758 q 1163 775 1157 775 q 1169 771 1167 775 q 1168 763 1172 767 q 1068 630 1128 707 q 940 472 1008 553 q 804 317 872 390 q 1001 282 928 304 q 1010 311 1006 297 q 1019 339 1014 325 q 1078 485 1046 413 q 1141 622 1110 558 q 1197 731 1172 686 q 1232 792 1221 776 q 1253 806 1239 801 q 1279 811 1268 811 q 1294 800 1301 811 q 1244 719 1276 775 q 1173 587 1211 663 q 1100 428 1135 511 q 1044 265 1065 344 q 1065 249 1061 257 q 1067 243 1067 247 q 1061 233 1067 238 q 1053 235 1056 229 q 1048 240 1051 238 q 1040 244 1044 242 q 1028 184 1033 214 q 1024 126 1024 154 q 1045 33 1024 71 q 1117 -17 1067 -6 q 1130 -19 1124 -18 q 1143 -19 1136 -19 q 1186 -10 1164 -19 q 1228 21 1208 -1 q 1236 24 1231 24 q 1247 19 1243 24 q 1247 11 1251 15 q 1199 -25 1225 -14 q 1144 -36 1172 -36 q 1111 -32 1128 -36 q 1011 35 1040 -17 q 982 154 982 86 q 986 206 982 179 q 996 261 990 233 q 905 281 960 272 q 785 296 850 290 l 757 267 q 633 146 704 211 q 479 22 561 81 q 310 -74 397 -36 q 139 -111 224 -111 m 171 -75 q 326 -39 247 -75 q 480 53 404 -3 q 624 175 556 110 q 750 299 693 240 q 638 303 694 303 q 520 297 578 303 q 406 279 463 292 q 259 226 322 260 q 154 151 196 192 q 95 76 119 118 q 71 -3 71 33 q 94 -54 71 -33 q 171 -75 117 -75 m 1258 888 q 1165 954 1165 888 q 1166 966 1165 961 q 1167 972 1167 971 q 1174 992 1169 988 q 1183 996 1179 996 q 1197 971 1194 996 q 1214 933 1200 946 q 1275 919 1228 919 q 1355 935 1324 919 q 1406 969 1386 950 q 1418 984 1414 978 q 1426 990 1422 990 q 1429 981 1435 990 q 1400 943 1424 965 q 1340 904 1376 921 q 1258 888 1304 888 m 1189 1024 q 1186 1033 1182 1024 q 1199 1055 1190 1040 q 1222 1082 1208 1069 q 1250 1094 1235 1094 q 1295 1086 1269 1094 q 1349 1069 1321 1078 q 1404 1060 1378 1060 q 1433 1075 1422 1060 q 1449 1092 1444 1090 q 1450 1076 1457 1092 q 1426 1041 1442 1057 q 1396 1025 1411 1025 q 1347 1034 1375 1025 q 1292 1052 1319 1043 q 1246 1061 1265 1061 q 1220 1052 1232 1061 q 1201 1033 1208 1043 q 1189 1024 1193 1024 z "},"Ǎ":{"ha":1240,"x_min":3,"x_max":1432,"o":"m 1432 985 q 1432 982 1432 985 q 1424 973 1431 979 q 1411 964 1417 967 q 1351 931 1389 950 q 1290 896 1314 911 q 1271 885 1282 890 q 1253 881 1260 881 q 1241 885 1246 881 q 1231 894 1236 889 q 1195 931 1215 910 q 1167 965 1175 951 q 1162 974 1165 968 q 1160 982 1158 979 q 1165 985 1160 985 q 1192 972 1171 986 q 1237 940 1214 957 q 1267 917 1260 924 q 1303 933 1278 922 q 1356 956 1328 944 q 1406 976 1385 968 q 1432 985 1428 985 m 139 -111 q 92 -107 115 -111 q 8 -50 25 -96 q 3 -15 3 -35 q 47 99 3 38 q 174 215 90 161 q 376 294 258 268 q 516 317 444 310 q 657 324 588 324 q 769 319 715 324 q 947 511 861 413 q 1099 696 1032 610 q 1098 699 1099 697 q 1097 703 1097 701 q 1064 738 1094 726 q 994 753 1033 750 q 924 757 956 757 q 888 757 892 757 q 747 740 815 751 q 642 713 678 728 q 586 683 607 699 q 565 649 565 667 q 606 601 565 625 q 608 596 608 600 q 606 589 608 592 q 600 588 603 586 q 546 658 546 618 q 619 739 546 711 q 690 756 640 747 q 803 771 740 765 q 928 776 867 776 q 1054 766 1000 776 q 1115 728 1108 756 q 1115 718 1117 724 q 1136 745 1126 732 q 1156 772 1146 758 q 1163 775 1157 775 q 1169 771 1167 775 q 1168 763 1172 767 q 1068 630 1128 707 q 940 472 1008 553 q 804 317 872 390 q 1001 282 928 304 q 1010 311 1006 297 q 1019 339 1014 325 q 1078 485 1046 413 q 1141 622 1110 558 q 1197 731 1172 686 q 1232 792 1221 776 q 1253 806 1239 801 q 1279 811 1268 811 q 1294 800 1301 811 q 1244 719 1276 775 q 1173 587 1211 663 q 1100 428 1135 511 q 1044 265 1065 344 q 1065 249 1061 257 q 1067 243 1067 247 q 1061 233 1067 238 q 1053 235 1056 229 q 1048 240 1051 238 q 1040 244 1044 242 q 1028 184 1033 214 q 1024 126 1024 154 q 1045 33 1024 71 q 1117 -17 1067 -6 q 1130 -19 1124 -18 q 1143 -19 1136 -19 q 1186 -10 1164 -19 q 1228 21 1208 -1 q 1236 24 1231 24 q 1247 19 1243 24 q 1247 11 1251 15 q 1199 -25 1225 -14 q 1144 -36 1172 -36 q 1111 -32 1128 -36 q 1011 35 1040 -17 q 982 154 982 86 q 986 206 982 179 q 996 261 990 233 q 905 281 960 272 q 785 296 850 290 l 757 267 q 633 146 704 211 q 479 22 561 81 q 310 -74 397 -36 q 139 -111 224 -111 m 171 -75 q 326 -39 247 -75 q 480 53 404 -3 q 624 175 556 110 q 750 299 693 240 q 638 303 694 303 q 520 297 578 303 q 406 279 463 292 q 259 226 322 260 q 154 151 196 192 q 95 76 119 118 q 71 -3 71 33 q 94 -54 71 -33 q 171 -75 117 -75 z "},"Â":{"ha":1240,"x_min":3,"x_max":1392,"o":"m 139 -111 q 92 -107 115 -111 q 8 -50 25 -96 q 3 -15 3 -35 q 47 99 3 38 q 174 215 90 161 q 376 294 258 268 q 516 317 444 310 q 657 324 588 324 q 769 319 715 324 q 947 511 861 413 q 1099 696 1032 610 q 1098 699 1099 697 q 1097 703 1097 701 q 1064 738 1094 726 q 994 753 1033 750 q 924 757 956 757 q 888 757 892 757 q 747 740 815 751 q 642 713 678 728 q 586 683 607 699 q 565 649 565 667 q 606 601 565 625 q 608 596 608 600 q 606 589 608 592 q 600 588 603 586 q 546 658 546 618 q 619 739 546 711 q 690 756 640 747 q 803 771 740 765 q 928 776 867 776 q 1054 766 1000 776 q 1115 728 1108 756 q 1115 718 1117 724 q 1136 745 1126 732 q 1156 772 1146 758 q 1163 775 1157 775 q 1169 771 1167 775 q 1168 763 1172 767 q 1068 630 1128 707 q 940 472 1008 553 q 804 317 872 390 q 1001 282 928 304 q 1010 311 1006 297 q 1019 339 1014 325 q 1078 485 1046 413 q 1141 622 1110 558 q 1197 731 1172 686 q 1232 792 1221 776 q 1253 806 1239 801 q 1279 811 1268 811 q 1294 800 1301 811 q 1244 719 1276 775 q 1173 587 1211 663 q 1100 428 1135 511 q 1044 265 1065 344 q 1065 249 1061 257 q 1067 243 1067 247 q 1061 233 1067 238 q 1053 235 1056 229 q 1048 240 1051 238 q 1040 244 1044 242 q 1028 184 1033 214 q 1024 126 1024 154 q 1045 33 1024 71 q 1117 -17 1067 -6 q 1130 -19 1124 -18 q 1143 -19 1136 -19 q 1186 -10 1164 -19 q 1228 21 1208 -1 q 1236 24 1231 24 q 1247 19 1243 24 q 1247 11 1251 15 q 1199 -25 1225 -14 q 1144 -36 1172 -36 q 1111 -32 1128 -36 q 1011 35 1040 -17 q 982 154 982 86 q 986 206 982 179 q 996 261 990 233 q 905 281 960 272 q 785 296 850 290 l 757 267 q 633 146 704 211 q 479 22 561 81 q 310 -74 397 -36 q 139 -111 224 -111 m 171 -75 q 326 -39 247 -75 q 480 53 404 -3 q 624 175 556 110 q 750 299 693 240 q 638 303 694 303 q 520 297 578 303 q 406 279 463 292 q 259 226 322 260 q 154 151 196 192 q 95 76 119 118 q 71 -3 71 33 q 94 -54 71 -33 q 171 -75 117 -75 m 1118 881 q 1118 883 1118 881 q 1126 892 1119 886 q 1139 901 1133 899 q 1199 935 1163 915 q 1260 969 1236 954 q 1279 980 1268 975 q 1297 985 1290 985 q 1309 981 1304 985 q 1319 971 1314 976 q 1355 935 1335 956 q 1383 900 1375 914 q 1389 892 1386 899 q 1390 883 1392 886 q 1385 881 1390 881 q 1358 894 1381 881 q 1314 925 1336 908 q 1283 949 1292 942 q 1247 932 1272 943 q 1194 909 1222 921 q 1144 889 1165 897 q 1118 881 1122 881 z "},"Ấ":{"ha":1240,"x_min":3,"x_max":1563,"o":"m 139 -111 q 92 -107 115 -111 q 8 -50 25 -96 q 3 -15 3 -35 q 47 99 3 38 q 174 215 90 161 q 376 294 258 268 q 516 317 444 310 q 657 324 588 324 q 769 319 715 324 q 947 511 861 413 q 1099 696 1032 610 q 1098 699 1099 697 q 1097 703 1097 701 q 1064 738 1094 726 q 994 753 1033 750 q 924 757 956 757 q 888 757 892 757 q 747 740 815 751 q 642 713 678 728 q 586 683 607 699 q 565 649 565 667 q 606 601 565 625 q 608 596 608 600 q 606 589 608 592 q 600 588 603 586 q 546 658 546 618 q 619 739 546 711 q 690 756 640 747 q 803 771 740 765 q 928 776 867 776 q 1054 766 1000 776 q 1115 728 1108 756 q 1115 718 1117 724 q 1136 745 1126 732 q 1156 772 1146 758 q 1163 775 1157 775 q 1169 771 1167 775 q 1168 763 1172 767 q 1068 630 1128 707 q 940 472 1008 553 q 804 317 872 390 q 1001 282 928 304 q 1010 311 1006 297 q 1019 339 1014 325 q 1078 485 1046 413 q 1141 622 1110 558 q 1197 731 1172 686 q 1232 792 1221 776 q 1253 806 1239 801 q 1279 811 1268 811 q 1294 800 1301 811 q 1244 719 1276 775 q 1173 587 1211 663 q 1100 428 1135 511 q 1044 265 1065 344 q 1065 249 1061 257 q 1067 243 1067 247 q 1061 233 1067 238 q 1053 235 1056 229 q 1048 240 1051 238 q 1040 244 1044 242 q 1028 184 1033 214 q 1024 126 1024 154 q 1045 33 1024 71 q 1117 -17 1067 -6 q 1130 -19 1124 -18 q 1143 -19 1136 -19 q 1186 -10 1164 -19 q 1228 21 1208 -1 q 1236 24 1231 24 q 1247 19 1243 24 q 1247 11 1251 15 q 1199 -25 1225 -14 q 1144 -36 1172 -36 q 1111 -32 1128 -36 q 1011 35 1040 -17 q 982 154 982 86 q 986 206 982 179 q 996 261 990 233 q 905 281 960 272 q 785 296 850 290 l 757 267 q 633 146 704 211 q 479 22 561 81 q 310 -74 397 -36 q 139 -111 224 -111 m 171 -75 q 326 -39 247 -75 q 480 53 404 -3 q 624 175 556 110 q 750 299 693 240 q 638 303 694 303 q 520 297 578 303 q 406 279 463 292 q 259 226 322 260 q 154 151 196 192 q 95 76 119 118 q 71 -3 71 33 q 94 -54 71 -33 q 171 -75 117 -75 m 1118 881 q 1118 883 1118 881 q 1126 892 1119 886 q 1139 901 1133 899 q 1199 935 1163 915 q 1260 969 1236 954 q 1279 980 1268 975 q 1297 985 1290 985 q 1309 981 1304 985 q 1319 971 1314 976 q 1355 935 1335 956 q 1383 900 1375 914 q 1389 892 1386 899 q 1390 883 1392 886 q 1385 881 1390 881 q 1358 894 1381 881 q 1314 925 1336 908 q 1283 949 1292 942 q 1247 932 1272 943 q 1194 909 1222 921 q 1144 889 1165 897 q 1118 881 1122 881 m 1390 965 q 1388 968 1388 965 q 1393 976 1388 971 q 1401 985 1399 982 q 1433 1013 1411 994 q 1479 1051 1456 1032 q 1514 1079 1503 1069 q 1526 1089 1521 1085 q 1538 1093 1532 1093 q 1555 1089 1547 1093 q 1561 1075 1563 1085 q 1544 1056 1561 1067 q 1517 1039 1528 1046 q 1474 1013 1501 1031 q 1422 980 1446 994 q 1390 965 1397 965 z "},"Ậ":{"ha":1240,"x_min":3,"x_max":1392,"o":"m 139 -111 q 92 -107 115 -111 q 8 -50 25 -96 q 3 -15 3 -35 q 47 99 3 38 q 174 215 90 161 q 376 294 258 268 q 516 317 444 310 q 657 324 588 324 q 769 319 715 324 q 947 511 861 413 q 1099 696 1032 610 q 1098 699 1099 697 q 1097 703 1097 701 q 1064 738 1094 726 q 994 753 1033 750 q 924 757 956 757 q 888 757 892 757 q 747 740 815 751 q 642 713 678 728 q 586 683 607 699 q 565 649 565 667 q 606 601 565 625 q 608 596 608 600 q 606 589 608 592 q 600 588 603 586 q 546 658 546 618 q 619 739 546 711 q 690 756 640 747 q 803 771 740 765 q 928 776 867 776 q 1054 766 1000 776 q 1115 728 1108 756 q 1115 718 1117 724 q 1136 745 1126 732 q 1156 772 1146 758 q 1163 775 1157 775 q 1169 771 1167 775 q 1168 763 1172 767 q 1068 630 1128 707 q 940 472 1008 553 q 804 317 872 390 q 1001 282 928 304 q 1010 311 1006 297 q 1019 339 1014 325 q 1078 485 1046 413 q 1141 622 1110 558 q 1197 731 1172 686 q 1232 792 1221 776 q 1253 806 1239 801 q 1279 811 1268 811 q 1294 800 1301 811 q 1244 719 1276 775 q 1173 587 1211 663 q 1100 428 1135 511 q 1044 265 1065 344 q 1065 249 1061 257 q 1067 243 1067 247 q 1061 233 1067 238 q 1053 235 1056 229 q 1048 240 1051 238 q 1040 244 1044 242 q 1028 184 1033 214 q 1024 126 1024 154 q 1045 33 1024 71 q 1117 -17 1067 -6 q 1130 -19 1124 -18 q 1143 -19 1136 -19 q 1186 -10 1164 -19 q 1228 21 1208 -1 q 1236 24 1231 24 q 1247 19 1243 24 q 1247 11 1251 15 q 1199 -25 1225 -14 q 1144 -36 1172 -36 q 1111 -32 1128 -36 q 1011 35 1040 -17 q 982 154 982 86 q 986 206 982 179 q 996 261 990 233 q 905 281 960 272 q 785 296 850 290 l 757 267 q 633 146 704 211 q 479 22 561 81 q 310 -74 397 -36 q 139 -111 224 -111 m 171 -75 q 326 -39 247 -75 q 480 53 404 -3 q 624 175 556 110 q 750 299 693 240 q 638 303 694 303 q 520 297 578 303 q 406 279 463 292 q 259 226 322 260 q 154 151 196 192 q 95 76 119 118 q 71 -3 71 33 q 94 -54 71 -33 q 171 -75 117 -75 m 688 -165 q 672 -153 678 -165 q 665 -133 665 -142 q 678 -111 665 -122 q 708 -92 692 -100 q 733 -85 724 -85 q 740 -90 740 -85 q 738 -104 740 -96 q 726 -124 735 -112 q 715 -149 719 -133 q 688 -165 710 -165 m 1118 881 q 1118 883 1118 881 q 1126 892 1119 886 q 1139 901 1133 899 q 1199 935 1163 915 q 1260 969 1236 954 q 1279 980 1268 975 q 1297 985 1290 985 q 1309 981 1304 985 q 1319 971 1314 976 q 1355 935 1335 956 q 1383 900 1375 914 q 1389 892 1386 899 q 1390 883 1392 886 q 1385 881 1390 881 q 1358 894 1381 881 q 1314 925 1336 908 q 1283 949 1292 942 q 1247 932 1272 943 q 1194 909 1222 921 q 1144 889 1165 897 q 1118 881 1122 881 z "},"Ầ":{"ha":1240,"x_min":3,"x_max":1392,"o":"m 139 -111 q 92 -107 115 -111 q 8 -50 25 -96 q 3 -15 3 -35 q 47 99 3 38 q 174 215 90 161 q 376 294 258 268 q 516 317 444 310 q 657 324 588 324 q 769 319 715 324 q 947 511 861 413 q 1099 696 1032 610 q 1098 699 1099 697 q 1097 703 1097 701 q 1064 738 1094 726 q 994 753 1033 750 q 924 757 956 757 q 888 757 892 757 q 747 740 815 751 q 642 713 678 728 q 586 683 607 699 q 565 649 565 667 q 606 601 565 625 q 608 596 608 600 q 606 589 608 592 q 600 588 603 586 q 546 658 546 618 q 619 739 546 711 q 690 756 640 747 q 803 771 740 765 q 928 776 867 776 q 1054 766 1000 776 q 1115 728 1108 756 q 1115 718 1117 724 q 1136 745 1126 732 q 1156 772 1146 758 q 1163 775 1157 775 q 1169 771 1167 775 q 1168 763 1172 767 q 1068 630 1128 707 q 940 472 1008 553 q 804 317 872 390 q 1001 282 928 304 q 1010 311 1006 297 q 1019 339 1014 325 q 1078 485 1046 413 q 1141 622 1110 558 q 1197 731 1172 686 q 1232 792 1221 776 q 1253 806 1239 801 q 1279 811 1268 811 q 1294 800 1301 811 q 1244 719 1276 775 q 1173 587 1211 663 q 1100 428 1135 511 q 1044 265 1065 344 q 1065 249 1061 257 q 1067 243 1067 247 q 1061 233 1067 238 q 1053 235 1056 229 q 1048 240 1051 238 q 1040 244 1044 242 q 1028 184 1033 214 q 1024 126 1024 154 q 1045 33 1024 71 q 1117 -17 1067 -6 q 1130 -19 1124 -18 q 1143 -19 1136 -19 q 1186 -10 1164 -19 q 1228 21 1208 -1 q 1236 24 1231 24 q 1247 19 1243 24 q 1247 11 1251 15 q 1199 -25 1225 -14 q 1144 -36 1172 -36 q 1111 -32 1128 -36 q 1011 35 1040 -17 q 982 154 982 86 q 986 206 982 179 q 996 261 990 233 q 905 281 960 272 q 785 296 850 290 l 757 267 q 633 146 704 211 q 479 22 561 81 q 310 -74 397 -36 q 139 -111 224 -111 m 171 -75 q 326 -39 247 -75 q 480 53 404 -3 q 624 175 556 110 q 750 299 693 240 q 638 303 694 303 q 520 297 578 303 q 406 279 463 292 q 259 226 322 260 q 154 151 196 192 q 95 76 119 118 q 71 -3 71 33 q 94 -54 71 -33 q 171 -75 117 -75 m 1118 881 q 1118 883 1118 881 q 1126 892 1119 886 q 1139 901 1133 899 q 1199 935 1163 915 q 1260 969 1236 954 q 1279 980 1268 975 q 1297 985 1290 985 q 1309 981 1304 985 q 1319 971 1314 976 q 1355 935 1335 956 q 1383 900 1375 914 q 1389 892 1386 899 q 1390 883 1392 886 q 1385 881 1390 881 q 1358 894 1381 881 q 1314 925 1336 908 q 1283 949 1292 942 q 1247 932 1272 943 q 1194 909 1222 921 q 1144 889 1165 897 q 1118 881 1122 881 m 1389 993 q 1358 1008 1383 993 q 1306 1040 1333 1022 q 1263 1067 1278 1058 q 1235 1084 1253 1074 q 1218 1103 1218 1094 l 1218 1104 q 1225 1117 1218 1113 q 1242 1121 1232 1121 q 1254 1117 1249 1121 q 1265 1107 1260 1113 q 1301 1078 1278 1097 q 1346 1041 1324 1060 q 1378 1013 1368 1022 q 1386 1004 1381 1010 q 1392 996 1392 999 q 1389 993 1392 993 z "},"Ẩ":{"ha":1240,"x_min":3,"x_max":1501,"o":"m 139 -111 q 92 -107 115 -111 q 8 -50 25 -96 q 3 -15 3 -35 q 47 99 3 38 q 174 215 90 161 q 376 294 258 268 q 516 317 444 310 q 657 324 588 324 q 769 319 715 324 q 947 511 861 413 q 1099 696 1032 610 q 1098 699 1099 697 q 1097 703 1097 701 q 1064 738 1094 726 q 994 753 1033 750 q 924 757 956 757 q 888 757 892 757 q 747 740 815 751 q 642 713 678 728 q 586 683 607 699 q 565 649 565 667 q 606 601 565 625 q 608 596 608 600 q 606 589 608 592 q 600 588 603 586 q 546 658 546 618 q 619 739 546 711 q 690 756 640 747 q 803 771 740 765 q 928 776 867 776 q 1054 766 1000 776 q 1115 728 1108 756 q 1115 718 1117 724 q 1136 745 1126 732 q 1156 772 1146 758 q 1163 775 1157 775 q 1169 771 1167 775 q 1168 763 1172 767 q 1068 630 1128 707 q 940 472 1008 553 q 804 317 872 390 q 1001 282 928 304 q 1010 311 1006 297 q 1019 339 1014 325 q 1078 485 1046 413 q 1141 622 1110 558 q 1197 731 1172 686 q 1232 792 1221 776 q 1253 806 1239 801 q 1279 811 1268 811 q 1294 800 1301 811 q 1244 719 1276 775 q 1173 587 1211 663 q 1100 428 1135 511 q 1044 265 1065 344 q 1065 249 1061 257 q 1067 243 1067 247 q 1061 233 1067 238 q 1053 235 1056 229 q 1048 240 1051 238 q 1040 244 1044 242 q 1028 184 1033 214 q 1024 126 1024 154 q 1045 33 1024 71 q 1117 -17 1067 -6 q 1130 -19 1124 -18 q 1143 -19 1136 -19 q 1186 -10 1164 -19 q 1228 21 1208 -1 q 1236 24 1231 24 q 1247 19 1243 24 q 1247 11 1251 15 q 1199 -25 1225 -14 q 1144 -36 1172 -36 q 1111 -32 1128 -36 q 1011 35 1040 -17 q 982 154 982 86 q 986 206 982 179 q 996 261 990 233 q 905 281 960 272 q 785 296 850 290 l 757 267 q 633 146 704 211 q 479 22 561 81 q 310 -74 397 -36 q 139 -111 224 -111 m 171 -75 q 326 -39 247 -75 q 480 53 404 -3 q 624 175 556 110 q 750 299 693 240 q 638 303 694 303 q 520 297 578 303 q 406 279 463 292 q 259 226 322 260 q 154 151 196 192 q 95 76 119 118 q 71 -3 71 33 q 94 -54 71 -33 q 171 -75 117 -75 m 1118 881 q 1118 883 1118 881 q 1126 892 1119 886 q 1139 901 1133 899 q 1199 935 1163 915 q 1260 969 1236 954 q 1279 980 1268 975 q 1297 985 1290 985 q 1309 981 1304 985 q 1319 971 1314 976 q 1355 935 1335 956 q 1383 900 1375 914 q 1389 892 1386 899 q 1390 883 1392 886 q 1385 881 1390 881 q 1358 894 1381 881 q 1314 925 1336 908 q 1283 949 1292 942 q 1247 932 1272 943 q 1194 909 1222 921 q 1144 889 1165 897 q 1118 881 1122 881 m 1408 957 q 1401 963 1401 957 q 1408 975 1401 965 q 1421 988 1415 982 q 1431 999 1426 993 q 1464 1050 1460 1026 q 1465 1055 1464 1053 q 1465 1058 1465 1057 q 1433 1081 1465 1081 q 1401 1071 1417 1081 q 1377 1054 1386 1061 q 1369 1056 1368 1047 q 1399 1095 1375 1079 q 1460 1111 1422 1111 q 1492 1097 1482 1111 q 1501 1068 1501 1083 q 1451 988 1501 1024 q 1435 977 1446 985 q 1415 963 1424 969 q 1408 957 1407 957 z "},"Ẫ":{"ha":1240,"x_min":3,"x_max":1458,"o":"m 139 -111 q 92 -107 115 -111 q 8 -50 25 -96 q 3 -15 3 -35 q 47 99 3 38 q 174 215 90 161 q 376 294 258 268 q 516 317 444 310 q 657 324 588 324 q 769 319 715 324 q 947 511 861 413 q 1099 696 1032 610 q 1098 699 1099 697 q 1097 703 1097 701 q 1064 738 1094 726 q 994 753 1033 750 q 924 757 956 757 q 888 757 892 757 q 747 740 815 751 q 642 713 678 728 q 586 683 607 699 q 565 649 565 667 q 606 601 565 625 q 608 596 608 600 q 606 589 608 592 q 600 588 603 586 q 546 658 546 618 q 619 739 546 711 q 690 756 640 747 q 803 771 740 765 q 928 776 867 776 q 1054 766 1000 776 q 1115 728 1108 756 q 1115 718 1117 724 q 1136 745 1126 732 q 1156 772 1146 758 q 1163 775 1157 775 q 1169 771 1167 775 q 1168 763 1172 767 q 1068 630 1128 707 q 940 472 1008 553 q 804 317 872 390 q 1001 282 928 304 q 1010 311 1006 297 q 1019 339 1014 325 q 1078 485 1046 413 q 1141 622 1110 558 q 1197 731 1172 686 q 1232 792 1221 776 q 1253 806 1239 801 q 1279 811 1268 811 q 1294 800 1301 811 q 1244 719 1276 775 q 1173 587 1211 663 q 1100 428 1135 511 q 1044 265 1065 344 q 1065 249 1061 257 q 1067 243 1067 247 q 1061 233 1067 238 q 1053 235 1056 229 q 1048 240 1051 238 q 1040 244 1044 242 q 1028 184 1033 214 q 1024 126 1024 154 q 1045 33 1024 71 q 1117 -17 1067 -6 q 1130 -19 1124 -18 q 1143 -19 1136 -19 q 1186 -10 1164 -19 q 1228 21 1208 -1 q 1236 24 1231 24 q 1247 19 1243 24 q 1247 11 1251 15 q 1199 -25 1225 -14 q 1144 -36 1172 -36 q 1111 -32 1128 -36 q 1011 35 1040 -17 q 982 154 982 86 q 986 206 982 179 q 996 261 990 233 q 905 281 960 272 q 785 296 850 290 l 757 267 q 633 146 704 211 q 479 22 561 81 q 310 -74 397 -36 q 139 -111 224 -111 m 171 -75 q 326 -39 247 -75 q 480 53 404 -3 q 624 175 556 110 q 750 299 693 240 q 638 303 694 303 q 520 297 578 303 q 406 279 463 292 q 259 226 322 260 q 154 151 196 192 q 95 76 119 118 q 71 -3 71 33 q 94 -54 71 -33 q 171 -75 117 -75 m 1118 881 q 1118 883 1118 881 q 1126 892 1119 886 q 1139 901 1133 899 q 1199 935 1163 915 q 1260 969 1236 954 q 1279 980 1268 975 q 1297 985 1290 985 q 1309 981 1304 985 q 1319 971 1314 976 q 1355 935 1335 956 q 1383 900 1375 914 q 1389 892 1386 899 q 1390 883 1392 886 q 1385 881 1390 881 q 1358 894 1381 881 q 1314 925 1336 908 q 1283 949 1292 942 q 1247 932 1272 943 q 1194 909 1222 921 q 1144 889 1165 897 q 1118 881 1122 881 m 1190 1015 q 1188 1025 1183 1015 q 1201 1047 1192 1032 q 1223 1074 1210 1061 q 1251 1086 1236 1086 q 1297 1078 1271 1086 q 1351 1060 1322 1069 q 1406 1051 1379 1051 q 1435 1067 1424 1051 q 1450 1083 1446 1082 q 1451 1068 1458 1083 q 1428 1033 1443 1049 q 1397 1017 1413 1017 q 1349 1026 1376 1017 q 1294 1044 1321 1035 q 1247 1053 1267 1053 q 1222 1044 1233 1053 q 1202 1025 1210 1035 q 1190 1015 1194 1015 z "},"Ȁ":{"ha":1240,"x_min":3,"x_max":1301,"o":"m 1271 888 q 1247 900 1265 888 q 1209 928 1229 913 q 1175 954 1189 944 q 1150 975 1165 963 q 1136 996 1135 988 l 1136 997 q 1144 1009 1138 1006 q 1161 1011 1151 1013 q 1173 1005 1168 1010 q 1183 994 1178 1000 q 1224 951 1199 978 q 1263 908 1250 924 q 1270 899 1265 904 q 1275 890 1275 893 q 1271 888 1274 888 m 1208 886 q 1183 896 1203 886 q 1142 919 1164 906 q 1104 940 1119 932 q 1077 958 1094 947 q 1060 976 1060 968 l 1060 978 q 1067 990 1060 986 q 1083 994 1074 994 q 1096 990 1090 994 q 1107 981 1101 986 q 1154 943 1125 967 q 1197 906 1183 919 q 1206 897 1200 903 q 1211 889 1211 892 q 1208 886 1211 886 m 139 -111 q 92 -107 115 -111 q 8 -50 25 -96 q 3 -15 3 -35 q 47 99 3 38 q 174 215 90 161 q 376 294 258 268 q 516 317 444 310 q 657 324 588 324 q 769 319 715 324 q 947 511 861 413 q 1099 696 1032 610 q 1098 699 1099 697 q 1097 703 1097 701 q 1064 738 1094 726 q 994 753 1033 750 q 924 757 956 757 q 888 757 892 757 q 747 740 815 751 q 642 713 678 728 q 586 683 607 699 q 565 649 565 667 q 606 601 565 625 q 608 596 608 600 q 606 589 608 592 q 600 588 603 586 q 546 658 546 618 q 619 739 546 711 q 690 756 640 747 q 803 771 740 765 q 928 776 867 776 q 1054 766 1000 776 q 1115 728 1108 756 q 1115 718 1117 724 q 1136 745 1126 732 q 1156 772 1146 758 q 1163 775 1157 775 q 1169 771 1167 775 q 1168 763 1172 767 q 1068 630 1128 707 q 940 472 1008 553 q 804 317 872 390 q 1001 282 928 304 q 1010 311 1006 297 q 1019 339 1014 325 q 1078 485 1046 413 q 1141 622 1110 558 q 1197 731 1172 686 q 1232 792 1221 776 q 1253 806 1239 801 q 1279 811 1268 811 q 1294 800 1301 811 q 1244 719 1276 775 q 1173 587 1211 663 q 1100 428 1135 511 q 1044 265 1065 344 q 1065 249 1061 257 q 1067 243 1067 247 q 1061 233 1067 238 q 1053 235 1056 229 q 1048 240 1051 238 q 1040 244 1044 242 q 1028 184 1033 214 q 1024 126 1024 154 q 1045 33 1024 71 q 1117 -17 1067 -6 q 1130 -19 1124 -18 q 1143 -19 1136 -19 q 1186 -10 1164 -19 q 1228 21 1208 -1 q 1236 24 1231 24 q 1247 19 1243 24 q 1247 11 1251 15 q 1199 -25 1225 -14 q 1144 -36 1172 -36 q 1111 -32 1128 -36 q 1011 35 1040 -17 q 982 154 982 86 q 986 206 982 179 q 996 261 990 233 q 905 281 960 272 q 785 296 850 290 l 757 267 q 633 146 704 211 q 479 22 561 81 q 310 -74 397 -36 q 139 -111 224 -111 m 171 -75 q 326 -39 247 -75 q 480 53 404 -3 q 624 175 556 110 q 750 299 693 240 q 638 303 694 303 q 520 297 578 303 q 406 279 463 292 q 259 226 322 260 q 154 151 196 192 q 95 76 119 118 q 71 -3 71 33 q 94 -54 71 -33 q 171 -75 117 -75 z "},"Ä":{"ha":1240,"x_min":3,"x_max":1365,"o":"m 139 -111 q 92 -107 115 -111 q 8 -50 25 -96 q 3 -15 3 -35 q 47 99 3 38 q 174 215 90 161 q 376 294 258 268 q 516 317 444 310 q 657 324 588 324 q 769 319 715 324 q 947 511 861 413 q 1099 696 1032 610 q 1098 699 1099 697 q 1097 703 1097 701 q 1064 738 1094 726 q 994 753 1033 750 q 924 757 956 757 q 888 757 892 757 q 747 740 815 751 q 642 713 678 728 q 586 683 607 699 q 565 649 565 667 q 606 601 565 625 q 608 596 608 600 q 606 589 608 592 q 600 588 603 586 q 546 658 546 618 q 619 739 546 711 q 690 756 640 747 q 803 771 740 765 q 928 776 867 776 q 1054 766 1000 776 q 1115 728 1108 756 q 1115 718 1117 724 q 1136 745 1126 732 q 1156 772 1146 758 q 1163 775 1157 775 q 1169 771 1167 775 q 1168 763 1172 767 q 1068 630 1128 707 q 940 472 1008 553 q 804 317 872 390 q 1001 282 928 304 q 1010 311 1006 297 q 1019 339 1014 325 q 1078 485 1046 413 q 1141 622 1110 558 q 1197 731 1172 686 q 1232 792 1221 776 q 1253 806 1239 801 q 1279 811 1268 811 q 1294 800 1301 811 q 1244 719 1276 775 q 1173 587 1211 663 q 1100 428 1135 511 q 1044 265 1065 344 q 1065 249 1061 257 q 1067 243 1067 247 q 1061 233 1067 238 q 1053 235 1056 229 q 1048 240 1051 238 q 1040 244 1044 242 q 1028 184 1033 214 q 1024 126 1024 154 q 1045 33 1024 71 q 1117 -17 1067 -6 q 1130 -19 1124 -18 q 1143 -19 1136 -19 q 1186 -10 1164 -19 q 1228 21 1208 -1 q 1236 24 1231 24 q 1247 19 1243 24 q 1247 11 1251 15 q 1199 -25 1225 -14 q 1144 -36 1172 -36 q 1111 -32 1128 -36 q 1011 35 1040 -17 q 982 154 982 86 q 986 206 982 179 q 996 261 990 233 q 905 281 960 272 q 785 296 850 290 l 757 267 q 633 146 704 211 q 479 22 561 81 q 310 -74 397 -36 q 139 -111 224 -111 m 171 -75 q 326 -39 247 -75 q 480 53 404 -3 q 624 175 556 110 q 750 299 693 240 q 638 303 694 303 q 520 297 578 303 q 406 279 463 292 q 259 226 322 260 q 154 151 196 192 q 95 76 119 118 q 71 -3 71 33 q 94 -54 71 -33 q 171 -75 117 -75 m 1315 886 q 1302 897 1306 886 q 1299 915 1299 907 q 1322 946 1299 931 q 1358 961 1344 961 q 1365 956 1365 961 q 1360 940 1365 950 q 1350 922 1356 931 q 1341 899 1344 913 q 1315 886 1338 886 m 1190 886 q 1177 897 1181 886 q 1174 915 1174 907 q 1197 946 1174 931 q 1233 961 1219 961 q 1240 956 1240 961 q 1235 940 1240 950 q 1225 922 1231 931 q 1216 899 1219 913 q 1190 886 1213 886 z "},"Ạ":{"ha":1240,"x_min":3,"x_max":1301,"o":"m 139 -111 q 92 -107 115 -111 q 8 -50 25 -96 q 3 -15 3 -35 q 47 99 3 38 q 174 215 90 161 q 376 294 258 268 q 516 317 444 310 q 657 324 588 324 q 769 319 715 324 q 947 511 861 413 q 1099 696 1032 610 q 1098 699 1099 697 q 1097 703 1097 701 q 1064 738 1094 726 q 994 753 1033 750 q 924 757 956 757 q 888 757 892 757 q 747 740 815 751 q 642 713 678 728 q 586 683 607 699 q 565 649 565 667 q 606 601 565 625 q 608 596 608 600 q 606 589 608 592 q 600 588 603 586 q 546 658 546 618 q 619 739 546 711 q 690 756 640 747 q 803 771 740 765 q 928 776 867 776 q 1054 766 1000 776 q 1115 728 1108 756 q 1115 718 1117 724 q 1136 745 1126 732 q 1156 772 1146 758 q 1163 775 1157 775 q 1169 771 1167 775 q 1168 763 1172 767 q 1068 630 1128 707 q 940 472 1008 553 q 804 317 872 390 q 1001 282 928 304 q 1010 311 1006 297 q 1019 339 1014 325 q 1078 485 1046 413 q 1141 622 1110 558 q 1197 731 1172 686 q 1232 792 1221 776 q 1253 806 1239 801 q 1279 811 1268 811 q 1294 800 1301 811 q 1244 719 1276 775 q 1173 587 1211 663 q 1100 428 1135 511 q 1044 265 1065 344 q 1065 249 1061 257 q 1067 243 1067 247 q 1061 233 1067 238 q 1053 235 1056 229 q 1048 240 1051 238 q 1040 244 1044 242 q 1028 184 1033 214 q 1024 126 1024 154 q 1045 33 1024 71 q 1117 -17 1067 -6 q 1130 -19 1124 -18 q 1143 -19 1136 -19 q 1186 -10 1164 -19 q 1228 21 1208 -1 q 1236 24 1231 24 q 1247 19 1243 24 q 1247 11 1251 15 q 1199 -25 1225 -14 q 1144 -36 1172 -36 q 1111 -32 1128 -36 q 1011 35 1040 -17 q 982 154 982 86 q 986 206 982 179 q 996 261 990 233 q 905 281 960 272 q 785 296 850 290 l 757 267 q 633 146 704 211 q 479 22 561 81 q 310 -74 397 -36 q 139 -111 224 -111 m 171 -75 q 326 -39 247 -75 q 480 53 404 -3 q 624 175 556 110 q 750 299 693 240 q 638 303 694 303 q 520 297 578 303 q 406 279 463 292 q 259 226 322 260 q 154 151 196 192 q 95 76 119 118 q 71 -3 71 33 q 94 -54 71 -33 q 171 -75 117 -75 m 688 -165 q 672 -153 678 -165 q 665 -133 665 -142 q 678 -111 665 -122 q 708 -92 692 -100 q 733 -85 724 -85 q 740 -90 740 -85 q 738 -104 740 -96 q 726 -124 735 -112 q 715 -149 719 -133 q 688 -165 710 -165 z "},"À":{"ha":1240,"x_min":3,"x_max":1301,"o":"m 139 -111 q 92 -107 115 -111 q 8 -50 25 -96 q 3 -15 3 -35 q 47 99 3 38 q 174 215 90 161 q 376 294 258 268 q 516 317 444 310 q 657 324 588 324 q 769 319 715 324 q 947 511 861 413 q 1099 696 1032 610 q 1098 699 1099 697 q 1097 703 1097 701 q 1064 738 1094 726 q 994 753 1033 750 q 924 757 956 757 q 888 757 892 757 q 747 740 815 751 q 642 713 678 728 q 586 683 607 699 q 565 649 565 667 q 606 601 565 625 q 608 596 608 600 q 606 589 608 592 q 600 588 603 586 q 546 658 546 618 q 619 739 546 711 q 690 756 640 747 q 803 771 740 765 q 928 776 867 776 q 1054 766 1000 776 q 1115 728 1108 756 q 1115 718 1117 724 q 1136 745 1126 732 q 1156 772 1146 758 q 1163 775 1157 775 q 1169 771 1167 775 q 1168 763 1172 767 q 1068 630 1128 707 q 940 472 1008 553 q 804 317 872 390 q 1001 282 928 304 q 1010 311 1006 297 q 1019 339 1014 325 q 1078 485 1046 413 q 1141 622 1110 558 q 1197 731 1172 686 q 1232 792 1221 776 q 1253 806 1239 801 q 1279 811 1268 811 q 1294 800 1301 811 q 1244 719 1276 775 q 1173 587 1211 663 q 1100 428 1135 511 q 1044 265 1065 344 q 1065 249 1061 257 q 1067 243 1067 247 q 1061 233 1067 238 q 1053 235 1056 229 q 1048 240 1051 238 q 1040 244 1044 242 q 1028 184 1033 214 q 1024 126 1024 154 q 1045 33 1024 71 q 1117 -17 1067 -6 q 1130 -19 1124 -18 q 1143 -19 1136 -19 q 1186 -10 1164 -19 q 1228 21 1208 -1 q 1236 24 1231 24 q 1247 19 1243 24 q 1247 11 1251 15 q 1199 -25 1225 -14 q 1144 -36 1172 -36 q 1111 -32 1128 -36 q 1011 35 1040 -17 q 982 154 982 86 q 986 206 982 179 q 996 261 990 233 q 905 281 960 272 q 785 296 850 290 l 757 267 q 633 146 704 211 q 479 22 561 81 q 310 -74 397 -36 q 139 -111 224 -111 m 171 -75 q 326 -39 247 -75 q 480 53 404 -3 q 624 175 556 110 q 750 299 693 240 q 638 303 694 303 q 520 297 578 303 q 406 279 463 292 q 259 226 322 260 q 154 151 196 192 q 95 76 119 118 q 71 -3 71 33 q 94 -54 71 -33 q 171 -75 117 -75 m 1272 886 q 1242 901 1267 886 q 1189 933 1217 915 q 1146 960 1161 951 q 1119 977 1136 967 q 1101 996 1101 988 l 1101 997 q 1108 1010 1101 1006 q 1125 1014 1115 1014 q 1138 1010 1132 1014 q 1149 1000 1143 1006 q 1184 972 1161 990 q 1229 934 1207 953 q 1261 906 1251 915 q 1269 897 1264 903 q 1275 889 1275 892 q 1272 886 1275 886 z "},"Ả":{"ha":1240,"x_min":3,"x_max":1344,"o":"m 139 -111 q 92 -107 115 -111 q 8 -50 25 -96 q 3 -15 3 -35 q 47 99 3 38 q 174 215 90 161 q 376 294 258 268 q 516 317 444 310 q 657 324 588 324 q 769 319 715 324 q 947 511 861 413 q 1099 696 1032 610 q 1098 699 1099 697 q 1097 703 1097 701 q 1064 738 1094 726 q 994 753 1033 750 q 924 757 956 757 q 888 757 892 757 q 747 740 815 751 q 642 713 678 728 q 586 683 607 699 q 565 649 565 667 q 606 601 565 625 q 608 596 608 600 q 606 589 608 592 q 600 588 603 586 q 546 658 546 618 q 619 739 546 711 q 690 756 640 747 q 803 771 740 765 q 928 776 867 776 q 1054 766 1000 776 q 1115 728 1108 756 q 1115 718 1117 724 q 1136 745 1126 732 q 1156 772 1146 758 q 1163 775 1157 775 q 1169 771 1167 775 q 1168 763 1172 767 q 1068 630 1128 707 q 940 472 1008 553 q 804 317 872 390 q 1001 282 928 304 q 1010 311 1006 297 q 1019 339 1014 325 q 1078 485 1046 413 q 1141 622 1110 558 q 1197 731 1172 686 q 1232 792 1221 776 q 1253 806 1239 801 q 1279 811 1268 811 q 1294 800 1301 811 q 1244 719 1276 775 q 1173 587 1211 663 q 1100 428 1135 511 q 1044 265 1065 344 q 1065 249 1061 257 q 1067 243 1067 247 q 1061 233 1067 238 q 1053 235 1056 229 q 1048 240 1051 238 q 1040 244 1044 242 q 1028 184 1033 214 q 1024 126 1024 154 q 1045 33 1024 71 q 1117 -17 1067 -6 q 1130 -19 1124 -18 q 1143 -19 1136 -19 q 1186 -10 1164 -19 q 1228 21 1208 -1 q 1236 24 1231 24 q 1247 19 1243 24 q 1247 11 1251 15 q 1199 -25 1225 -14 q 1144 -36 1172 -36 q 1111 -32 1128 -36 q 1011 35 1040 -17 q 982 154 982 86 q 986 206 982 179 q 996 261 990 233 q 905 281 960 272 q 785 296 850 290 l 757 267 q 633 146 704 211 q 479 22 561 81 q 310 -74 397 -36 q 139 -111 224 -111 m 171 -75 q 326 -39 247 -75 q 480 53 404 -3 q 624 175 556 110 q 750 299 693 240 q 638 303 694 303 q 520 297 578 303 q 406 279 463 292 q 259 226 322 260 q 154 151 196 192 q 95 76 119 118 q 71 -3 71 33 q 94 -54 71 -33 q 171 -75 117 -75 m 1251 872 q 1244 878 1244 872 q 1251 890 1244 881 q 1264 903 1258 897 q 1274 914 1269 908 q 1307 965 1303 942 q 1308 970 1307 968 q 1308 974 1308 972 q 1276 996 1308 996 q 1244 986 1260 996 q 1220 969 1229 976 q 1213 971 1211 963 q 1242 1010 1218 994 q 1303 1026 1265 1026 q 1335 1013 1325 1026 q 1344 983 1344 999 q 1294 903 1344 939 q 1278 892 1289 900 q 1258 878 1267 885 q 1251 872 1250 872 z "},"Ȃ":{"ha":1240,"x_min":3,"x_max":1378,"o":"m 1285 975 q 1378 908 1378 975 q 1377 898 1378 903 q 1376 890 1376 893 q 1369 872 1374 876 q 1360 867 1364 867 q 1346 892 1349 867 q 1330 930 1343 917 q 1268 943 1317 943 q 1189 928 1221 943 q 1138 893 1157 913 q 1125 878 1129 885 q 1117 872 1121 872 q 1114 882 1110 872 q 1143 920 1119 899 q 1203 958 1167 942 q 1285 975 1240 975 m 139 -111 q 92 -107 115 -111 q 8 -50 25 -96 q 3 -15 3 -35 q 47 99 3 38 q 174 215 90 161 q 376 294 258 268 q 516 317 444 310 q 657 324 588 324 q 769 319 715 324 q 947 511 861 413 q 1099 696 1032 610 q 1098 699 1099 697 q 1097 703 1097 701 q 1064 738 1094 726 q 994 753 1033 750 q 924 757 956 757 q 888 757 892 757 q 747 740 815 751 q 642 713 678 728 q 586 683 607 699 q 565 649 565 667 q 606 601 565 625 q 608 596 608 600 q 606 589 608 592 q 600 588 603 586 q 546 658 546 618 q 619 739 546 711 q 690 756 640 747 q 803 771 740 765 q 928 776 867 776 q 1054 766 1000 776 q 1115 728 1108 756 q 1115 718 1117 724 q 1136 745 1126 732 q 1156 772 1146 758 q 1163 775 1157 775 q 1169 771 1167 775 q 1168 763 1172 767 q 1068 630 1128 707 q 940 472 1008 553 q 804 317 872 390 q 1001 282 928 304 q 1010 311 1006 297 q 1019 339 1014 325 q 1078 485 1046 413 q 1141 622 1110 558 q 1197 731 1172 686 q 1232 792 1221 776 q 1253 806 1239 801 q 1279 811 1268 811 q 1294 800 1301 811 q 1244 719 1276 775 q 1173 587 1211 663 q 1100 428 1135 511 q 1044 265 1065 344 q 1065 249 1061 257 q 1067 243 1067 247 q 1061 233 1067 238 q 1053 235 1056 229 q 1048 240 1051 238 q 1040 244 1044 242 q 1028 184 1033 214 q 1024 126 1024 154 q 1045 33 1024 71 q 1117 -17 1067 -6 q 1130 -19 1124 -18 q 1143 -19 1136 -19 q 1186 -10 1164 -19 q 1228 21 1208 -1 q 1236 24 1231 24 q 1247 19 1243 24 q 1247 11 1251 15 q 1199 -25 1225 -14 q 1144 -36 1172 -36 q 1111 -32 1128 -36 q 1011 35 1040 -17 q 982 154 982 86 q 986 206 982 179 q 996 261 990 233 q 905 281 960 272 q 785 296 850 290 l 757 267 q 633 146 704 211 q 479 22 561 81 q 310 -74 397 -36 q 139 -111 224 -111 m 171 -75 q 326 -39 247 -75 q 480 53 404 -3 q 624 175 556 110 q 750 299 693 240 q 638 303 694 303 q 520 297 578 303 q 406 279 463 292 q 259 226 322 260 q 154 151 196 192 q 95 76 119 118 q 71 -3 71 33 q 94 -54 71 -33 q 171 -75 117 -75 z "},"Ā":{"ha":1240,"x_min":3,"x_max":1385,"o":"m 139 -111 q 92 -107 115 -111 q 8 -50 25 -96 q 3 -15 3 -35 q 47 99 3 38 q 174 215 90 161 q 376 294 258 268 q 516 317 444 310 q 657 324 588 324 q 769 319 715 324 q 947 511 861 413 q 1099 696 1032 610 q 1098 699 1099 697 q 1097 703 1097 701 q 1064 738 1094 726 q 994 753 1033 750 q 924 757 956 757 q 888 757 892 757 q 747 740 815 751 q 642 713 678 728 q 586 683 607 699 q 565 649 565 667 q 606 601 565 625 q 608 596 608 600 q 606 589 608 592 q 600 588 603 586 q 546 658 546 618 q 619 739 546 711 q 690 756 640 747 q 803 771 740 765 q 928 776 867 776 q 1054 766 1000 776 q 1115 728 1108 756 q 1115 718 1117 724 q 1136 745 1126 732 q 1156 772 1146 758 q 1163 775 1157 775 q 1169 771 1167 775 q 1168 763 1172 767 q 1068 630 1128 707 q 940 472 1008 553 q 804 317 872 390 q 1001 282 928 304 q 1010 311 1006 297 q 1019 339 1014 325 q 1078 485 1046 413 q 1141 622 1110 558 q 1197 731 1172 686 q 1232 792 1221 776 q 1253 806 1239 801 q 1279 811 1268 811 q 1294 800 1301 811 q 1244 719 1276 775 q 1173 587 1211 663 q 1100 428 1135 511 q 1044 265 1065 344 q 1065 249 1061 257 q 1067 243 1067 247 q 1061 233 1067 238 q 1053 235 1056 229 q 1048 240 1051 238 q 1040 244 1044 242 q 1028 184 1033 214 q 1024 126 1024 154 q 1045 33 1024 71 q 1117 -17 1067 -6 q 1130 -19 1124 -18 q 1143 -19 1136 -19 q 1186 -10 1164 -19 q 1228 21 1208 -1 q 1236 24 1231 24 q 1247 19 1243 24 q 1247 11 1251 15 q 1199 -25 1225 -14 q 1144 -36 1172 -36 q 1111 -32 1128 -36 q 1011 35 1040 -17 q 982 154 982 86 q 986 206 982 179 q 996 261 990 233 q 905 281 960 272 q 785 296 850 290 l 757 267 q 633 146 704 211 q 479 22 561 81 q 310 -74 397 -36 q 139 -111 224 -111 m 171 -75 q 326 -39 247 -75 q 480 53 404 -3 q 624 175 556 110 q 750 299 693 240 q 638 303 694 303 q 520 297 578 303 q 406 279 463 292 q 259 226 322 260 q 154 151 196 192 q 95 76 119 118 q 71 -3 71 33 q 94 -54 71 -33 q 171 -75 117 -75 m 1132 894 q 1122 902 1126 894 q 1117 915 1117 910 l 1118 917 q 1156 922 1131 921 q 1208 924 1182 924 q 1246 925 1233 925 q 1284 924 1260 925 q 1333 921 1308 922 q 1372 917 1358 919 q 1385 910 1385 915 q 1365 903 1385 904 q 1315 899 1347 901 q 1247 897 1283 897 q 1180 895 1211 896 q 1132 894 1149 894 z "},"Ą":{"ha":1240,"x_min":3,"x_max":1301,"o":"m 139 -111 q 92 -107 115 -111 q 8 -50 25 -96 q 3 -15 3 -35 q 47 99 3 38 q 174 215 90 161 q 376 294 258 268 q 516 317 444 310 q 657 324 588 324 q 769 319 715 324 q 947 511 861 413 q 1099 696 1032 610 q 1098 699 1099 697 q 1097 703 1097 701 q 1064 738 1094 726 q 994 753 1033 750 q 924 757 956 757 q 888 757 892 757 q 747 740 815 751 q 642 713 678 728 q 586 683 607 699 q 565 649 565 667 q 606 601 565 625 q 608 596 608 600 q 606 589 608 592 q 600 588 603 586 q 546 658 546 618 q 619 739 546 711 q 690 756 640 747 q 803 771 740 765 q 928 776 867 776 q 1054 766 1000 776 q 1115 728 1108 756 q 1115 718 1117 724 q 1136 745 1126 732 q 1156 772 1146 758 q 1163 775 1157 775 q 1169 771 1167 775 q 1168 763 1172 767 q 1068 630 1128 707 q 940 472 1008 553 q 804 317 872 390 q 1001 282 928 304 q 1010 311 1006 297 q 1019 339 1014 325 q 1078 485 1046 413 q 1141 622 1110 558 q 1197 731 1172 686 q 1232 792 1221 776 q 1253 806 1239 801 q 1279 811 1268 811 q 1294 800 1301 811 q 1244 719 1276 775 q 1173 587 1211 663 q 1100 428 1135 511 q 1044 265 1065 344 q 1065 249 1061 257 q 1067 243 1067 247 q 1061 233 1067 238 q 1053 235 1056 229 q 1048 240 1051 238 q 1040 244 1044 242 q 1028 184 1033 214 q 1024 126 1024 154 q 1045 33 1024 71 q 1117 -17 1067 -6 q 1130 -19 1124 -18 q 1143 -19 1136 -19 q 1186 -10 1164 -19 q 1228 21 1208 -1 q 1236 24 1231 24 q 1247 19 1243 24 q 1247 11 1251 15 q 1199 -25 1225 -14 q 1144 -36 1172 -36 q 1111 -32 1128 -36 q 1011 35 1040 -17 q 982 154 982 86 q 986 206 982 179 q 996 261 990 233 q 905 281 960 272 q 785 296 850 290 l 757 267 q 633 146 704 211 q 479 22 561 81 q 310 -74 397 -36 q 139 -111 224 -111 m 171 -75 q 326 -39 247 -75 q 480 53 404 -3 q 624 175 556 110 q 750 299 693 240 q 638 303 694 303 q 520 297 578 303 q 406 279 463 292 q 259 226 322 260 q 154 151 196 192 q 95 76 119 118 q 71 -3 71 33 q 94 -54 71 -33 q 171 -75 117 -75 m 1051 -199 q 1012 -187 1032 -199 q 997 -135 992 -175 q 1016 -85 1001 -111 q 1049 -40 1031 -60 q 1085 -21 1068 -21 l 1090 -24 q 1052 -68 1072 -40 q 1032 -132 1032 -96 q 1042 -158 1032 -150 q 1068 -167 1053 -167 q 1156 -146 1111 -167 q 1161 -153 1161 -143 q 1140 -174 1160 -162 q 1097 -192 1121 -185 q 1051 -199 1072 -199 z "},"Å":{"ha":1240,"x_min":3,"x_max":1358,"o":"m 139 -111 q 92 -107 115 -111 q 8 -50 25 -96 q 3 -15 3 -35 q 47 99 3 38 q 174 215 90 161 q 376 294 258 268 q 516 317 444 310 q 657 324 588 324 q 769 319 715 324 q 947 511 861 413 q 1099 696 1032 610 q 1098 699 1099 697 q 1097 703 1097 701 q 1064 738 1094 726 q 994 753 1033 750 q 924 757 956 757 q 888 757 892 757 q 747 740 815 751 q 642 713 678 728 q 586 683 607 699 q 565 649 565 667 q 606 601 565 625 q 608 596 608 600 q 606 589 608 592 q 600 588 603 586 q 546 658 546 618 q 619 739 546 711 q 690 756 640 747 q 803 771 740 765 q 928 776 867 776 q 1054 766 1000 776 q 1115 728 1108 756 q 1115 718 1117 724 q 1136 745 1126 732 q 1156 772 1146 758 q 1163 775 1157 775 q 1169 771 1167 775 q 1168 763 1172 767 q 1068 630 1128 707 q 940 472 1008 553 q 804 317 872 390 q 1001 282 928 304 q 1010 311 1006 297 q 1019 339 1014 325 q 1078 485 1046 413 q 1141 622 1110 558 q 1197 731 1172 686 q 1232 792 1221 776 q 1253 806 1239 801 q 1279 811 1268 811 q 1294 800 1301 811 q 1244 719 1276 775 q 1173 587 1211 663 q 1100 428 1135 511 q 1044 265 1065 344 q 1065 249 1061 257 q 1067 243 1067 247 q 1061 233 1067 238 q 1053 235 1056 229 q 1048 240 1051 238 q 1040 244 1044 242 q 1028 184 1033 214 q 1024 126 1024 154 q 1045 33 1024 71 q 1117 -17 1067 -6 q 1130 -19 1124 -18 q 1143 -19 1136 -19 q 1186 -10 1164 -19 q 1228 21 1208 -1 q 1236 24 1231 24 q 1247 19 1243 24 q 1247 11 1251 15 q 1199 -25 1225 -14 q 1144 -36 1172 -36 q 1111 -32 1128 -36 q 1011 35 1040 -17 q 982 154 982 86 q 986 206 982 179 q 996 261 990 233 q 905 281 960 272 q 785 296 850 290 l 757 267 q 633 146 704 211 q 479 22 561 81 q 310 -74 397 -36 q 139 -111 224 -111 m 171 -75 q 326 -39 247 -75 q 480 53 404 -3 q 624 175 556 110 q 750 299 693 240 q 638 303 694 303 q 520 297 578 303 q 406 279 463 292 q 259 226 322 260 q 154 151 196 192 q 95 76 119 118 q 71 -3 71 33 q 94 -54 71 -33 q 171 -75 117 -75 m 1263 882 q 1213 900 1232 882 q 1193 946 1193 918 q 1223 1009 1193 982 q 1290 1036 1253 1036 q 1339 1018 1319 1036 q 1358 972 1358 1000 q 1330 909 1358 936 q 1263 882 1301 882 m 1265 900 q 1306 923 1289 900 q 1322 969 1322 946 q 1315 1003 1322 988 q 1285 1018 1308 1018 q 1250 999 1264 1018 q 1231 958 1236 981 q 1236 918 1228 936 q 1265 900 1244 900 z "},"Ǻ":{"ha":1240,"x_min":3,"x_max":1414,"o":"m 139 -111 q 92 -107 115 -111 q 8 -50 25 -96 q 3 -15 3 -35 q 47 99 3 38 q 174 215 90 161 q 376 294 258 268 q 516 317 444 310 q 657 324 588 324 q 769 319 715 324 q 947 511 861 413 q 1099 696 1032 610 q 1098 699 1099 697 q 1097 703 1097 701 q 1064 738 1094 726 q 994 753 1033 750 q 924 757 956 757 q 888 757 892 757 q 747 740 815 751 q 642 713 678 728 q 586 683 607 699 q 565 649 565 667 q 606 601 565 625 q 608 596 608 600 q 606 589 608 592 q 600 588 603 586 q 546 658 546 618 q 619 739 546 711 q 690 756 640 747 q 803 771 740 765 q 928 776 867 776 q 1054 766 1000 776 q 1115 728 1108 756 q 1115 718 1117 724 q 1136 745 1126 732 q 1156 772 1146 758 q 1163 775 1157 775 q 1169 771 1167 775 q 1168 763 1172 767 q 1068 630 1128 707 q 940 472 1008 553 q 804 317 872 390 q 1001 282 928 304 q 1010 311 1006 297 q 1019 339 1014 325 q 1078 485 1046 413 q 1141 622 1110 558 q 1197 731 1172 686 q 1232 792 1221 776 q 1253 806 1239 801 q 1279 811 1268 811 q 1294 800 1301 811 q 1244 719 1276 775 q 1173 587 1211 663 q 1100 428 1135 511 q 1044 265 1065 344 q 1065 249 1061 257 q 1067 243 1067 247 q 1061 233 1067 238 q 1053 235 1056 229 q 1048 240 1051 238 q 1040 244 1044 242 q 1028 184 1033 214 q 1024 126 1024 154 q 1045 33 1024 71 q 1117 -17 1067 -6 q 1130 -19 1124 -18 q 1143 -19 1136 -19 q 1186 -10 1164 -19 q 1228 21 1208 -1 q 1236 24 1231 24 q 1247 19 1243 24 q 1247 11 1251 15 q 1199 -25 1225 -14 q 1144 -36 1172 -36 q 1111 -32 1128 -36 q 1011 35 1040 -17 q 982 154 982 86 q 986 206 982 179 q 996 261 990 233 q 905 281 960 272 q 785 296 850 290 l 757 267 q 633 146 704 211 q 479 22 561 81 q 310 -74 397 -36 q 139 -111 224 -111 m 171 -75 q 326 -39 247 -75 q 480 53 404 -3 q 624 175 556 110 q 750 299 693 240 q 638 303 694 303 q 520 297 578 303 q 406 279 463 292 q 259 226 322 260 q 154 151 196 192 q 95 76 119 118 q 71 -3 71 33 q 94 -54 71 -33 q 171 -75 117 -75 m 1263 882 q 1213 900 1232 882 q 1193 946 1193 918 q 1223 1009 1193 982 q 1290 1036 1253 1036 q 1339 1018 1319 1036 q 1358 972 1358 1000 q 1330 909 1358 936 q 1263 882 1301 882 m 1265 900 q 1306 923 1289 900 q 1322 969 1322 946 q 1315 1003 1322 988 q 1285 1018 1308 1018 q 1250 999 1264 1018 q 1231 958 1236 981 q 1236 918 1228 936 q 1265 900 1244 900 m 1242 1063 q 1239 1065 1239 1063 q 1244 1074 1239 1068 q 1253 1082 1250 1079 q 1285 1110 1263 1092 q 1331 1148 1307 1129 q 1365 1176 1354 1167 q 1378 1186 1372 1182 q 1389 1190 1383 1190 q 1406 1186 1399 1190 q 1413 1172 1414 1182 q 1396 1153 1413 1164 q 1368 1136 1379 1143 q 1325 1110 1353 1128 q 1273 1077 1297 1092 q 1242 1063 1249 1063 z "},"Ã":{"ha":1240,"x_min":3,"x_max":1407,"o":"m 139 -111 q 92 -107 115 -111 q 8 -50 25 -96 q 3 -15 3 -35 q 47 99 3 38 q 174 215 90 161 q 376 294 258 268 q 516 317 444 310 q 657 324 588 324 q 769 319 715 324 q 947 511 861 413 q 1099 696 1032 610 q 1098 699 1099 697 q 1097 703 1097 701 q 1064 738 1094 726 q 994 753 1033 750 q 924 757 956 757 q 888 757 892 757 q 747 740 815 751 q 642 713 678 728 q 586 683 607 699 q 565 649 565 667 q 606 601 565 625 q 608 596 608 600 q 606 589 608 592 q 600 588 603 586 q 546 658 546 618 q 619 739 546 711 q 690 756 640 747 q 803 771 740 765 q 928 776 867 776 q 1054 766 1000 776 q 1115 728 1108 756 q 1115 718 1117 724 q 1136 745 1126 732 q 1156 772 1146 758 q 1163 775 1157 775 q 1169 771 1167 775 q 1168 763 1172 767 q 1068 630 1128 707 q 940 472 1008 553 q 804 317 872 390 q 1001 282 928 304 q 1010 311 1006 297 q 1019 339 1014 325 q 1078 485 1046 413 q 1141 622 1110 558 q 1197 731 1172 686 q 1232 792 1221 776 q 1253 806 1239 801 q 1279 811 1268 811 q 1294 800 1301 811 q 1244 719 1276 775 q 1173 587 1211 663 q 1100 428 1135 511 q 1044 265 1065 344 q 1065 249 1061 257 q 1067 243 1067 247 q 1061 233 1067 238 q 1053 235 1056 229 q 1048 240 1051 238 q 1040 244 1044 242 q 1028 184 1033 214 q 1024 126 1024 154 q 1045 33 1024 71 q 1117 -17 1067 -6 q 1130 -19 1124 -18 q 1143 -19 1136 -19 q 1186 -10 1164 -19 q 1228 21 1208 -1 q 1236 24 1231 24 q 1247 19 1243 24 q 1247 11 1251 15 q 1199 -25 1225 -14 q 1144 -36 1172 -36 q 1111 -32 1128 -36 q 1011 35 1040 -17 q 982 154 982 86 q 986 206 982 179 q 996 261 990 233 q 905 281 960 272 q 785 296 850 290 l 757 267 q 633 146 704 211 q 479 22 561 81 q 310 -74 397 -36 q 139 -111 224 -111 m 171 -75 q 326 -39 247 -75 q 480 53 404 -3 q 624 175 556 110 q 750 299 693 240 q 638 303 694 303 q 520 297 578 303 q 406 279 463 292 q 259 226 322 260 q 154 151 196 192 q 95 76 119 118 q 71 -3 71 33 q 94 -54 71 -33 q 171 -75 117 -75 m 1139 889 q 1136 899 1132 889 q 1149 920 1140 906 q 1172 947 1158 935 q 1200 960 1185 960 q 1245 951 1219 960 q 1299 934 1271 943 q 1354 925 1328 925 q 1383 940 1372 925 q 1399 957 1394 956 q 1400 942 1407 957 q 1376 906 1392 922 q 1346 890 1361 890 q 1297 899 1325 890 q 1242 917 1269 908 q 1196 926 1215 926 q 1170 917 1182 926 q 1151 899 1158 908 q 1139 889 1143 889 z "},"B":{"ha":940,"x_min":13,"x_max":924,"o":"m 461 -83 q 310 -62 381 -83 q 195 6 239 -40 q 151 126 151 53 q 181 256 151 183 q 279 421 211 329 q 365 514 313 467 q 475 605 417 561 q 588 685 533 649 q 685 743 643 721 q 658 754 672 750 q 628 764 643 758 q 478 792 557 783 q 326 800 399 800 q 300 799 313 800 q 275 799 288 799 q 127 775 179 794 q 65 732 75 756 q 63 718 63 724 q 90 677 63 694 q 149 650 117 660 q 196 639 181 640 q 202 631 203 638 q 194 624 201 624 q 151 633 181 626 q 89 651 121 639 q 35 681 57 664 q 13 721 13 699 q 17 738 13 729 q 88 792 31 769 q 251 819 146 815 q 273 820 263 819 q 294 821 283 821 q 472 810 379 821 q 647 778 564 799 q 711 757 681 769 q 790 785 747 774 q 868 797 833 797 q 902 793 888 797 q 919 781 917 789 q 924 774 924 778 q 923 774 924 774 q 922 776 922 775 l 919 781 q 892 788 911 788 q 827 777 867 788 q 743 744 788 767 l 742 743 q 828 674 801 713 q 856 594 856 635 q 768 467 856 515 q 655 426 717 439 q 540 408 593 413 q 686 356 611 386 q 804 293 761 325 q 870 224 849 261 q 892 151 892 188 q 858 61 892 103 q 760 -15 824 18 q 618 -65 696 -47 q 461 -83 540 -83 m 453 -65 q 592 -49 522 -65 q 717 -1 661 -32 q 803 71 774 31 q 831 150 831 110 q 813 215 831 182 q 757 279 794 249 q 681 326 728 303 q 582 371 633 350 q 485 406 531 392 q 441 406 460 406 q 414 408 422 407 q 397 411 411 408 q 370 419 383 414 q 357 433 357 425 q 367 445 357 443 q 381 447 378 447 q 424 440 393 447 q 496 422 456 433 q 615 437 549 425 q 735 481 681 449 q 788 531 768 500 q 807 597 807 563 q 785 667 807 632 q 714 729 763 701 q 622 672 674 707 q 515 594 569 636 q 413 508 461 553 q 332 418 365 463 q 230 248 261 322 q 199 118 199 174 q 234 13 199 53 q 328 -47 269 -28 q 453 -65 386 -65 m 414 422 l 433 422 q 379 433 392 433 l 376 432 q 414 422 392 424 z "},"C":{"ha":908,"x_min":33,"x_max":978,"o":"m 338 -57 q 167 -24 243 -57 q 56 83 90 8 q 40 134 46 107 q 33 190 33 161 q 67 344 33 263 q 165 506 100 426 q 328 653 231 586 q 556 761 426 719 q 642 781 585 772 q 760 790 699 790 q 838 785 800 790 q 907 764 876 779 q 961 721 944 746 q 978 665 978 696 q 961 599 978 635 q 937 567 953 582 q 910 546 921 553 q 882 535 893 535 q 876 539 876 535 q 894 561 876 549 q 926 597 915 575 q 936 644 936 619 q 923 698 936 672 q 882 738 910 724 q 818 757 854 751 q 743 763 782 763 q 639 754 689 763 q 564 738 589 746 q 358 637 446 699 q 213 502 271 575 q 127 353 156 429 q 99 211 99 278 q 106 147 99 178 q 126 92 113 117 q 226 8 158 35 q 379 -19 294 -19 q 557 6 465 -19 q 728 74 649 31 q 777 106 749 85 q 833 150 806 126 q 875 192 860 174 q 893 201 885 201 q 899 196 899 201 q 885 172 899 190 q 822 110 861 144 q 739 51 782 75 q 543 -26 650 4 q 338 -57 436 -57 z "},"Ć":{"ha":908,"x_min":33,"x_max":978,"o":"m 338 -57 q 167 -24 243 -57 q 56 83 90 8 q 40 134 46 107 q 33 190 33 161 q 67 344 33 263 q 165 506 100 426 q 328 653 231 586 q 556 761 426 719 q 642 781 585 772 q 760 790 699 790 q 838 785 800 790 q 907 764 876 779 q 961 721 944 746 q 978 665 978 696 q 961 599 978 635 q 937 567 953 582 q 910 546 921 553 q 882 535 893 535 q 876 539 876 535 q 894 561 876 549 q 926 597 915 575 q 936 644 936 619 q 923 698 936 672 q 882 738 910 724 q 818 757 854 751 q 743 763 782 763 q 639 754 689 763 q 564 738 589 746 q 358 637 446 699 q 213 502 271 575 q 127 353 156 429 q 99 211 99 278 q 106 147 99 178 q 126 92 113 117 q 226 8 158 35 q 379 -19 294 -19 q 557 6 465 -19 q 728 74 649 31 q 777 106 749 85 q 833 150 806 126 q 875 192 860 174 q 893 201 885 201 q 899 196 899 201 q 885 172 899 190 q 822 110 861 144 q 739 51 782 75 q 543 -26 650 4 q 338 -57 436 -57 m 778 872 q 775 875 775 872 q 781 883 775 878 q 789 892 786 889 q 821 920 799 901 q 867 958 843 939 q 901 986 890 976 q 914 996 908 992 q 925 1000 919 1000 q 942 996 935 1000 q 949 982 950 992 q 932 963 949 974 q 904 946 915 953 q 861 919 889 938 q 809 887 833 901 q 778 872 785 872 z "},"Č":{"ha":908,"x_min":33,"x_max":1003,"o":"m 1003 971 q 1003 968 1003 971 q 994 959 1001 965 q 982 950 988 953 q 922 917 960 936 q 861 882 885 897 q 842 872 853 876 q 824 867 831 867 q 812 871 817 867 q 801 881 807 875 q 766 917 786 896 q 738 951 746 938 q 733 960 736 954 q 731 968 729 965 q 736 971 731 971 q 763 958 742 972 q 808 926 785 943 q 838 903 831 910 q 874 919 849 908 q 927 942 899 931 q 977 963 956 954 q 1003 971 999 971 m 338 -57 q 167 -24 243 -57 q 56 83 90 8 q 40 134 46 107 q 33 190 33 161 q 67 344 33 263 q 165 506 100 426 q 328 653 231 586 q 556 761 426 719 q 642 781 585 772 q 760 790 699 790 q 838 785 800 790 q 907 764 876 779 q 961 721 944 746 q 978 665 978 696 q 961 599 978 635 q 937 567 953 582 q 910 546 921 553 q 882 535 893 535 q 876 539 876 535 q 894 561 876 549 q 926 597 915 575 q 936 644 936 619 q 923 698 936 672 q 882 738 910 724 q 818 757 854 751 q 743 763 782 763 q 639 754 689 763 q 564 738 589 746 q 358 637 446 699 q 213 502 271 575 q 127 353 156 429 q 99 211 99 278 q 106 147 99 178 q 126 92 113 117 q 226 8 158 35 q 379 -19 294 -19 q 557 6 465 -19 q 728 74 649 31 q 777 106 749 85 q 833 150 806 126 q 875 192 860 174 q 893 201 885 201 q 899 196 899 201 q 885 172 899 190 q 822 110 861 144 q 739 51 782 75 q 543 -26 650 4 q 338 -57 436 -57 z "},"Ç":{"ha":908,"x_min":33,"x_max":978,"o":"m 338 -57 q 167 -24 243 -57 q 56 83 90 8 q 40 134 46 107 q 33 190 33 161 q 67 344 33 263 q 165 506 100 426 q 328 653 231 586 q 556 761 426 719 q 642 781 585 772 q 760 790 699 790 q 838 785 800 790 q 907 764 876 779 q 961 721 944 746 q 978 665 978 696 q 961 599 978 635 q 937 567 953 582 q 910 546 921 553 q 882 535 893 535 q 876 539 876 535 q 894 561 876 549 q 926 597 915 575 q 936 644 936 619 q 923 698 936 672 q 882 738 910 724 q 818 757 854 751 q 743 763 782 763 q 639 754 689 763 q 564 738 589 746 q 358 637 446 699 q 213 502 271 575 q 127 353 156 429 q 99 211 99 278 q 106 147 99 178 q 126 92 113 117 q 226 8 158 35 q 379 -19 294 -19 q 557 6 465 -19 q 728 74 649 31 q 777 106 749 85 q 833 150 806 126 q 875 192 860 174 q 893 201 885 201 q 899 196 899 201 q 885 172 899 190 q 822 110 861 144 q 739 51 782 75 q 543 -26 650 4 q 338 -57 436 -57 m 174 -265 q 167 -256 167 -265 q 175 -249 167 -249 q 236 -242 206 -249 q 267 -204 267 -235 q 253 -169 267 -186 q 240 -132 240 -153 q 261 -77 240 -103 q 321 -51 282 -51 q 329 -57 329 -51 q 291 -78 310 -60 q 272 -115 272 -96 q 290 -151 272 -132 q 307 -193 307 -169 q 283 -240 307 -224 q 226 -262 258 -257 q 174 -265 194 -267 z "},"Ĉ":{"ha":908,"x_min":33,"x_max":978,"o":"m 338 -57 q 167 -24 243 -57 q 56 83 90 8 q 40 134 46 107 q 33 190 33 161 q 67 344 33 263 q 165 506 100 426 q 328 653 231 586 q 556 761 426 719 q 642 781 585 772 q 760 790 699 790 q 838 785 800 790 q 907 764 876 779 q 961 721 944 746 q 978 665 978 696 q 961 599 978 635 q 937 567 953 582 q 910 546 921 553 q 882 535 893 535 q 876 539 876 535 q 894 561 876 549 q 926 597 915 575 q 936 644 936 619 q 923 698 936 672 q 882 738 910 724 q 818 757 854 751 q 743 763 782 763 q 639 754 689 763 q 564 738 589 746 q 358 637 446 699 q 213 502 271 575 q 127 353 156 429 q 99 211 99 278 q 106 147 99 178 q 126 92 113 117 q 226 8 158 35 q 379 -19 294 -19 q 557 6 465 -19 q 728 74 649 31 q 777 106 749 85 q 833 150 806 126 q 875 192 860 174 q 893 201 885 201 q 899 196 899 201 q 885 172 899 190 q 822 110 861 144 q 739 51 782 75 q 543 -26 650 4 q 338 -57 436 -57 m 689 867 q 689 869 689 867 q 697 878 690 872 q 710 888 704 885 q 770 921 733 901 q 831 956 807 940 q 850 966 839 961 q 868 971 861 971 q 880 967 875 971 q 890 957 885 963 q 926 921 906 942 q 954 886 946 900 q 960 878 957 885 q 961 869 963 872 q 956 867 961 867 q 929 881 951 867 q 885 911 907 894 q 854 935 863 928 q 818 918 843 929 q 765 895 793 907 q 715 875 736 883 q 689 867 693 867 z "},"Ċ":{"ha":908,"x_min":33,"x_max":978,"o":"m 338 -57 q 167 -24 243 -57 q 56 83 90 8 q 40 134 46 107 q 33 190 33 161 q 67 344 33 263 q 165 506 100 426 q 328 653 231 586 q 556 761 426 719 q 642 781 585 772 q 760 790 699 790 q 838 785 800 790 q 907 764 876 779 q 961 721 944 746 q 978 665 978 696 q 961 599 978 635 q 937 567 953 582 q 910 546 921 553 q 882 535 893 535 q 876 539 876 535 q 894 561 876 549 q 926 597 915 575 q 936 644 936 619 q 923 698 936 672 q 882 738 910 724 q 818 757 854 751 q 743 763 782 763 q 639 754 689 763 q 564 738 589 746 q 358 637 446 699 q 213 502 271 575 q 127 353 156 429 q 99 211 99 278 q 106 147 99 178 q 126 92 113 117 q 226 8 158 35 q 379 -19 294 -19 q 557 6 465 -19 q 728 74 649 31 q 777 106 749 85 q 833 150 806 126 q 875 192 860 174 q 893 201 885 201 q 899 196 899 201 q 885 172 899 190 q 822 110 861 144 q 739 51 782 75 q 543 -26 650 4 q 338 -57 436 -57 m 822 876 q 806 888 813 876 q 800 908 800 900 q 813 931 800 919 q 842 949 826 942 q 868 957 858 957 q 875 951 875 957 q 872 938 875 946 q 861 918 869 929 q 849 892 854 908 q 822 876 844 876 z "},"D":{"ha":990,"x_min":13,"x_max":985,"o":"m 372 -56 q 292 -51 331 -56 q 222 -36 254 -46 q 142 13 167 -18 q 118 85 118 44 q 151 199 118 136 q 236 329 183 263 q 353 460 289 396 q 481 582 417 525 q 600 681 546 639 q 686 743 654 722 q 658 754 672 750 q 628 764 643 758 q 478 792 557 783 q 326 800 399 800 q 300 799 313 800 q 275 799 288 799 q 127 775 179 794 q 65 732 75 756 q 63 718 63 724 q 90 677 63 694 q 149 650 117 660 q 196 639 181 640 q 202 631 203 638 q 194 624 201 624 q 151 633 181 626 q 89 651 121 639 q 35 681 57 664 q 13 721 13 699 q 17 738 13 729 q 88 792 31 769 q 251 819 146 815 q 275 820 263 819 q 300 821 288 821 q 475 811 383 821 q 647 778 567 801 q 711 757 679 769 q 790 785 746 774 q 868 797 833 797 q 902 793 888 797 q 919 781 917 789 q 924 774 924 778 q 923 774 924 774 q 922 776 922 775 l 919 781 q 892 788 911 788 q 827 777 867 788 q 743 744 788 767 l 742 743 q 925 592 865 686 q 985 394 985 497 q 929 201 985 296 q 764 44 874 107 q 573 -30 678 -4 q 372 -56 468 -56 m 379 -37 q 567 -10 468 -37 q 746 72 665 18 q 888 225 842 138 q 935 401 935 313 q 881 588 935 500 q 718 729 826 676 q 632 665 685 707 q 517 566 579 622 q 394 447 456 510 q 281 318 332 383 q 199 193 231 253 q 168 85 168 133 q 185 27 168 53 q 239 -14 201 1 q 303 -32 267 -26 q 379 -37 339 -37 z "},"Ǆ":{"ha":1994,"x_min":13,"x_max":1956,"o":"m 1826 986 q 1826 983 1826 986 q 1818 974 1825 981 q 1806 965 1811 968 q 1746 932 1783 951 q 1685 897 1708 913 q 1665 887 1676 892 q 1647 882 1654 882 q 1635 886 1640 882 q 1625 896 1631 890 q 1590 932 1610 911 q 1561 967 1569 953 q 1556 975 1560 969 q 1554 983 1553 981 q 1560 986 1554 986 q 1587 973 1565 988 q 1631 942 1608 958 q 1661 918 1654 925 q 1697 935 1672 924 q 1751 958 1722 946 q 1801 978 1779 969 q 1826 986 1822 986 m 372 -56 q 292 -51 331 -56 q 222 -36 254 -46 q 142 13 167 -18 q 118 85 118 44 q 151 199 118 136 q 236 329 183 263 q 353 460 289 396 q 481 582 417 525 q 600 681 546 639 q 686 743 654 722 q 658 754 672 750 q 628 764 643 758 q 478 792 557 783 q 326 800 399 800 q 300 799 313 800 q 275 799 288 799 q 127 775 179 794 q 65 732 75 756 q 63 718 63 724 q 90 677 63 694 q 149 650 117 660 q 196 639 181 640 q 202 631 203 638 q 194 624 201 624 q 151 633 181 626 q 89 651 121 639 q 35 681 57 664 q 13 721 13 699 q 17 738 13 729 q 88 792 31 769 q 251 819 146 815 q 275 820 263 819 q 300 821 288 821 q 475 811 383 821 q 647 778 567 801 q 711 757 679 769 q 790 785 746 774 q 868 797 833 797 q 902 793 888 797 q 919 781 917 789 q 924 774 924 778 q 923 774 924 774 q 922 776 922 775 l 919 781 q 892 788 911 788 q 827 777 867 788 q 743 744 788 767 l 742 743 q 925 592 865 686 q 985 394 985 497 q 929 201 985 296 q 764 44 874 107 q 573 -30 678 -4 q 372 -56 468 -56 m 1757 -94 q 1730 -93 1743 -94 q 1703 -89 1717 -92 q 1622 -63 1669 -82 q 1524 -22 1575 -44 q 1427 23 1474 1 q 1349 58 1381 44 q 1259 91 1307 76 q 1168 106 1211 106 q 1090 85 1124 106 q 1043 10 1056 64 q 1015 -14 1033 -14 q 997 6 997 -14 q 1006 44 997 28 q 1022 75 1014 61 q 1090 153 1049 111 q 1176 233 1131 194 q 1259 303 1221 272 q 1317 351 1297 335 q 1417 433 1357 385 q 1547 533 1478 481 q 1685 635 1617 586 q 1811 718 1754 683 q 1701 730 1757 721 q 1619 743 1646 739 q 1522 758 1576 750 q 1410 767 1467 767 q 1330 760 1369 767 q 1257 736 1290 753 q 1215 698 1226 721 q 1203 649 1203 675 q 1220 575 1203 613 q 1256 514 1238 538 q 1257 510 1257 513 q 1251 501 1257 504 q 1243 503 1246 497 q 1211 553 1229 524 q 1180 615 1193 582 q 1167 679 1167 649 q 1179 726 1167 704 q 1221 764 1192 749 q 1300 790 1257 783 q 1389 797 1343 797 q 1504 789 1447 797 q 1604 774 1561 781 q 1667 763 1626 771 q 1756 747 1708 754 q 1843 738 1804 739 q 1862 747 1853 743 q 1879 756 1871 751 q 1901 763 1890 760 q 1922 767 1913 767 q 1944 761 1932 765 q 1956 743 1956 757 l 1956 742 q 1947 722 1956 729 q 1926 715 1938 714 l 1878 719 l 1865 719 q 1590 526 1728 633 q 1326 314 1451 419 q 1276 271 1311 301 q 1199 201 1242 240 q 1119 125 1157 163 q 1147 131 1135 128 q 1172 132 1158 133 q 1308 106 1240 129 q 1443 52 1376 83 q 1575 -6 1510 21 q 1701 -46 1640 -33 q 1774 -54 1739 -54 q 1883 -28 1839 -54 q 1926 43 1926 -3 q 1907 104 1926 69 q 1863 152 1896 125 q 1797 189 1829 179 q 1793 193 1793 189 q 1797 199 1793 196 q 1804 201 1800 203 q 1875 163 1840 192 q 1922 113 1910 133 q 1944 39 1944 74 q 1918 -31 1944 -1 q 1849 -78 1892 -61 q 1757 -94 1807 -94 m 379 -37 q 567 -10 468 -37 q 746 72 665 18 q 888 225 842 138 q 935 401 935 313 q 881 588 935 500 q 718 729 826 676 q 632 665 685 707 q 517 566 579 622 q 394 447 456 510 q 281 318 332 383 q 199 193 231 253 q 168 85 168 133 q 185 27 168 53 q 239 -14 201 1 q 303 -32 267 -26 q 379 -37 339 -37 z "},"Ď":{"ha":990,"x_min":13,"x_max":1103,"o":"m 1103 986 q 1103 983 1103 986 q 1094 974 1101 981 q 1082 965 1088 968 q 1022 932 1060 951 q 961 897 985 913 q 942 887 953 892 q 924 882 931 882 q 912 886 917 882 q 901 896 907 890 q 866 932 886 911 q 838 967 846 953 q 833 975 836 969 q 831 983 829 981 q 836 986 831 986 q 863 973 842 988 q 908 942 885 958 q 938 918 931 925 q 974 935 949 924 q 1027 958 999 946 q 1077 978 1056 969 q 1103 986 1099 986 m 372 -56 q 292 -51 331 -56 q 222 -36 254 -46 q 142 13 167 -18 q 118 85 118 44 q 151 199 118 136 q 236 329 183 263 q 353 460 289 396 q 481 582 417 525 q 600 681 546 639 q 686 743 654 722 q 658 754 672 750 q 628 764 643 758 q 478 792 557 783 q 326 800 399 800 q 300 799 313 800 q 275 799 288 799 q 127 775 179 794 q 65 732 75 756 q 63 718 63 724 q 90 677 63 694 q 149 650 117 660 q 196 639 181 640 q 202 631 203 638 q 194 624 201 624 q 151 633 181 626 q 89 651 121 639 q 35 681 57 664 q 13 721 13 699 q 17 738 13 729 q 88 792 31 769 q 251 819 146 815 q 275 820 263 819 q 300 821 288 821 q 475 811 383 821 q 647 778 567 801 q 711 757 679 769 q 790 785 746 774 q 868 797 833 797 q 902 793 888 797 q 919 781 917 789 q 924 774 924 778 q 923 774 924 774 q 922 776 922 775 l 919 781 q 892 788 911 788 q 827 777 867 788 q 743 744 788 767 l 742 743 q 925 592 865 686 q 985 394 985 497 q 929 201 985 296 q 764 44 874 107 q 573 -30 678 -4 q 372 -56 468 -56 m 379 -37 q 567 -10 468 -37 q 746 72 665 18 q 888 225 842 138 q 935 401 935 313 q 881 588 935 500 q 718 729 826 676 q 632 665 685 707 q 517 566 579 622 q 394 447 456 510 q 281 318 332 383 q 199 193 231 253 q 168 85 168 133 q 185 27 168 53 q 239 -14 201 1 q 303 -32 267 -26 q 379 -37 339 -37 z "},"Đ":{"ha":990,"x_min":13,"x_max":985,"o":"m 372 -56 q 292 -51 331 -56 q 222 -36 254 -46 q 142 13 167 -18 q 118 85 118 44 q 151 199 118 136 q 236 329 183 263 q 353 460 289 396 q 481 582 417 525 q 600 681 546 639 q 686 743 654 722 q 658 754 672 750 q 628 764 643 758 q 478 792 557 783 q 326 800 399 800 q 300 799 313 800 q 275 799 288 799 q 127 775 179 794 q 65 732 75 756 q 63 718 63 724 q 90 677 63 694 q 149 650 117 660 q 196 639 181 640 q 202 631 203 638 q 194 624 201 624 q 151 633 181 626 q 89 651 121 639 q 35 681 57 664 q 13 721 13 699 q 17 738 13 729 q 88 792 31 769 q 251 819 146 815 q 275 820 263 819 q 300 821 288 821 q 475 811 383 821 q 647 778 567 801 q 711 757 679 769 q 790 785 746 774 q 868 797 833 797 q 902 793 888 797 q 919 781 917 789 q 924 774 924 778 q 923 774 924 774 q 922 776 922 775 l 919 781 q 892 788 911 788 q 827 777 867 788 q 743 744 788 767 l 742 743 q 925 592 865 686 q 985 394 985 497 q 929 201 985 296 q 764 44 874 107 q 573 -30 678 -4 q 372 -56 468 -56 m 379 -37 q 567 -10 468 -37 q 746 72 665 18 q 888 225 842 138 q 935 401 935 313 q 881 588 935 500 q 718 729 826 676 q 632 665 685 707 q 517 566 579 622 q 394 447 456 510 q 281 318 332 383 q 199 193 231 253 q 168 85 168 133 q 185 27 168 53 q 239 -14 201 1 q 303 -32 267 -26 q 379 -37 339 -37 m 39 257 q 38 258 38 257 q 38 258 38 258 q 45 278 38 264 q 57 293 53 293 l 425 293 q 431 279 431 293 q 425 269 431 269 q 383 268 417 269 q 301 266 349 267 q 201 264 253 265 q 106 260 150 263 q 39 257 63 258 z "},"ǅ":{"ha":1399,"x_min":13,"x_max":1439,"o":"m 372 -56 q 292 -51 331 -56 q 222 -36 254 -46 q 142 13 167 -18 q 118 85 118 44 q 151 199 118 136 q 236 329 183 263 q 353 460 289 396 q 481 582 417 525 q 600 681 546 639 q 686 743 654 722 q 658 754 672 750 q 628 764 643 758 q 478 792 557 783 q 326 800 399 800 q 300 799 313 800 q 275 799 288 799 q 127 775 179 794 q 65 732 75 756 q 63 718 63 724 q 90 677 63 694 q 149 650 117 660 q 196 639 181 640 q 202 631 203 638 q 194 624 201 624 q 151 633 181 626 q 89 651 121 639 q 35 681 57 664 q 13 721 13 699 q 17 738 13 729 q 88 792 31 769 q 251 819 146 815 q 275 820 263 819 q 300 821 288 821 q 475 811 383 821 q 647 778 567 801 q 711 757 679 769 q 790 785 746 774 q 868 797 833 797 q 902 793 888 797 q 919 781 917 789 q 924 774 924 778 q 923 774 924 774 q 922 776 922 775 l 919 781 q 892 788 911 788 q 827 777 867 788 q 743 744 788 767 l 742 743 q 925 592 865 686 q 985 394 985 497 q 929 201 985 296 q 764 44 874 107 q 573 -30 678 -4 q 372 -56 468 -56 m 379 -37 q 567 -10 468 -37 q 746 72 665 18 q 888 225 842 138 q 935 401 935 313 q 881 588 935 500 q 718 729 826 676 q 632 665 685 707 q 517 566 579 622 q 394 447 456 510 q 281 318 332 383 q 199 193 231 253 q 168 85 168 133 q 185 27 168 53 q 239 -14 201 1 q 303 -32 267 -26 q 379 -37 339 -37 m 1407 479 q 1407 476 1407 479 q 1386 460 1403 465 q 1333 425 1368 446 q 1275 389 1299 404 q 1258 379 1267 383 q 1242 375 1249 375 q 1231 379 1235 375 q 1222 389 1226 383 q 1194 425 1211 404 q 1169 460 1178 446 q 1165 468 1168 463 q 1163 476 1161 474 q 1168 479 1163 479 q 1192 466 1174 481 q 1229 435 1210 451 q 1256 411 1249 418 q 1290 428 1267 417 q 1338 451 1313 439 q 1383 471 1364 463 q 1407 479 1403 479 m 1222 -10 q 1164 -2 1193 -10 q 1111 21 1135 6 q 1097 31 1106 25 q 1078 39 1088 36 q 1035 8 1058 22 q 1000 0 1011 -7 q 992 18 992 4 q 999 40 992 28 q 1025 61 1007 51 q 1065 71 1042 71 q 1089 67 1079 71 q 1180 156 1133 106 q 1265 250 1226 207 q 1202 268 1238 260 q 1153 276 1167 276 q 1103 259 1121 276 q 1075 226 1085 242 q 1044 178 1061 204 q 1017 140 1026 153 q 1008 133 1014 133 q 1003 140 1003 133 q 1006 147 1003 143 q 1010 154 1008 151 q 1038 199 1025 178 q 1068 246 1051 219 q 1107 292 1085 274 q 1165 310 1129 310 q 1228 299 1188 310 q 1273 284 1250 293 q 1318 275 1296 275 q 1360 292 1343 275 l 1361 293 l 1361 292 q 1358 278 1361 283 q 1333 251 1351 263 q 1315 244 1325 246 q 1297 243 1306 243 q 1282 244 1286 243 q 1190 147 1233 192 q 1101 63 1146 101 q 1171 31 1133 46 q 1244 17 1208 17 q 1318 40 1285 17 q 1381 102 1353 65 q 1428 169 1408 139 q 1435 175 1433 175 q 1439 168 1439 175 q 1435 156 1439 163 q 1365 61 1404 104 q 1281 0 1325 18 q 1253 -8 1268 -6 q 1222 -10 1238 -10 z "},"E":{"ha":839,"x_min":46,"x_max":999,"o":"m 360 -79 q 240 -67 296 -79 q 149 -22 183 -56 q 114 72 114 11 q 117 108 114 89 q 125 147 119 126 q 165 249 139 196 q 226 358 192 303 q 381 562 288 460 q 568 751 474 664 q 419 742 494 750 q 281 725 343 735 q 181 703 218 715 q 103 671 133 689 q 74 633 74 653 q 132 582 74 608 q 135 576 135 581 q 122 567 135 564 q 65 603 83 583 q 46 644 46 624 q 73 693 46 669 q 150 732 100 717 q 228 747 174 739 q 356 761 282 754 q 512 772 429 768 q 674 776 594 776 q 824 771 754 776 q 939 752 893 765 q 994 715 985 739 q 999 696 999 707 q 982 645 999 672 q 943 594 965 618 q 929 588 936 588 q 921 596 921 588 q 926 607 921 601 q 957 682 964 646 q 928 715 954 701 q 865 736 903 728 q 783 749 826 744 q 703 753 740 753 q 622 746 647 753 q 581 717 610 743 q 515 652 551 690 q 441 572 478 614 q 374 496 404 531 q 328 443 343 461 q 455 455 393 450 q 585 460 517 460 q 653 458 618 460 q 728 453 689 457 q 750 443 750 451 q 740 433 750 438 q 724 429 731 429 q 685 430 706 429 q 643 431 665 431 q 521 428 585 431 q 400 419 457 425 q 303 407 343 414 q 223 277 260 347 q 171 142 186 207 q 163 81 163 108 q 187 1 163 29 q 251 -39 211 -28 q 339 -50 292 -50 q 482 -37 400 -50 q 648 8 564 -24 q 796 90 732 39 q 838 131 819 108 q 872 176 857 153 q 879 182 876 182 q 883 175 883 182 q 879 161 883 168 q 849 115 865 139 q 813 72 832 92 q 676 -21 751 13 q 519 -67 600 -54 q 360 -79 438 -79 z "},"É":{"ha":839,"x_min":46,"x_max":999,"o":"m 360 -79 q 240 -67 296 -79 q 149 -22 183 -56 q 114 72 114 11 q 117 108 114 89 q 125 147 119 126 q 165 249 139 196 q 226 358 192 303 q 381 562 288 460 q 568 751 474 664 q 419 742 494 750 q 281 725 343 735 q 181 703 218 715 q 103 671 133 689 q 74 633 74 653 q 132 582 74 608 q 135 576 135 581 q 122 567 135 564 q 65 603 83 583 q 46 644 46 624 q 73 693 46 669 q 150 732 100 717 q 228 747 174 739 q 356 761 282 754 q 512 772 429 768 q 674 776 594 776 q 824 771 754 776 q 939 752 893 765 q 994 715 985 739 q 999 696 999 707 q 982 645 999 672 q 943 594 965 618 q 929 588 936 588 q 921 596 921 588 q 926 607 921 601 q 957 682 964 646 q 928 715 954 701 q 865 736 903 728 q 783 749 826 744 q 703 753 740 753 q 622 746 647 753 q 581 717 610 743 q 515 652 551 690 q 441 572 478 614 q 374 496 404 531 q 328 443 343 461 q 455 455 393 450 q 585 460 517 460 q 653 458 618 460 q 728 453 689 457 q 750 443 750 451 q 740 433 750 438 q 724 429 731 429 q 685 430 706 429 q 643 431 665 431 q 521 428 585 431 q 400 419 457 425 q 303 407 343 414 q 223 277 260 347 q 171 142 186 207 q 163 81 163 108 q 187 1 163 29 q 251 -39 211 -28 q 339 -50 292 -50 q 482 -37 400 -50 q 648 8 564 -24 q 796 90 732 39 q 838 131 819 108 q 872 176 857 153 q 879 182 876 182 q 883 175 883 182 q 879 161 883 168 q 849 115 865 139 q 813 72 832 92 q 676 -21 751 13 q 519 -67 600 -54 q 360 -79 438 -79 m 756 857 q 753 860 753 857 q 758 868 753 863 q 767 876 764 874 q 799 905 776 886 q 844 942 821 924 q 879 971 868 961 q 892 981 886 976 q 903 985 897 985 q 920 981 913 985 q 926 967 928 976 q 910 948 926 958 q 882 931 893 938 q 839 904 867 922 q 787 872 811 886 q 756 857 763 857 z "},"Ĕ":{"ha":839,"x_min":46,"x_max":999,"o":"m 360 -79 q 240 -67 296 -79 q 149 -22 183 -56 q 114 72 114 11 q 117 108 114 89 q 125 147 119 126 q 165 249 139 196 q 226 358 192 303 q 381 562 288 460 q 568 751 474 664 q 419 742 494 750 q 281 725 343 735 q 181 703 218 715 q 103 671 133 689 q 74 633 74 653 q 132 582 74 608 q 135 576 135 581 q 122 567 135 564 q 65 603 83 583 q 46 644 46 624 q 73 693 46 669 q 150 732 100 717 q 228 747 174 739 q 356 761 282 754 q 512 772 429 768 q 674 776 594 776 q 824 771 754 776 q 939 752 893 765 q 994 715 985 739 q 999 696 999 707 q 982 645 999 672 q 943 594 965 618 q 929 588 936 588 q 921 596 921 588 q 926 607 921 601 q 957 682 964 646 q 928 715 954 701 q 865 736 903 728 q 783 749 826 744 q 703 753 740 753 q 622 746 647 753 q 581 717 610 743 q 515 652 551 690 q 441 572 478 614 q 374 496 404 531 q 328 443 343 461 q 455 455 393 450 q 585 460 517 460 q 653 458 618 460 q 728 453 689 457 q 750 443 750 451 q 740 433 750 438 q 724 429 731 429 q 685 430 706 429 q 643 431 665 431 q 521 428 585 431 q 400 419 457 425 q 303 407 343 414 q 223 277 260 347 q 171 142 186 207 q 163 81 163 108 q 187 1 163 29 q 251 -39 211 -28 q 339 -50 292 -50 q 482 -37 400 -50 q 648 8 564 -24 q 796 90 732 39 q 838 131 819 108 q 872 176 857 153 q 879 182 876 182 q 883 175 883 182 q 879 161 883 168 q 849 115 865 139 q 813 72 832 92 q 676 -21 751 13 q 519 -67 600 -54 q 360 -79 438 -79 m 807 858 q 714 925 714 858 q 715 937 714 932 q 715 943 715 942 q 723 963 718 958 q 732 967 728 967 q 746 942 743 967 q 763 903 749 917 q 824 890 776 890 q 903 906 872 890 q 954 940 935 921 q 967 955 963 949 q 975 961 971 961 q 978 951 983 961 q 949 914 972 936 q 889 875 925 892 q 807 858 853 858 z "},"Ě":{"ha":839,"x_min":46,"x_max":999,"o":"m 981 956 q 981 953 981 956 q 972 944 979 950 q 960 935 965 938 q 900 901 938 921 q 839 867 863 882 q 819 856 831 861 q 801 851 808 851 q 790 856 794 851 q 779 865 785 860 q 744 901 764 881 q 715 936 724 922 q 710 944 714 939 q 708 953 707 950 q 714 956 708 956 q 741 942 719 957 q 785 911 763 928 q 815 888 808 894 q 851 904 826 893 q 905 927 876 915 q 955 947 933 939 q 981 956 976 956 m 360 -79 q 240 -67 296 -79 q 149 -22 183 -56 q 114 72 114 11 q 117 108 114 89 q 125 147 119 126 q 165 249 139 196 q 226 358 192 303 q 381 562 288 460 q 568 751 474 664 q 419 742 494 750 q 281 725 343 735 q 181 703 218 715 q 103 671 133 689 q 74 633 74 653 q 132 582 74 608 q 135 576 135 581 q 122 567 135 564 q 65 603 83 583 q 46 644 46 624 q 73 693 46 669 q 150 732 100 717 q 228 747 174 739 q 356 761 282 754 q 512 772 429 768 q 674 776 594 776 q 824 771 754 776 q 939 752 893 765 q 994 715 985 739 q 999 696 999 707 q 982 645 999 672 q 943 594 965 618 q 929 588 936 588 q 921 596 921 588 q 926 607 921 601 q 957 682 964 646 q 928 715 954 701 q 865 736 903 728 q 783 749 826 744 q 703 753 740 753 q 622 746 647 753 q 581 717 610 743 q 515 652 551 690 q 441 572 478 614 q 374 496 404 531 q 328 443 343 461 q 455 455 393 450 q 585 460 517 460 q 653 458 618 460 q 728 453 689 457 q 750 443 750 451 q 740 433 750 438 q 724 429 731 429 q 685 430 706 429 q 643 431 665 431 q 521 428 585 431 q 400 419 457 425 q 303 407 343 414 q 223 277 260 347 q 171 142 186 207 q 163 81 163 108 q 187 1 163 29 q 251 -39 211 -28 q 339 -50 292 -50 q 482 -37 400 -50 q 648 8 564 -24 q 796 90 732 39 q 838 131 819 108 q 872 176 857 153 q 879 182 876 182 q 883 175 883 182 q 879 161 883 168 q 849 115 865 139 q 813 72 832 92 q 676 -21 751 13 q 519 -67 600 -54 q 360 -79 438 -79 z "},"Ê":{"ha":839,"x_min":46,"x_max":999,"o":"m 360 -79 q 240 -67 296 -79 q 149 -22 183 -56 q 114 72 114 11 q 117 108 114 89 q 125 147 119 126 q 165 249 139 196 q 226 358 192 303 q 381 562 288 460 q 568 751 474 664 q 419 742 494 750 q 281 725 343 735 q 181 703 218 715 q 103 671 133 689 q 74 633 74 653 q 132 582 74 608 q 135 576 135 581 q 122 567 135 564 q 65 603 83 583 q 46 644 46 624 q 73 693 46 669 q 150 732 100 717 q 228 747 174 739 q 356 761 282 754 q 512 772 429 768 q 674 776 594 776 q 824 771 754 776 q 939 752 893 765 q 994 715 985 739 q 999 696 999 707 q 982 645 999 672 q 943 594 965 618 q 929 588 936 588 q 921 596 921 588 q 926 607 921 601 q 957 682 964 646 q 928 715 954 701 q 865 736 903 728 q 783 749 826 744 q 703 753 740 753 q 622 746 647 753 q 581 717 610 743 q 515 652 551 690 q 441 572 478 614 q 374 496 404 531 q 328 443 343 461 q 455 455 393 450 q 585 460 517 460 q 653 458 618 460 q 728 453 689 457 q 750 443 750 451 q 740 433 750 438 q 724 429 731 429 q 685 430 706 429 q 643 431 665 431 q 521 428 585 431 q 400 419 457 425 q 303 407 343 414 q 223 277 260 347 q 171 142 186 207 q 163 81 163 108 q 187 1 163 29 q 251 -39 211 -28 q 339 -50 292 -50 q 482 -37 400 -50 q 648 8 564 -24 q 796 90 732 39 q 838 131 819 108 q 872 176 857 153 q 879 182 876 182 q 883 175 883 182 q 879 161 883 168 q 849 115 865 139 q 813 72 832 92 q 676 -21 751 13 q 519 -67 600 -54 q 360 -79 438 -79 m 667 851 q 667 854 667 851 q 675 863 668 857 q 688 872 682 869 q 748 906 711 886 q 808 940 785 925 q 828 951 817 946 q 846 956 839 956 q 858 951 853 956 q 868 942 863 947 q 903 906 883 926 q 932 871 924 885 q 938 863 935 869 q 939 854 940 857 q 933 851 939 851 q 907 865 929 851 q 863 896 885 879 q 832 919 840 913 q 796 903 821 914 q 742 880 771 892 q 692 860 714 868 q 667 851 671 851 z "},"Ế":{"ha":839,"x_min":46,"x_max":1111,"o":"m 360 -79 q 240 -67 296 -79 q 149 -22 183 -56 q 114 72 114 11 q 117 108 114 89 q 125 147 119 126 q 165 249 139 196 q 226 358 192 303 q 381 562 288 460 q 568 751 474 664 q 419 742 494 750 q 281 725 343 735 q 181 703 218 715 q 103 671 133 689 q 74 633 74 653 q 132 582 74 608 q 135 576 135 581 q 122 567 135 564 q 65 603 83 583 q 46 644 46 624 q 73 693 46 669 q 150 732 100 717 q 228 747 174 739 q 356 761 282 754 q 512 772 429 768 q 674 776 594 776 q 824 771 754 776 q 939 752 893 765 q 994 715 985 739 q 999 696 999 707 q 982 645 999 672 q 943 594 965 618 q 929 588 936 588 q 921 596 921 588 q 926 607 921 601 q 957 682 964 646 q 928 715 954 701 q 865 736 903 728 q 783 749 826 744 q 703 753 740 753 q 622 746 647 753 q 581 717 610 743 q 515 652 551 690 q 441 572 478 614 q 374 496 404 531 q 328 443 343 461 q 455 455 393 450 q 585 460 517 460 q 653 458 618 460 q 728 453 689 457 q 750 443 750 451 q 740 433 750 438 q 724 429 731 429 q 685 430 706 429 q 643 431 665 431 q 521 428 585 431 q 400 419 457 425 q 303 407 343 414 q 223 277 260 347 q 171 142 186 207 q 163 81 163 108 q 187 1 163 29 q 251 -39 211 -28 q 339 -50 292 -50 q 482 -37 400 -50 q 648 8 564 -24 q 796 90 732 39 q 838 131 819 108 q 872 176 857 153 q 879 182 876 182 q 883 175 883 182 q 879 161 883 168 q 849 115 865 139 q 813 72 832 92 q 676 -21 751 13 q 519 -67 600 -54 q 360 -79 438 -79 m 667 851 q 667 854 667 851 q 675 863 668 857 q 688 872 682 869 q 748 906 711 886 q 808 940 785 925 q 828 951 817 946 q 846 956 839 956 q 858 951 853 956 q 868 942 863 947 q 903 906 883 926 q 932 871 924 885 q 938 863 935 869 q 939 854 940 857 q 933 851 939 851 q 907 865 929 851 q 863 896 885 879 q 832 919 840 913 q 796 903 821 914 q 742 880 771 892 q 692 860 714 868 q 667 851 671 851 m 939 936 q 936 939 936 936 q 942 947 936 942 q 950 956 947 953 q 982 984 960 965 q 1028 1022 1004 1003 q 1063 1050 1051 1040 q 1075 1060 1069 1056 q 1086 1064 1081 1064 q 1103 1060 1096 1064 q 1110 1046 1111 1056 q 1093 1027 1110 1038 q 1065 1010 1076 1017 q 1022 983 1050 1001 q 970 951 994 965 q 939 936 946 936 z "},"Ệ":{"ha":839,"x_min":46,"x_max":999,"o":"m 360 -79 q 240 -67 296 -79 q 149 -22 183 -56 q 114 72 114 11 q 117 108 114 89 q 125 147 119 126 q 165 249 139 196 q 226 358 192 303 q 381 562 288 460 q 568 751 474 664 q 419 742 494 750 q 281 725 343 735 q 181 703 218 715 q 103 671 133 689 q 74 633 74 653 q 132 582 74 608 q 135 576 135 581 q 122 567 135 564 q 65 603 83 583 q 46 644 46 624 q 73 693 46 669 q 150 732 100 717 q 228 747 174 739 q 356 761 282 754 q 512 772 429 768 q 674 776 594 776 q 824 771 754 776 q 939 752 893 765 q 994 715 985 739 q 999 696 999 707 q 982 645 999 672 q 943 594 965 618 q 929 588 936 588 q 921 596 921 588 q 926 607 921 601 q 957 682 964 646 q 928 715 954 701 q 865 736 903 728 q 783 749 826 744 q 703 753 740 753 q 622 746 647 753 q 581 717 610 743 q 515 652 551 690 q 441 572 478 614 q 374 496 404 531 q 328 443 343 461 q 455 455 393 450 q 585 460 517 460 q 653 458 618 460 q 728 453 689 457 q 750 443 750 451 q 740 433 750 438 q 724 429 731 429 q 685 430 706 429 q 643 431 665 431 q 521 428 585 431 q 400 419 457 425 q 303 407 343 414 q 223 277 260 347 q 171 142 186 207 q 163 81 163 108 q 187 1 163 29 q 251 -39 211 -28 q 339 -50 292 -50 q 482 -37 400 -50 q 648 8 564 -24 q 796 90 732 39 q 838 131 819 108 q 872 176 857 153 q 879 182 876 182 q 883 175 883 182 q 879 161 883 168 q 849 115 865 139 q 813 72 832 92 q 676 -21 751 13 q 519 -67 600 -54 q 360 -79 438 -79 m 288 -233 q 272 -222 278 -233 q 265 -201 265 -210 q 278 -179 265 -190 q 308 -160 292 -168 q 333 -153 324 -153 q 340 -158 340 -153 q 338 -172 340 -164 q 326 -192 335 -181 q 315 -217 319 -201 q 288 -233 310 -233 m 667 851 q 667 854 667 851 q 675 863 668 857 q 688 872 682 869 q 748 906 711 886 q 808 940 785 925 q 828 951 817 946 q 846 956 839 956 q 858 951 853 956 q 868 942 863 947 q 903 906 883 926 q 932 871 924 885 q 938 863 935 869 q 939 854 940 857 q 933 851 939 851 q 907 865 929 851 q 863 896 885 879 q 832 919 840 913 q 796 903 821 914 q 742 880 771 892 q 692 860 714 868 q 667 851 671 851 z "},"Ề":{"ha":839,"x_min":46,"x_max":999,"o":"m 360 -79 q 240 -67 296 -79 q 149 -22 183 -56 q 114 72 114 11 q 117 108 114 89 q 125 147 119 126 q 165 249 139 196 q 226 358 192 303 q 381 562 288 460 q 568 751 474 664 q 419 742 494 750 q 281 725 343 735 q 181 703 218 715 q 103 671 133 689 q 74 633 74 653 q 132 582 74 608 q 135 576 135 581 q 122 567 135 564 q 65 603 83 583 q 46 644 46 624 q 73 693 46 669 q 150 732 100 717 q 228 747 174 739 q 356 761 282 754 q 512 772 429 768 q 674 776 594 776 q 824 771 754 776 q 939 752 893 765 q 994 715 985 739 q 999 696 999 707 q 982 645 999 672 q 943 594 965 618 q 929 588 936 588 q 921 596 921 588 q 926 607 921 601 q 957 682 964 646 q 928 715 954 701 q 865 736 903 728 q 783 749 826 744 q 703 753 740 753 q 622 746 647 753 q 581 717 610 743 q 515 652 551 690 q 441 572 478 614 q 374 496 404 531 q 328 443 343 461 q 455 455 393 450 q 585 460 517 460 q 653 458 618 460 q 728 453 689 457 q 750 443 750 451 q 740 433 750 438 q 724 429 731 429 q 685 430 706 429 q 643 431 665 431 q 521 428 585 431 q 400 419 457 425 q 303 407 343 414 q 223 277 260 347 q 171 142 186 207 q 163 81 163 108 q 187 1 163 29 q 251 -39 211 -28 q 339 -50 292 -50 q 482 -37 400 -50 q 648 8 564 -24 q 796 90 732 39 q 838 131 819 108 q 872 176 857 153 q 879 182 876 182 q 883 175 883 182 q 879 161 883 168 q 849 115 865 139 q 813 72 832 92 q 676 -21 751 13 q 519 -67 600 -54 q 360 -79 438 -79 m 667 851 q 667 854 667 851 q 675 863 668 857 q 688 872 682 869 q 748 906 711 886 q 808 940 785 925 q 828 951 817 946 q 846 956 839 956 q 858 951 853 956 q 868 942 863 947 q 903 906 883 926 q 932 871 924 885 q 938 863 935 869 q 939 854 940 857 q 933 851 939 851 q 907 865 929 851 q 863 896 885 879 q 832 919 840 913 q 796 903 821 914 q 742 880 771 892 q 692 860 714 868 q 667 851 671 851 m 938 964 q 907 978 932 964 q 854 1011 882 993 q 811 1038 826 1029 q 784 1055 801 1044 q 767 1074 767 1065 l 767 1075 q 774 1088 767 1083 q 790 1092 781 1092 q 803 1088 797 1092 q 814 1078 808 1083 q 849 1049 826 1068 q 894 1012 872 1031 q 926 983 917 993 q 935 975 929 981 q 940 967 940 969 q 938 964 940 964 z "},"Ể":{"ha":839,"x_min":46,"x_max":1050,"o":"m 360 -79 q 240 -67 296 -79 q 149 -22 183 -56 q 114 72 114 11 q 117 108 114 89 q 125 147 119 126 q 165 249 139 196 q 226 358 192 303 q 381 562 288 460 q 568 751 474 664 q 419 742 494 750 q 281 725 343 735 q 181 703 218 715 q 103 671 133 689 q 74 633 74 653 q 132 582 74 608 q 135 576 135 581 q 122 567 135 564 q 65 603 83 583 q 46 644 46 624 q 73 693 46 669 q 150 732 100 717 q 228 747 174 739 q 356 761 282 754 q 512 772 429 768 q 674 776 594 776 q 824 771 754 776 q 939 752 893 765 q 994 715 985 739 q 999 696 999 707 q 982 645 999 672 q 943 594 965 618 q 929 588 936 588 q 921 596 921 588 q 926 607 921 601 q 957 682 964 646 q 928 715 954 701 q 865 736 903 728 q 783 749 826 744 q 703 753 740 753 q 622 746 647 753 q 581 717 610 743 q 515 652 551 690 q 441 572 478 614 q 374 496 404 531 q 328 443 343 461 q 455 455 393 450 q 585 460 517 460 q 653 458 618 460 q 728 453 689 457 q 750 443 750 451 q 740 433 750 438 q 724 429 731 429 q 685 430 706 429 q 643 431 665 431 q 521 428 585 431 q 400 419 457 425 q 303 407 343 414 q 223 277 260 347 q 171 142 186 207 q 163 81 163 108 q 187 1 163 29 q 251 -39 211 -28 q 339 -50 292 -50 q 482 -37 400 -50 q 648 8 564 -24 q 796 90 732 39 q 838 131 819 108 q 872 176 857 153 q 879 182 876 182 q 883 175 883 182 q 879 161 883 168 q 849 115 865 139 q 813 72 832 92 q 676 -21 751 13 q 519 -67 600 -54 q 360 -79 438 -79 m 667 851 q 667 854 667 851 q 675 863 668 857 q 688 872 682 869 q 748 906 711 886 q 808 940 785 925 q 828 951 817 946 q 846 956 839 956 q 858 951 853 956 q 868 942 863 947 q 903 906 883 926 q 932 871 924 885 q 938 863 935 869 q 939 854 940 857 q 933 851 939 851 q 907 865 929 851 q 863 896 885 879 q 832 919 840 913 q 796 903 821 914 q 742 880 771 892 q 692 860 714 868 q 667 851 671 851 m 957 928 q 950 933 950 928 q 957 946 950 936 q 969 958 964 953 q 979 969 975 964 q 1013 1021 1008 997 q 1013 1026 1013 1024 q 1014 1029 1014 1028 q 982 1051 1014 1051 q 950 1042 965 1051 q 926 1025 935 1032 q 918 1026 917 1018 q 947 1066 924 1050 q 1008 1082 971 1082 q 1040 1068 1031 1082 q 1050 1039 1050 1054 q 1000 958 1050 994 q 983 948 994 956 q 964 934 972 940 q 957 928 956 928 z "},"Ễ":{"ha":839,"x_min":46,"x_max":1007,"o":"m 360 -79 q 240 -67 296 -79 q 149 -22 183 -56 q 114 72 114 11 q 117 108 114 89 q 125 147 119 126 q 165 249 139 196 q 226 358 192 303 q 381 562 288 460 q 568 751 474 664 q 419 742 494 750 q 281 725 343 735 q 181 703 218 715 q 103 671 133 689 q 74 633 74 653 q 132 582 74 608 q 135 576 135 581 q 122 567 135 564 q 65 603 83 583 q 46 644 46 624 q 73 693 46 669 q 150 732 100 717 q 228 747 174 739 q 356 761 282 754 q 512 772 429 768 q 674 776 594 776 q 824 771 754 776 q 939 752 893 765 q 994 715 985 739 q 999 696 999 707 q 982 645 999 672 q 943 594 965 618 q 929 588 936 588 q 921 596 921 588 q 926 607 921 601 q 957 682 964 646 q 928 715 954 701 q 865 736 903 728 q 783 749 826 744 q 703 753 740 753 q 622 746 647 753 q 581 717 610 743 q 515 652 551 690 q 441 572 478 614 q 374 496 404 531 q 328 443 343 461 q 455 455 393 450 q 585 460 517 460 q 653 458 618 460 q 728 453 689 457 q 750 443 750 451 q 740 433 750 438 q 724 429 731 429 q 685 430 706 429 q 643 431 665 431 q 521 428 585 431 q 400 419 457 425 q 303 407 343 414 q 223 277 260 347 q 171 142 186 207 q 163 81 163 108 q 187 1 163 29 q 251 -39 211 -28 q 339 -50 292 -50 q 482 -37 400 -50 q 648 8 564 -24 q 796 90 732 39 q 838 131 819 108 q 872 176 857 153 q 879 182 876 182 q 883 175 883 182 q 879 161 883 168 q 849 115 865 139 q 813 72 832 92 q 676 -21 751 13 q 519 -67 600 -54 q 360 -79 438 -79 m 667 851 q 667 854 667 851 q 675 863 668 857 q 688 872 682 869 q 748 906 711 886 q 808 940 785 925 q 828 951 817 946 q 846 956 839 956 q 858 951 853 956 q 868 942 863 947 q 903 906 883 926 q 932 871 924 885 q 938 863 935 869 q 939 854 940 857 q 933 851 939 851 q 907 865 929 851 q 863 896 885 879 q 832 919 840 913 q 796 903 821 914 q 742 880 771 892 q 692 860 714 868 q 667 851 671 851 m 739 986 q 736 996 732 986 q 749 1017 740 1003 q 772 1044 758 1032 q 800 1057 785 1057 q 845 1049 819 1057 q 899 1031 871 1040 q 954 1022 928 1022 q 983 1038 972 1022 q 999 1054 994 1053 q 1000 1039 1007 1054 q 976 1003 992 1019 q 946 988 961 988 q 897 997 925 988 q 842 1015 869 1006 q 796 1024 815 1024 q 770 1015 782 1024 q 751 996 758 1006 q 739 986 743 986 z "},"Ȅ":{"ha":839,"x_min":46,"x_max":999,"o":"m 819 858 q 796 871 814 858 q 758 899 778 883 q 724 925 738 915 q 699 946 714 933 q 685 967 683 958 l 685 968 q 693 980 686 976 q 710 982 700 983 q 722 976 717 981 q 732 965 726 971 q 773 922 747 949 q 811 879 799 894 q 819 869 814 875 q 824 861 824 864 q 819 858 822 858 m 757 857 q 732 867 751 857 q 690 890 713 876 q 653 911 668 903 q 626 928 643 918 q 608 947 608 939 l 608 949 q 615 961 608 957 q 632 965 622 965 q 644 961 639 965 q 656 951 650 957 q 703 914 674 938 q 746 876 732 890 q 754 868 749 874 q 760 860 760 863 q 757 857 760 857 m 360 -79 q 240 -67 296 -79 q 149 -22 183 -56 q 114 72 114 11 q 117 108 114 89 q 125 147 119 126 q 165 249 139 196 q 226 358 192 303 q 381 562 288 460 q 568 751 474 664 q 419 742 494 750 q 281 725 343 735 q 181 703 218 715 q 103 671 133 689 q 74 633 74 653 q 132 582 74 608 q 135 576 135 581 q 122 567 135 564 q 65 603 83 583 q 46 644 46 624 q 73 693 46 669 q 150 732 100 717 q 228 747 174 739 q 356 761 282 754 q 512 772 429 768 q 674 776 594 776 q 824 771 754 776 q 939 752 893 765 q 994 715 985 739 q 999 696 999 707 q 982 645 999 672 q 943 594 965 618 q 929 588 936 588 q 921 596 921 588 q 926 607 921 601 q 957 682 964 646 q 928 715 954 701 q 865 736 903 728 q 783 749 826 744 q 703 753 740 753 q 622 746 647 753 q 581 717 610 743 q 515 652 551 690 q 441 572 478 614 q 374 496 404 531 q 328 443 343 461 q 455 455 393 450 q 585 460 517 460 q 653 458 618 460 q 728 453 689 457 q 750 443 750 451 q 740 433 750 438 q 724 429 731 429 q 685 430 706 429 q 643 431 665 431 q 521 428 585 431 q 400 419 457 425 q 303 407 343 414 q 223 277 260 347 q 171 142 186 207 q 163 81 163 108 q 187 1 163 29 q 251 -39 211 -28 q 339 -50 292 -50 q 482 -37 400 -50 q 648 8 564 -24 q 796 90 732 39 q 838 131 819 108 q 872 176 857 153 q 879 182 876 182 q 883 175 883 182 q 879 161 883 168 q 849 115 865 139 q 813 72 832 92 q 676 -21 751 13 q 519 -67 600 -54 q 360 -79 438 -79 z "},"Ë":{"ha":839,"x_min":46,"x_max":999,"o":"m 360 -79 q 240 -67 296 -79 q 149 -22 183 -56 q 114 72 114 11 q 117 108 114 89 q 125 147 119 126 q 165 249 139 196 q 226 358 192 303 q 381 562 288 460 q 568 751 474 664 q 419 742 494 750 q 281 725 343 735 q 181 703 218 715 q 103 671 133 689 q 74 633 74 653 q 132 582 74 608 q 135 576 135 581 q 122 567 135 564 q 65 603 83 583 q 46 644 46 624 q 73 693 46 669 q 150 732 100 717 q 228 747 174 739 q 356 761 282 754 q 512 772 429 768 q 674 776 594 776 q 824 771 754 776 q 939 752 893 765 q 994 715 985 739 q 999 696 999 707 q 982 645 999 672 q 943 594 965 618 q 929 588 936 588 q 921 596 921 588 q 926 607 921 601 q 957 682 964 646 q 928 715 954 701 q 865 736 903 728 q 783 749 826 744 q 703 753 740 753 q 622 746 647 753 q 581 717 610 743 q 515 652 551 690 q 441 572 478 614 q 374 496 404 531 q 328 443 343 461 q 455 455 393 450 q 585 460 517 460 q 653 458 618 460 q 728 453 689 457 q 750 443 750 451 q 740 433 750 438 q 724 429 731 429 q 685 430 706 429 q 643 431 665 431 q 521 428 585 431 q 400 419 457 425 q 303 407 343 414 q 223 277 260 347 q 171 142 186 207 q 163 81 163 108 q 187 1 163 29 q 251 -39 211 -28 q 339 -50 292 -50 q 482 -37 400 -50 q 648 8 564 -24 q 796 90 732 39 q 838 131 819 108 q 872 176 857 153 q 879 182 876 182 q 883 175 883 182 q 879 161 883 168 q 849 115 865 139 q 813 72 832 92 q 676 -21 751 13 q 519 -67 600 -54 q 360 -79 438 -79 m 864 857 q 851 867 854 857 q 847 886 847 878 q 870 917 847 901 q 907 932 893 932 q 914 926 914 932 q 909 911 914 921 q 899 893 904 901 q 890 870 893 883 q 864 857 886 857 m 739 857 q 726 867 729 857 q 722 886 722 878 q 745 917 722 901 q 782 932 768 932 q 789 926 789 932 q 784 911 789 921 q 774 893 779 901 q 765 870 768 883 q 739 857 761 857 z "},"Ė":{"ha":839,"x_min":46,"x_max":999,"o":"m 360 -79 q 240 -67 296 -79 q 149 -22 183 -56 q 114 72 114 11 q 117 108 114 89 q 125 147 119 126 q 165 249 139 196 q 226 358 192 303 q 381 562 288 460 q 568 751 474 664 q 419 742 494 750 q 281 725 343 735 q 181 703 218 715 q 103 671 133 689 q 74 633 74 653 q 132 582 74 608 q 135 576 135 581 q 122 567 135 564 q 65 603 83 583 q 46 644 46 624 q 73 693 46 669 q 150 732 100 717 q 228 747 174 739 q 356 761 282 754 q 512 772 429 768 q 674 776 594 776 q 824 771 754 776 q 939 752 893 765 q 994 715 985 739 q 999 696 999 707 q 982 645 999 672 q 943 594 965 618 q 929 588 936 588 q 921 596 921 588 q 926 607 921 601 q 957 682 964 646 q 928 715 954 701 q 865 736 903 728 q 783 749 826 744 q 703 753 740 753 q 622 746 647 753 q 581 717 610 743 q 515 652 551 690 q 441 572 478 614 q 374 496 404 531 q 328 443 343 461 q 455 455 393 450 q 585 460 517 460 q 653 458 618 460 q 728 453 689 457 q 750 443 750 451 q 740 433 750 438 q 724 429 731 429 q 685 430 706 429 q 643 431 665 431 q 521 428 585 431 q 400 419 457 425 q 303 407 343 414 q 223 277 260 347 q 171 142 186 207 q 163 81 163 108 q 187 1 163 29 q 251 -39 211 -28 q 339 -50 292 -50 q 482 -37 400 -50 q 648 8 564 -24 q 796 90 732 39 q 838 131 819 108 q 872 176 857 153 q 879 182 876 182 q 883 175 883 182 q 879 161 883 168 q 849 115 865 139 q 813 72 832 92 q 676 -21 751 13 q 519 -67 600 -54 q 360 -79 438 -79 m 800 861 q 784 873 790 861 q 778 893 778 885 q 791 915 778 904 q 820 934 804 926 q 846 942 836 942 q 853 936 853 942 q 850 922 853 931 q 839 903 847 914 q 827 877 832 893 q 800 861 822 861 z "},"Ẹ":{"ha":839,"x_min":46,"x_max":999,"o":"m 360 -79 q 240 -67 296 -79 q 149 -22 183 -56 q 114 72 114 11 q 117 108 114 89 q 125 147 119 126 q 165 249 139 196 q 226 358 192 303 q 381 562 288 460 q 568 751 474 664 q 419 742 494 750 q 281 725 343 735 q 181 703 218 715 q 103 671 133 689 q 74 633 74 653 q 132 582 74 608 q 135 576 135 581 q 122 567 135 564 q 65 603 83 583 q 46 644 46 624 q 73 693 46 669 q 150 732 100 717 q 228 747 174 739 q 356 761 282 754 q 512 772 429 768 q 674 776 594 776 q 824 771 754 776 q 939 752 893 765 q 994 715 985 739 q 999 696 999 707 q 982 645 999 672 q 943 594 965 618 q 929 588 936 588 q 921 596 921 588 q 926 607 921 601 q 957 682 964 646 q 928 715 954 701 q 865 736 903 728 q 783 749 826 744 q 703 753 740 753 q 622 746 647 753 q 581 717 610 743 q 515 652 551 690 q 441 572 478 614 q 374 496 404 531 q 328 443 343 461 q 455 455 393 450 q 585 460 517 460 q 653 458 618 460 q 728 453 689 457 q 750 443 750 451 q 740 433 750 438 q 724 429 731 429 q 685 430 706 429 q 643 431 665 431 q 521 428 585 431 q 400 419 457 425 q 303 407 343 414 q 223 277 260 347 q 171 142 186 207 q 163 81 163 108 q 187 1 163 29 q 251 -39 211 -28 q 339 -50 292 -50 q 482 -37 400 -50 q 648 8 564 -24 q 796 90 732 39 q 838 131 819 108 q 872 176 857 153 q 879 182 876 182 q 883 175 883 182 q 879 161 883 168 q 849 115 865 139 q 813 72 832 92 q 676 -21 751 13 q 519 -67 600 -54 q 360 -79 438 -79 m 288 -233 q 272 -222 278 -233 q 265 -201 265 -210 q 278 -179 265 -190 q 308 -160 292 -168 q 333 -153 324 -153 q 340 -158 340 -153 q 338 -172 340 -164 q 326 -192 335 -181 q 315 -217 319 -201 q 288 -233 310 -233 z "},"È":{"ha":839,"x_min":46,"x_max":999,"o":"m 360 -79 q 240 -67 296 -79 q 149 -22 183 -56 q 114 72 114 11 q 117 108 114 89 q 125 147 119 126 q 165 249 139 196 q 226 358 192 303 q 381 562 288 460 q 568 751 474 664 q 419 742 494 750 q 281 725 343 735 q 181 703 218 715 q 103 671 133 689 q 74 633 74 653 q 132 582 74 608 q 135 576 135 581 q 122 567 135 564 q 65 603 83 583 q 46 644 46 624 q 73 693 46 669 q 150 732 100 717 q 228 747 174 739 q 356 761 282 754 q 512 772 429 768 q 674 776 594 776 q 824 771 754 776 q 939 752 893 765 q 994 715 985 739 q 999 696 999 707 q 982 645 999 672 q 943 594 965 618 q 929 588 936 588 q 921 596 921 588 q 926 607 921 601 q 957 682 964 646 q 928 715 954 701 q 865 736 903 728 q 783 749 826 744 q 703 753 740 753 q 622 746 647 753 q 581 717 610 743 q 515 652 551 690 q 441 572 478 614 q 374 496 404 531 q 328 443 343 461 q 455 455 393 450 q 585 460 517 460 q 653 458 618 460 q 728 453 689 457 q 750 443 750 451 q 740 433 750 438 q 724 429 731 429 q 685 430 706 429 q 643 431 665 431 q 521 428 585 431 q 400 419 457 425 q 303 407 343 414 q 223 277 260 347 q 171 142 186 207 q 163 81 163 108 q 187 1 163 29 q 251 -39 211 -28 q 339 -50 292 -50 q 482 -37 400 -50 q 648 8 564 -24 q 796 90 732 39 q 838 131 819 108 q 872 176 857 153 q 879 182 876 182 q 883 175 883 182 q 879 161 883 168 q 849 115 865 139 q 813 72 832 92 q 676 -21 751 13 q 519 -67 600 -54 q 360 -79 438 -79 m 821 857 q 790 872 815 857 q 738 904 765 886 q 694 931 710 922 q 667 948 685 938 q 650 967 650 958 l 650 968 q 657 981 650 976 q 674 985 664 985 q 686 981 681 985 q 697 971 692 976 q 733 942 710 961 q 778 905 756 924 q 810 876 800 886 q 818 868 813 874 q 824 860 824 863 q 821 857 824 857 z "},"Ẻ":{"ha":839,"x_min":46,"x_max":999,"o":"m 360 -79 q 240 -67 296 -79 q 149 -22 183 -56 q 114 72 114 11 q 117 108 114 89 q 125 147 119 126 q 165 249 139 196 q 226 358 192 303 q 381 562 288 460 q 568 751 474 664 q 419 742 494 750 q 281 725 343 735 q 181 703 218 715 q 103 671 133 689 q 74 633 74 653 q 132 582 74 608 q 135 576 135 581 q 122 567 135 564 q 65 603 83 583 q 46 644 46 624 q 73 693 46 669 q 150 732 100 717 q 228 747 174 739 q 356 761 282 754 q 512 772 429 768 q 674 776 594 776 q 824 771 754 776 q 939 752 893 765 q 994 715 985 739 q 999 696 999 707 q 982 645 999 672 q 943 594 965 618 q 929 588 936 588 q 921 596 921 588 q 926 607 921 601 q 957 682 964 646 q 928 715 954 701 q 865 736 903 728 q 783 749 826 744 q 703 753 740 753 q 622 746 647 753 q 581 717 610 743 q 515 652 551 690 q 441 572 478 614 q 374 496 404 531 q 328 443 343 461 q 455 455 393 450 q 585 460 517 460 q 653 458 618 460 q 728 453 689 457 q 750 443 750 451 q 740 433 750 438 q 724 429 731 429 q 685 430 706 429 q 643 431 665 431 q 521 428 585 431 q 400 419 457 425 q 303 407 343 414 q 223 277 260 347 q 171 142 186 207 q 163 81 163 108 q 187 1 163 29 q 251 -39 211 -28 q 339 -50 292 -50 q 482 -37 400 -50 q 648 8 564 -24 q 796 90 732 39 q 838 131 819 108 q 872 176 857 153 q 879 182 876 182 q 883 175 883 182 q 879 161 883 168 q 849 115 865 139 q 813 72 832 92 q 676 -21 751 13 q 519 -67 600 -54 q 360 -79 438 -79 m 800 843 q 793 849 793 843 q 800 861 793 851 q 813 874 807 868 q 822 885 818 879 q 856 936 851 913 q 856 941 856 939 q 857 944 857 943 q 825 967 857 967 q 793 957 808 967 q 769 940 778 947 q 761 942 760 933 q 790 981 767 965 q 851 997 814 997 q 883 983 874 997 q 893 954 893 969 q 843 874 893 910 q 826 863 838 871 q 807 849 815 856 q 800 843 799 843 z "},"Ȇ":{"ha":839,"x_min":46,"x_max":999,"o":"m 833 946 q 926 879 926 946 q 926 869 926 874 q 925 861 925 864 q 917 842 922 847 q 908 838 913 838 q 894 863 897 838 q 878 901 892 888 q 817 914 865 914 q 738 899 769 914 q 686 864 706 883 q 674 849 678 856 q 665 843 669 843 q 663 853 658 843 q 692 891 668 869 q 752 929 715 913 q 833 946 789 946 m 360 -79 q 240 -67 296 -79 q 149 -22 183 -56 q 114 72 114 11 q 117 108 114 89 q 125 147 119 126 q 165 249 139 196 q 226 358 192 303 q 381 562 288 460 q 568 751 474 664 q 419 742 494 750 q 281 725 343 735 q 181 703 218 715 q 103 671 133 689 q 74 633 74 653 q 132 582 74 608 q 135 576 135 581 q 122 567 135 564 q 65 603 83 583 q 46 644 46 624 q 73 693 46 669 q 150 732 100 717 q 228 747 174 739 q 356 761 282 754 q 512 772 429 768 q 674 776 594 776 q 824 771 754 776 q 939 752 893 765 q 994 715 985 739 q 999 696 999 707 q 982 645 999 672 q 943 594 965 618 q 929 588 936 588 q 921 596 921 588 q 926 607 921 601 q 957 682 964 646 q 928 715 954 701 q 865 736 903 728 q 783 749 826 744 q 703 753 740 753 q 622 746 647 753 q 581 717 610 743 q 515 652 551 690 q 441 572 478 614 q 374 496 404 531 q 328 443 343 461 q 455 455 393 450 q 585 460 517 460 q 653 458 618 460 q 728 453 689 457 q 750 443 750 451 q 740 433 750 438 q 724 429 731 429 q 685 430 706 429 q 643 431 665 431 q 521 428 585 431 q 400 419 457 425 q 303 407 343 414 q 223 277 260 347 q 171 142 186 207 q 163 81 163 108 q 187 1 163 29 q 251 -39 211 -28 q 339 -50 292 -50 q 482 -37 400 -50 q 648 8 564 -24 q 796 90 732 39 q 838 131 819 108 q 872 176 857 153 q 879 182 876 182 q 883 175 883 182 q 879 161 883 168 q 849 115 865 139 q 813 72 832 92 q 676 -21 751 13 q 519 -67 600 -54 q 360 -79 438 -79 z "},"Ē":{"ha":839,"x_min":46,"x_max":999,"o":"m 360 -79 q 240 -67 296 -79 q 149 -22 183 -56 q 114 72 114 11 q 117 108 114 89 q 125 147 119 126 q 165 249 139 196 q 226 358 192 303 q 381 562 288 460 q 568 751 474 664 q 419 742 494 750 q 281 725 343 735 q 181 703 218 715 q 103 671 133 689 q 74 633 74 653 q 132 582 74 608 q 135 576 135 581 q 122 567 135 564 q 65 603 83 583 q 46 644 46 624 q 73 693 46 669 q 150 732 100 717 q 228 747 174 739 q 356 761 282 754 q 512 772 429 768 q 674 776 594 776 q 824 771 754 776 q 939 752 893 765 q 994 715 985 739 q 999 696 999 707 q 982 645 999 672 q 943 594 965 618 q 929 588 936 588 q 921 596 921 588 q 926 607 921 601 q 957 682 964 646 q 928 715 954 701 q 865 736 903 728 q 783 749 826 744 q 703 753 740 753 q 622 746 647 753 q 581 717 610 743 q 515 652 551 690 q 441 572 478 614 q 374 496 404 531 q 328 443 343 461 q 455 455 393 450 q 585 460 517 460 q 653 458 618 460 q 728 453 689 457 q 750 443 750 451 q 740 433 750 438 q 724 429 731 429 q 685 430 706 429 q 643 431 665 431 q 521 428 585 431 q 400 419 457 425 q 303 407 343 414 q 223 277 260 347 q 171 142 186 207 q 163 81 163 108 q 187 1 163 29 q 251 -39 211 -28 q 339 -50 292 -50 q 482 -37 400 -50 q 648 8 564 -24 q 796 90 732 39 q 838 131 819 108 q 872 176 857 153 q 879 182 876 182 q 883 175 883 182 q 879 161 883 168 q 849 115 865 139 q 813 72 832 92 q 676 -21 751 13 q 519 -67 600 -54 q 360 -79 438 -79 m 681 865 q 670 873 675 865 q 665 886 665 881 l 667 888 q 705 893 679 892 q 756 895 731 894 q 794 896 782 896 q 833 894 808 896 q 882 892 857 893 q 921 888 907 890 q 933 881 933 886 q 914 874 933 875 q 864 870 896 872 q 796 867 832 868 q 728 866 760 867 q 681 865 697 865 z "},"Ŋ":{"ha":888,"x_min":54,"x_max":901,"o":"m 185 -453 q 103 -419 136 -453 q 71 -304 71 -385 q 84 -228 71 -268 q 120 -153 97 -187 q 169 -99 143 -118 q 175 -96 175 -96 q 179 -101 179 -96 q 172 -118 179 -111 q 120 -200 138 -151 q 103 -297 103 -249 q 128 -401 103 -369 q 189 -432 153 -432 q 266 -408 225 -432 q 342 -349 307 -383 q 451 -217 397 -293 q 553 -60 506 -140 q 638 88 601 21 q 563 29 600 50 q 492 8 526 8 q 409 46 439 8 q 367 146 379 83 q 356 281 356 208 q 371 486 356 383 q 384 565 376 522 q 401 649 392 608 q 418 717 411 689 q 309 565 364 646 q 206 399 254 483 q 125 236 158 315 q 98 155 111 201 q 85 74 85 108 q 90 35 85 46 q 103 24 96 24 q 121 32 110 24 q 133 48 126 38 q 140 58 139 58 q 146 50 146 58 q 133 10 149 26 q 99 -6 118 -6 q 68 11 82 -6 q 54 67 54 28 q 74 176 54 113 q 126 313 93 239 q 201 461 160 386 q 281 601 240 533 q 355 715 322 668 q 401 768 388 761 q 417 772 408 772 q 439 767 428 772 q 444 769 442 771 q 447 761 447 767 q 447 754 451 758 q 447 745 447 750 q 446 733 447 740 q 424 638 442 710 q 399 475 407 565 q 394 410 396 443 q 392 344 392 376 q 403 197 392 265 q 443 85 415 128 q 517 43 471 43 q 589 79 550 43 q 667 172 628 115 q 739 295 706 229 q 794 419 772 361 q 817 497 806 449 q 835 598 828 544 q 843 696 843 651 q 839 744 843 724 q 822 783 833 772 q 794 793 811 793 q 778 790 788 793 q 757 785 768 788 q 742 782 753 783 q 738 790 732 781 q 772 810 746 803 q 814 818 799 818 q 881 782 861 818 q 901 689 901 746 q 879 542 901 625 q 821 374 857 460 l 764 250 q 688 98 732 182 q 592 -72 644 14 q 481 -236 540 -158 q 361 -371 422 -314 q 274 -431 321 -408 q 185 -453 226 -453 z "},"Ę":{"ha":839,"x_min":46,"x_max":999,"o":"m 360 -79 q 240 -67 296 -79 q 149 -22 183 -56 q 114 72 114 11 q 117 108 114 89 q 125 147 119 126 q 165 249 139 196 q 226 358 192 303 q 381 562 288 460 q 568 751 474 664 q 419 742 494 750 q 281 725 343 735 q 181 703 218 715 q 103 671 133 689 q 74 633 74 653 q 132 582 74 608 q 135 576 135 581 q 122 567 135 564 q 65 603 83 583 q 46 644 46 624 q 73 693 46 669 q 150 732 100 717 q 228 747 174 739 q 356 761 282 754 q 512 772 429 768 q 674 776 594 776 q 824 771 754 776 q 939 752 893 765 q 994 715 985 739 q 999 696 999 707 q 982 645 999 672 q 943 594 965 618 q 929 588 936 588 q 921 596 921 588 q 926 607 921 601 q 957 682 964 646 q 928 715 954 701 q 865 736 903 728 q 783 749 826 744 q 703 753 740 753 q 622 746 647 753 q 581 717 610 743 q 515 652 551 690 q 441 572 478 614 q 374 496 404 531 q 328 443 343 461 q 455 455 393 450 q 585 460 517 460 q 653 458 618 460 q 728 453 689 457 q 750 443 750 451 q 740 433 750 438 q 724 429 731 429 q 685 430 706 429 q 643 431 665 431 q 521 428 585 431 q 400 419 457 425 q 303 407 343 414 q 223 277 260 347 q 171 142 186 207 q 163 81 163 108 q 187 1 163 29 q 251 -39 211 -28 q 339 -50 292 -50 q 482 -37 400 -50 q 648 8 564 -24 q 796 90 732 39 q 838 131 819 108 q 872 176 857 153 q 879 182 876 182 q 883 175 883 182 q 879 161 883 168 q 849 115 865 139 q 813 72 832 92 q 676 -21 751 13 q 519 -67 600 -54 q 360 -79 438 -79 m 639 -185 q 599 -173 619 -185 q 585 -121 579 -161 q 603 -72 589 -97 q 637 -26 618 -46 q 672 -7 656 -7 l 678 -10 q 640 -54 660 -26 q 619 -118 619 -82 q 630 -144 619 -136 q 656 -153 640 -153 q 743 -132 699 -153 q 749 -139 749 -129 q 728 -160 747 -149 q 684 -178 708 -171 q 639 -185 660 -185 z "},"Ð":{"ha":990,"x_min":13,"x_max":985,"o":"m 372 -56 q 292 -51 331 -56 q 222 -36 254 -46 q 142 13 167 -18 q 118 85 118 44 q 134 162 118 121 q 178 247 150 203 q 137 246 156 246 q 103 246 118 246 q 89 256 94 246 q 83 272 83 267 l 85 274 q 139 279 104 278 q 201 282 174 281 q 319 425 251 353 q 458 561 388 497 q 590 673 529 625 q 686 743 651 721 q 658 754 672 750 q 628 764 643 758 q 478 792 557 783 q 326 800 399 800 q 300 799 313 800 q 275 799 288 799 q 127 775 179 794 q 65 732 75 756 q 63 718 63 724 q 90 677 63 694 q 149 650 117 660 q 196 639 181 640 q 202 631 203 638 q 194 624 201 624 q 151 633 181 626 q 89 651 121 639 q 35 681 57 664 q 13 721 13 699 q 17 738 13 729 q 88 792 31 769 q 251 819 146 815 q 275 820 263 819 q 300 821 288 821 q 475 811 383 821 q 647 778 567 801 q 711 757 679 769 q 790 785 746 774 q 868 797 833 797 q 900 794 886 797 q 919 781 914 790 q 892 788 910 788 q 827 777 867 788 q 743 744 788 767 l 742 743 q 925 592 865 686 q 985 394 985 497 q 929 201 985 296 q 764 44 874 107 q 573 -30 678 -4 q 372 -56 468 -56 m 924 774 q 923 774 924 774 q 922 776 922 775 l 919 781 q 924 774 924 779 m 379 -37 q 567 -10 468 -37 q 746 72 665 18 q 888 225 842 138 q 935 401 935 313 q 881 588 935 500 q 718 729 826 676 q 625 659 683 706 q 499 551 567 613 q 367 419 432 489 q 254 282 303 350 q 317 279 283 281 q 364 272 350 278 q 379 264 379 267 q 354 254 379 256 q 299 251 332 253 q 231 249 267 250 q 185 162 203 203 q 168 85 168 121 q 185 27 168 53 q 239 -14 201 1 q 303 -32 267 -26 q 379 -37 339 -37 z "},"Ẽ":{"ha":839,"x_min":46,"x_max":999,"o":"m 360 -79 q 240 -67 296 -79 q 149 -22 183 -56 q 114 72 114 11 q 117 108 114 89 q 125 147 119 126 q 165 249 139 196 q 226 358 192 303 q 381 562 288 460 q 568 751 474 664 q 419 742 494 750 q 281 725 343 735 q 181 703 218 715 q 103 671 133 689 q 74 633 74 653 q 132 582 74 608 q 135 576 135 581 q 122 567 135 564 q 65 603 83 583 q 46 644 46 624 q 73 693 46 669 q 150 732 100 717 q 228 747 174 739 q 356 761 282 754 q 512 772 429 768 q 674 776 594 776 q 824 771 754 776 q 939 752 893 765 q 994 715 985 739 q 999 696 999 707 q 982 645 999 672 q 943 594 965 618 q 929 588 936 588 q 921 596 921 588 q 926 607 921 601 q 957 682 964 646 q 928 715 954 701 q 865 736 903 728 q 783 749 826 744 q 703 753 740 753 q 622 746 647 753 q 581 717 610 743 q 515 652 551 690 q 441 572 478 614 q 374 496 404 531 q 328 443 343 461 q 455 455 393 450 q 585 460 517 460 q 653 458 618 460 q 728 453 689 457 q 750 443 750 451 q 740 433 750 438 q 724 429 731 429 q 685 430 706 429 q 643 431 665 431 q 521 428 585 431 q 400 419 457 425 q 303 407 343 414 q 223 277 260 347 q 171 142 186 207 q 163 81 163 108 q 187 1 163 29 q 251 -39 211 -28 q 339 -50 292 -50 q 482 -37 400 -50 q 648 8 564 -24 q 796 90 732 39 q 838 131 819 108 q 872 176 857 153 q 879 182 876 182 q 883 175 883 182 q 879 161 883 168 q 849 115 865 139 q 813 72 832 92 q 676 -21 751 13 q 519 -67 600 -54 q 360 -79 438 -79 m 688 860 q 685 869 681 860 q 698 891 689 876 q 720 918 707 906 q 749 931 733 931 q 794 922 768 931 q 848 905 819 914 q 903 896 876 896 q 932 911 921 896 q 947 928 943 926 q 949 913 956 928 q 925 877 940 893 q 894 861 910 861 q 846 870 874 861 q 791 888 818 879 q 744 897 764 897 q 719 888 731 897 q 699 869 707 879 q 688 860 692 860 z "},"F":{"ha":674,"x_min":46,"x_max":999,"o":"m 225 -85 q 172 -67 193 -85 q 140 -22 151 -49 q 126 64 126 14 q 136 158 126 110 q 158 240 146 206 q 246 428 190 335 q 367 603 301 521 q 493 749 433 686 q 313 731 399 743 q 181 703 228 718 q 103 671 133 689 q 74 633 74 653 q 132 582 74 608 q 135 576 135 581 q 122 567 135 564 q 65 603 83 583 q 46 644 46 624 q 73 693 46 669 q 150 732 100 717 q 228 747 174 739 q 359 761 283 754 q 517 772 435 768 q 535 790 526 782 q 551 806 543 799 q 567 813 558 813 q 583 794 583 813 q 575 775 583 786 q 626 776 601 776 q 676 776 651 776 q 826 771 757 776 q 940 752 894 765 q 994 715 986 739 q 999 696 999 707 q 982 645 999 672 q 943 594 965 618 q 929 588 936 588 q 921 596 921 588 q 926 607 921 601 q 957 682 964 646 q 922 718 953 704 q 843 740 890 732 q 743 750 796 747 q 642 753 690 753 q 592 753 615 753 q 551 751 569 753 q 426 616 494 696 q 300 443 358 536 q 422 455 361 450 q 547 460 482 460 q 618 458 582 460 q 693 453 654 457 q 715 443 715 451 q 706 433 715 438 q 689 429 696 429 q 651 430 671 429 q 611 431 632 431 q 493 428 554 431 q 376 420 432 425 q 279 408 321 415 q 186 206 218 308 q 170 135 176 171 q 164 64 164 99 q 172 -14 164 24 q 201 -56 179 -40 q 242 -67 222 -72 l 247 -65 q 258 -74 258 -65 q 243 -83 258 -82 q 233 -85 238 -85 q 225 -85 229 -85 z "},"G":{"ha":1018,"x_min":38,"x_max":1046,"o":"m 336 -54 q 149 -17 231 -54 q 44 104 68 19 q 39 133 40 118 q 38 163 38 147 q 78 320 38 236 q 196 487 118 404 q 388 637 274 569 q 649 742 501 704 q 724 756 676 749 q 825 763 772 763 q 919 755 874 763 q 997 728 965 747 q 1035 694 1024 713 q 1046 653 1046 675 q 1036 608 1046 631 q 1010 560 1026 585 q 986 530 999 543 q 961 510 974 517 q 956 508 960 508 q 943 522 943 508 q 951 536 943 532 q 993 576 979 550 q 1007 628 1007 601 q 997 669 1007 650 q 967 701 988 689 q 891 728 936 721 q 800 735 846 735 q 712 730 753 735 q 649 718 671 725 q 408 619 513 682 q 231 478 303 556 q 123 322 160 401 q 86 175 86 243 q 97 106 86 139 q 197 8 121 40 q 369 -24 272 -24 q 416 -22 393 -24 q 463 -17 439 -19 q 558 5 500 -11 q 678 48 615 21 q 795 110 740 75 q 885 189 850 146 q 919 282 919 232 q 878 350 919 325 q 750 375 836 375 q 723 374 738 375 q 693 372 708 374 q 586 356 638 368 q 499 324 535 344 q 450 272 463 304 q 439 261 446 261 q 427 269 433 261 q 421 286 421 276 q 422 297 421 293 q 476 353 435 332 q 574 385 517 374 q 690 401 631 397 q 740 404 715 404 q 786 404 764 404 q 853 403 822 404 q 904 399 883 401 q 941 396 917 399 q 990 389 965 393 q 1024 379 1014 385 q 1035 364 1035 372 q 1030 356 1035 358 q 1017 357 1025 353 q 983 364 1010 361 q 938 368 957 367 q 968 304 968 347 q 943 221 968 263 q 854 122 911 167 q 729 44 797 78 q 592 -11 661 11 q 465 -43 522 -33 q 400 -51 432 -49 q 336 -54 368 -54 z "},"Ğ":{"ha":1018,"x_min":38,"x_max":1082,"o":"m 336 -54 q 149 -17 231 -54 q 44 104 68 19 q 39 133 40 118 q 38 163 38 147 q 78 320 38 236 q 196 487 118 404 q 388 637 274 569 q 649 742 501 704 q 724 756 676 749 q 825 763 772 763 q 919 755 874 763 q 997 728 965 747 q 1035 694 1024 713 q 1046 653 1046 675 q 1036 608 1046 631 q 1010 560 1026 585 q 986 530 999 543 q 961 510 974 517 q 956 508 960 508 q 943 522 943 508 q 951 536 943 532 q 993 576 979 550 q 1007 628 1007 601 q 997 669 1007 650 q 967 701 988 689 q 891 728 936 721 q 800 735 846 735 q 712 730 753 735 q 649 718 671 725 q 408 619 513 682 q 231 478 303 556 q 123 322 160 401 q 86 175 86 243 q 97 106 86 139 q 197 8 121 40 q 369 -24 272 -24 q 416 -22 393 -24 q 463 -17 439 -19 q 558 5 500 -11 q 678 48 615 21 q 795 110 740 75 q 885 189 850 146 q 919 282 919 232 q 878 350 919 325 q 750 375 836 375 q 723 374 738 375 q 693 372 708 374 q 586 356 638 368 q 499 324 535 344 q 450 272 463 304 q 439 261 446 261 q 427 269 433 261 q 421 286 421 276 q 422 297 421 293 q 476 353 435 332 q 574 385 517 374 q 690 401 631 397 q 740 404 715 404 q 786 404 764 404 q 853 403 822 404 q 904 399 883 401 q 941 396 917 399 q 990 389 965 393 q 1024 379 1014 385 q 1035 364 1035 372 q 1030 356 1035 358 q 1017 357 1025 353 q 983 364 1010 361 q 938 368 957 367 q 968 304 968 347 q 943 221 968 263 q 854 122 911 167 q 729 44 797 78 q 592 -11 661 11 q 465 -43 522 -33 q 400 -51 432 -49 q 336 -54 368 -54 m 906 846 q 813 913 813 846 q 813 924 813 919 q 814 931 814 929 q 822 950 817 946 q 831 954 826 954 q 844 929 842 954 q 861 891 847 904 q 922 878 875 878 q 1002 893 971 878 q 1053 928 1033 908 q 1065 942 1061 936 q 1074 949 1069 949 q 1076 939 1082 949 q 1047 901 1071 924 q 988 863 1024 879 q 906 846 951 846 z "},"Ǧ":{"ha":1018,"x_min":38,"x_max":1079,"o":"m 1079 943 q 1079 940 1079 943 q 1071 931 1078 938 q 1058 922 1064 925 q 999 889 1036 908 q 938 854 961 869 q 918 844 929 849 q 900 839 907 839 q 888 843 893 839 q 878 853 883 847 q 842 889 863 868 q 814 924 822 910 q 809 932 813 926 q 807 940 806 938 q 813 943 807 943 q 840 930 818 944 q 884 899 861 915 q 914 875 907 882 q 950 892 925 881 q 1003 915 975 903 q 1053 935 1032 926 q 1079 943 1075 943 m 336 -54 q 149 -17 231 -54 q 44 104 68 19 q 39 133 40 118 q 38 163 38 147 q 78 320 38 236 q 196 487 118 404 q 388 637 274 569 q 649 742 501 704 q 724 756 676 749 q 825 763 772 763 q 919 755 874 763 q 997 728 965 747 q 1035 694 1024 713 q 1046 653 1046 675 q 1036 608 1046 631 q 1010 560 1026 585 q 986 530 999 543 q 961 510 974 517 q 956 508 960 508 q 943 522 943 508 q 951 536 943 532 q 993 576 979 550 q 1007 628 1007 601 q 997 669 1007 650 q 967 701 988 689 q 891 728 936 721 q 800 735 846 735 q 712 730 753 735 q 649 718 671 725 q 408 619 513 682 q 231 478 303 556 q 123 322 160 401 q 86 175 86 243 q 97 106 86 139 q 197 8 121 40 q 369 -24 272 -24 q 416 -22 393 -24 q 463 -17 439 -19 q 558 5 500 -11 q 678 48 615 21 q 795 110 740 75 q 885 189 850 146 q 919 282 919 232 q 878 350 919 325 q 750 375 836 375 q 723 374 738 375 q 693 372 708 374 q 586 356 638 368 q 499 324 535 344 q 450 272 463 304 q 439 261 446 261 q 427 269 433 261 q 421 286 421 276 q 422 297 421 293 q 476 353 435 332 q 574 385 517 374 q 690 401 631 397 q 740 404 715 404 q 786 404 764 404 q 853 403 822 404 q 904 399 883 401 q 941 396 917 399 q 990 389 965 393 q 1024 379 1014 385 q 1035 364 1035 372 q 1030 356 1035 358 q 1017 357 1025 353 q 983 364 1010 361 q 938 368 957 367 q 968 304 968 347 q 943 221 968 263 q 854 122 911 167 q 729 44 797 78 q 592 -11 661 11 q 465 -43 522 -33 q 400 -51 432 -49 q 336 -54 368 -54 z "},"Ĝ":{"ha":1018,"x_min":38,"x_max":1046,"o":"m 336 -54 q 149 -17 231 -54 q 44 104 68 19 q 39 133 40 118 q 38 163 38 147 q 78 320 38 236 q 196 487 118 404 q 388 637 274 569 q 649 742 501 704 q 724 756 676 749 q 825 763 772 763 q 919 755 874 763 q 997 728 965 747 q 1035 694 1024 713 q 1046 653 1046 675 q 1036 608 1046 631 q 1010 560 1026 585 q 986 530 999 543 q 961 510 974 517 q 956 508 960 508 q 943 522 943 508 q 951 536 943 532 q 993 576 979 550 q 1007 628 1007 601 q 997 669 1007 650 q 967 701 988 689 q 891 728 936 721 q 800 735 846 735 q 712 730 753 735 q 649 718 671 725 q 408 619 513 682 q 231 478 303 556 q 123 322 160 401 q 86 175 86 243 q 97 106 86 139 q 197 8 121 40 q 369 -24 272 -24 q 416 -22 393 -24 q 463 -17 439 -19 q 558 5 500 -11 q 678 48 615 21 q 795 110 740 75 q 885 189 850 146 q 919 282 919 232 q 878 350 919 325 q 750 375 836 375 q 723 374 738 375 q 693 372 708 374 q 586 356 638 368 q 499 324 535 344 q 450 272 463 304 q 439 261 446 261 q 427 269 433 261 q 421 286 421 276 q 422 297 421 293 q 476 353 435 332 q 574 385 517 374 q 690 401 631 397 q 740 404 715 404 q 786 404 764 404 q 853 403 822 404 q 904 399 883 401 q 941 396 917 399 q 990 389 965 393 q 1024 379 1014 385 q 1035 364 1035 372 q 1030 356 1035 358 q 1017 357 1025 353 q 983 364 1010 361 q 938 368 957 367 q 968 304 968 347 q 943 221 968 263 q 854 122 911 167 q 729 44 797 78 q 592 -11 661 11 q 465 -43 522 -33 q 400 -51 432 -49 q 336 -54 368 -54 m 765 839 q 765 842 765 839 q 774 851 767 844 q 786 860 781 857 q 847 893 810 874 q 907 928 883 913 q 926 938 915 933 q 944 943 938 943 q 956 939 951 943 q 967 929 961 935 q 1002 893 982 914 q 1031 858 1022 872 q 1036 851 1033 857 q 1038 842 1039 844 q 1032 839 1038 839 q 1006 853 1028 839 q 961 883 983 867 q 931 907 939 900 q 894 890 919 901 q 841 867 869 879 q 791 847 813 856 q 765 839 769 839 z "},"Ģ":{"ha":1018,"x_min":38,"x_max":1046,"o":"m 336 -54 q 149 -17 231 -54 q 44 104 68 19 q 39 133 40 118 q 38 163 38 147 q 78 320 38 236 q 196 487 118 404 q 388 637 274 569 q 649 742 501 704 q 724 756 676 749 q 825 763 772 763 q 919 755 874 763 q 997 728 965 747 q 1035 694 1024 713 q 1046 653 1046 675 q 1036 608 1046 631 q 1010 560 1026 585 q 986 530 999 543 q 961 510 974 517 q 956 508 960 508 q 943 522 943 508 q 951 536 943 532 q 993 576 979 550 q 1007 628 1007 601 q 997 669 1007 650 q 967 701 988 689 q 891 728 936 721 q 800 735 846 735 q 712 730 753 735 q 649 718 671 725 q 408 619 513 682 q 231 478 303 556 q 123 322 160 401 q 86 175 86 243 q 97 106 86 139 q 197 8 121 40 q 369 -24 272 -24 q 416 -22 393 -24 q 463 -17 439 -19 q 558 5 500 -11 q 678 48 615 21 q 795 110 740 75 q 885 189 850 146 q 919 282 919 232 q 878 350 919 325 q 750 375 836 375 q 723 374 738 375 q 693 372 708 374 q 586 356 638 368 q 499 324 535 344 q 450 272 463 304 q 439 261 446 261 q 427 269 433 261 q 421 286 421 276 q 422 297 421 293 q 476 353 435 332 q 574 385 517 374 q 690 401 631 397 q 740 404 715 404 q 786 404 764 404 q 853 403 822 404 q 904 399 883 401 q 941 396 917 399 q 990 389 965 393 q 1024 379 1014 385 q 1035 364 1035 372 q 1030 356 1035 358 q 1017 357 1025 353 q 983 364 1010 361 q 938 368 957 367 q 968 304 968 347 q 943 221 968 263 q 854 122 911 167 q 729 44 797 78 q 592 -11 661 11 q 465 -43 522 -33 q 400 -51 432 -49 q 336 -54 368 -54 m 354 -114 q 381 -140 381 -114 q 356 -206 381 -175 q 310 -257 331 -236 q 295 -272 306 -260 q 274 -292 285 -283 q 271 -293 272 -293 q 266 -289 268 -293 q 265 -281 264 -285 q 282 -264 268 -276 q 307 -237 296 -251 q 339 -169 339 -199 q 333 -152 339 -160 q 326 -136 326 -144 q 333 -122 326 -129 q 354 -114 340 -114 z "},"Ġ":{"ha":1018,"x_min":38,"x_max":1046,"o":"m 336 -54 q 149 -17 231 -54 q 44 104 68 19 q 39 133 40 118 q 38 163 38 147 q 78 320 38 236 q 196 487 118 404 q 388 637 274 569 q 649 742 501 704 q 724 756 676 749 q 825 763 772 763 q 919 755 874 763 q 997 728 965 747 q 1035 694 1024 713 q 1046 653 1046 675 q 1036 608 1046 631 q 1010 560 1026 585 q 986 530 999 543 q 961 510 974 517 q 956 508 960 508 q 943 522 943 508 q 951 536 943 532 q 993 576 979 550 q 1007 628 1007 601 q 997 669 1007 650 q 967 701 988 689 q 891 728 936 721 q 800 735 846 735 q 712 730 753 735 q 649 718 671 725 q 408 619 513 682 q 231 478 303 556 q 123 322 160 401 q 86 175 86 243 q 97 106 86 139 q 197 8 121 40 q 369 -24 272 -24 q 416 -22 393 -24 q 463 -17 439 -19 q 558 5 500 -11 q 678 48 615 21 q 795 110 740 75 q 885 189 850 146 q 919 282 919 232 q 878 350 919 325 q 750 375 836 375 q 723 374 738 375 q 693 372 708 374 q 586 356 638 368 q 499 324 535 344 q 450 272 463 304 q 439 261 446 261 q 427 269 433 261 q 421 286 421 276 q 422 297 421 293 q 476 353 435 332 q 574 385 517 374 q 690 401 631 397 q 740 404 715 404 q 786 404 764 404 q 853 403 822 404 q 904 399 883 401 q 941 396 917 399 q 990 389 965 393 q 1024 379 1014 385 q 1035 364 1035 372 q 1030 356 1035 358 q 1017 357 1025 353 q 983 364 1010 361 q 938 368 957 367 q 968 304 968 347 q 943 221 968 263 q 854 122 911 167 q 729 44 797 78 q 592 -11 661 11 q 465 -43 522 -33 q 400 -51 432 -49 q 336 -54 368 -54 m 899 849 q 883 860 889 849 q 876 881 876 872 q 890 903 876 892 q 919 922 903 914 q 944 929 935 929 q 951 924 951 929 q 949 910 951 918 q 938 890 946 901 q 926 865 931 881 q 899 849 921 849 z "},"ẞ":{"ha":814,"x_min":-312,"x_max":772,"o":"m -203 -215 q -310 -162 -264 -215 q -312 -153 -312 -157 q -297 -140 -312 -140 q -287 -145 -293 -140 q -275 -157 -281 -150 q -247 -178 -264 -167 q -199 -189 -231 -189 q -126 -171 -167 -189 q -37 -106 -85 -153 q 61 25 11 -60 q 129 172 100 89 q 185 344 158 256 q 245 514 213 432 q 324 660 278 596 q 436 760 369 725 q 517 791 476 781 q 593 801 557 801 q 731 765 690 801 q 772 676 772 729 q 756 599 772 642 q 704 519 740 556 q 638 467 676 493 q 560 419 600 440 q 489 385 521 399 q 551 358 517 376 q 617 315 585 340 q 672 260 650 290 q 696 199 694 231 q 665 111 700 154 q 574 33 631 68 q 453 -22 518 -1 q 329 -43 388 -43 q 265 -35 294 -43 q 206 5 225 -21 q 186 57 186 31 q 193 78 186 68 q 200 71 200 89 q 223 27 200 44 q 281 0 246 10 q 308 -5 294 -3 q 336 -7 322 -7 q 447 12 390 -7 q 550 63 503 31 q 625 133 597 94 q 650 214 653 172 q 622 275 649 247 q 558 322 594 303 q 488 353 521 342 q 439 364 454 364 q 422 375 422 364 q 440 389 422 388 q 522 424 478 404 q 608 474 565 443 q 686 557 651 506 q 724 674 724 614 q 693 752 724 719 q 597 785 663 785 q 524 773 563 785 q 446 733 486 761 q 358 631 397 697 q 287 483 319 565 q 223 312 254 400 q 158 142 192 224 q 83 0 125 61 q -67 -162 7 -110 q -203 -215 -142 -215 z "},"H":{"ha":1240,"x_min":6,"x_max":1258,"o":"m 96 -90 q 31 -73 57 -90 q 6 -12 6 -56 q 40 87 6 32 q 138 190 74 142 q 279 267 200 238 q 447 312 358 296 q 621 333 535 328 q 721 536 679 431 q 772 735 763 642 q 722 751 751 746 q 664 756 693 756 q 614 757 635 757 q 589 757 593 757 q 448 740 517 751 q 342 713 379 728 q 286 683 307 699 q 265 649 265 667 q 307 601 265 625 q 310 596 310 600 q 307 589 310 592 q 301 588 304 586 q 247 658 247 618 q 321 739 247 711 q 392 756 342 747 q 508 771 443 765 q 633 776 572 776 q 762 766 707 776 q 824 728 817 756 l 824 724 q 822 712 824 718 q 818 700 821 706 q 760 519 800 613 q 664 335 721 425 q 692 336 678 336 q 718 336 706 336 q 786 335 754 336 q 849 331 818 333 q 909 325 879 329 q 965 315 939 321 q 969 328 967 322 q 972 339 971 333 q 1031 489 997 413 q 1099 633 1065 565 q 1158 749 1132 701 q 1196 813 1185 797 q 1217 828 1203 824 q 1242 833 1231 833 q 1254 831 1250 833 q 1254 822 1258 828 q 1203 740 1235 794 q 1136 613 1172 685 q 1067 463 1100 542 q 1010 306 1033 383 q 1119 274 1075 292 q 1171 242 1163 256 q 1172 238 1172 240 q 1165 230 1172 232 q 1154 233 1157 228 q 1108 259 1149 244 q 1004 286 1068 274 q 984 202 992 243 q 976 125 976 161 q 997 32 976 69 q 1065 -17 1018 -6 q 1078 -19 1072 -18 q 1092 -19 1085 -19 q 1133 -10 1111 -19 q 1174 21 1154 -1 q 1181 24 1175 24 q 1192 19 1188 24 q 1192 11 1196 15 q 1144 -25 1169 -14 q 1093 -36 1119 -36 q 1061 -32 1078 -36 q 965 35 993 -17 q 938 154 938 86 q 958 294 938 224 q 893 303 928 299 q 822 308 858 307 q 783 311 804 311 q 740 311 763 311 q 695 311 718 311 q 647 308 672 311 q 553 185 604 244 q 443 74 503 126 q 374 18 410 44 q 303 -29 339 -8 q 250 -53 285 -39 q 174 -79 215 -68 q 96 -90 133 -90 m 135 -61 q 288 -15 210 -61 q 433 94 365 31 q 604 306 525 181 q 435 283 521 300 q 274 235 349 265 q 149 158 200 206 q 83 79 110 124 q 56 -1 56 35 q 74 -44 56 -28 q 135 -61 92 -61 z "},"Ħ":{"ha":1240,"x_min":6,"x_max":1258,"o":"m 96 -90 q 31 -73 57 -90 q 6 -12 6 -56 q 40 87 6 32 q 138 190 74 142 q 279 267 200 238 q 447 312 358 296 q 621 333 535 328 q 688 458 657 394 q 739 586 718 522 q 652 584 689 585 q 599 582 615 583 q 597 583 597 582 q 597 583 597 583 q 605 601 597 589 q 617 613 613 613 l 747 613 q 772 735 765 678 q 722 751 751 746 q 664 756 693 756 q 614 757 635 757 q 589 757 593 757 q 448 740 517 751 q 342 713 379 728 q 286 683 307 699 q 265 649 265 667 q 307 601 265 625 q 310 596 310 600 q 307 589 310 592 q 301 588 304 586 q 247 658 247 618 q 321 739 247 711 q 392 756 342 747 q 508 771 443 765 q 633 776 572 776 q 762 766 707 776 q 824 728 817 756 l 824 724 q 822 712 824 718 q 818 700 821 706 q 794 613 808 657 l 1089 613 q 1154 741 1124 686 q 1196 813 1185 796 q 1217 828 1203 824 q 1242 833 1231 833 q 1254 831 1250 833 q 1254 822 1258 828 q 1203 739 1235 794 q 1135 613 1171 683 l 1200 613 q 1206 604 1206 613 q 1200 594 1206 594 q 1176 594 1196 594 q 1125 593 1156 593 q 1062 452 1093 526 q 1010 306 1031 378 q 1119 274 1075 292 q 1171 242 1163 256 q 1172 238 1172 240 q 1165 230 1172 232 q 1154 233 1157 228 q 1108 259 1149 244 q 1004 286 1068 274 q 984 202 992 243 q 976 125 976 161 q 997 32 976 69 q 1065 -17 1018 -6 q 1078 -19 1072 -18 q 1092 -19 1085 -19 q 1133 -10 1111 -19 q 1174 21 1154 -1 q 1181 24 1175 24 q 1192 19 1188 24 q 1192 11 1196 15 q 1144 -25 1169 -14 q 1093 -36 1119 -36 q 1061 -32 1078 -36 q 965 35 993 -17 q 938 154 938 86 q 958 294 938 224 q 893 303 928 299 q 822 308 858 307 q 783 311 804 311 q 740 311 763 311 q 695 311 718 311 q 647 308 672 311 q 553 185 604 244 q 443 74 503 126 q 374 18 410 44 q 303 -29 339 -8 q 250 -53 285 -39 q 174 -79 215 -68 q 96 -90 133 -90 m 849 331 q 909 325 879 329 q 965 315 939 321 q 969 328 967 322 q 972 339 971 333 q 1022 467 994 401 q 1079 592 1050 532 q 938 590 1017 592 q 786 588 858 589 q 734 461 765 525 q 664 335 703 397 q 692 336 678 336 q 718 336 706 336 q 786 335 754 336 q 849 331 818 333 m 135 -61 q 288 -15 210 -61 q 433 94 365 31 q 604 306 525 181 q 435 283 521 300 q 274 235 349 265 q 149 158 200 206 q 83 79 110 124 q 56 -1 56 35 q 74 -44 56 -28 q 135 -61 92 -61 z "},"Ĥ":{"ha":1240,"x_min":6,"x_max":1258,"o":"m 96 -90 q 31 -73 57 -90 q 6 -12 6 -56 q 40 87 6 32 q 138 190 74 142 q 279 267 200 238 q 447 312 358 296 q 621 333 535 328 q 721 536 679 431 q 772 735 763 642 q 722 751 751 746 q 664 756 693 756 q 614 757 635 757 q 589 757 593 757 q 448 740 517 751 q 342 713 379 728 q 286 683 307 699 q 265 649 265 667 q 307 601 265 625 q 310 596 310 600 q 307 589 310 592 q 301 588 304 586 q 247 658 247 618 q 321 739 247 711 q 392 756 342 747 q 508 771 443 765 q 633 776 572 776 q 762 766 707 776 q 824 728 817 756 l 824 724 q 822 712 824 718 q 818 700 821 706 q 760 519 800 613 q 664 335 721 425 q 692 336 678 336 q 718 336 706 336 q 786 335 754 336 q 849 331 818 333 q 909 325 879 329 q 965 315 939 321 q 969 328 967 322 q 972 339 971 333 q 1031 489 997 413 q 1099 633 1065 565 q 1158 749 1132 701 q 1196 813 1185 797 q 1217 828 1203 824 q 1242 833 1231 833 q 1254 831 1250 833 q 1254 822 1258 828 q 1203 740 1235 794 q 1136 613 1172 685 q 1067 463 1100 542 q 1010 306 1033 383 q 1119 274 1075 292 q 1171 242 1163 256 q 1172 238 1172 240 q 1165 230 1172 232 q 1154 233 1157 228 q 1108 259 1149 244 q 1004 286 1068 274 q 984 202 992 243 q 976 125 976 161 q 997 32 976 69 q 1065 -17 1018 -6 q 1078 -19 1072 -18 q 1092 -19 1085 -19 q 1133 -10 1111 -19 q 1174 21 1154 -1 q 1181 24 1175 24 q 1192 19 1188 24 q 1192 11 1196 15 q 1144 -25 1169 -14 q 1093 -36 1119 -36 q 1061 -32 1078 -36 q 965 35 993 -17 q 938 154 938 86 q 958 294 938 224 q 893 303 928 299 q 822 308 858 307 q 783 311 804 311 q 740 311 763 311 q 695 311 718 311 q 647 308 672 311 q 553 185 604 244 q 443 74 503 126 q 374 18 410 44 q 303 -29 339 -8 q 250 -53 285 -39 q 174 -79 215 -68 q 96 -90 133 -90 m 135 -61 q 288 -15 210 -61 q 433 94 365 31 q 604 306 525 181 q 435 283 521 300 q 274 235 349 265 q 149 158 200 206 q 83 79 110 124 q 56 -1 56 35 q 74 -44 56 -28 q 135 -61 92 -61 m 886 882 q 886 885 886 882 q 894 894 888 888 q 907 903 901 900 q 967 936 931 917 q 1028 971 1004 956 q 1047 981 1036 976 q 1065 986 1058 986 q 1077 982 1072 986 q 1088 972 1082 978 q 1123 936 1103 957 q 1151 901 1143 915 q 1157 894 1154 900 q 1158 885 1160 888 q 1153 882 1158 882 q 1126 896 1149 882 q 1082 926 1104 910 q 1051 950 1060 943 q 1015 933 1040 944 q 962 910 990 922 q 912 890 933 899 q 886 882 890 882 z "},"I":{"ha":564,"x_min":24,"x_max":785,"o":"m 31 -32 q 24 -19 24 -25 q 34 -6 24 -12 q 56 4 44 0 q 139 13 97 8 q 222 19 181 17 q 210 65 210 36 q 237 181 210 113 q 308 327 264 249 q 408 485 353 406 q 517 635 463 565 q 619 757 572 706 q 578 758 596 758 q 557 757 560 757 q 415 740 483 751 q 310 713 346 728 q 254 683 275 699 q 233 649 233 667 q 275 601 233 625 q 278 596 278 599 q 275 589 278 592 q 268 588 272 586 q 214 658 214 619 q 289 739 214 710 q 358 757 310 749 q 470 771 407 765 q 593 776 533 776 q 615 776 604 776 q 636 775 626 775 q 652 792 644 783 q 667 806 660 800 q 683 814 675 814 q 699 796 699 814 q 688 772 699 783 q 753 757 728 767 q 785 728 779 747 l 785 722 q 749 733 785 719 q 668 753 714 747 q 566 635 622 706 q 453 483 510 564 q 349 321 396 401 q 272 173 301 240 q 243 64 243 106 q 253 29 243 44 q 258 21 256 26 l 300 21 q 375 19 336 21 q 456 14 414 18 q 478 4 478 13 q 468 -6 478 -1 q 451 -10 458 -10 q 413 -9 433 -10 q 371 -8 393 -8 q 249 -11 313 -8 q 128 -19 185 -14 q 31 -32 71 -25 z "},"Í":{"ha":564,"x_min":24,"x_max":826,"o":"m 31 -32 q 24 -19 24 -25 q 34 -6 24 -12 q 56 4 44 0 q 139 13 97 8 q 222 19 181 17 q 210 65 210 36 q 237 181 210 113 q 308 327 264 249 q 408 485 353 406 q 517 635 463 565 q 619 757 572 706 q 578 758 596 758 q 557 757 560 757 q 415 740 483 751 q 310 713 346 728 q 254 683 275 699 q 233 649 233 667 q 275 601 233 625 q 278 596 278 599 q 275 589 278 592 q 268 588 272 586 q 214 658 214 619 q 289 739 214 710 q 358 757 310 749 q 470 771 407 765 q 593 776 533 776 q 615 776 604 776 q 636 775 626 775 q 652 792 644 783 q 667 806 660 800 q 683 814 675 814 q 699 796 699 814 q 688 772 699 783 q 753 757 728 767 q 785 728 779 747 l 785 722 q 749 733 785 719 q 668 753 714 747 q 566 635 622 706 q 453 483 510 564 q 349 321 396 401 q 272 173 301 240 q 243 64 243 106 q 253 29 243 44 q 258 21 256 26 l 300 21 q 375 19 336 21 q 456 14 414 18 q 478 4 478 13 q 468 -6 478 -1 q 451 -10 458 -10 q 413 -9 433 -10 q 371 -8 393 -8 q 249 -11 313 -8 q 128 -19 185 -14 q 31 -32 71 -25 m 654 868 q 651 871 651 868 q 657 879 651 874 q 665 888 663 885 q 697 916 675 897 q 743 953 719 935 q 778 982 767 972 q 790 992 785 988 q 801 996 796 996 q 819 992 811 996 q 825 978 826 988 q 808 959 825 969 q 781 942 792 949 q 738 915 765 933 q 685 883 710 897 q 654 868 661 868 z "},"Ĭ":{"ha":564,"x_min":24,"x_max":882,"o":"m 31 -32 q 24 -19 24 -25 q 34 -6 24 -12 q 56 4 44 0 q 139 13 97 8 q 222 19 181 17 q 210 65 210 36 q 237 181 210 113 q 308 327 264 249 q 408 485 353 406 q 517 635 463 565 q 619 757 572 706 q 578 758 596 758 q 557 757 560 757 q 415 740 483 751 q 310 713 346 728 q 254 683 275 699 q 233 649 233 667 q 275 601 233 625 q 278 596 278 599 q 275 589 278 592 q 268 588 272 586 q 214 658 214 619 q 289 739 214 710 q 358 757 310 749 q 470 771 407 765 q 593 776 533 776 q 615 776 604 776 q 636 775 626 775 q 652 792 644 783 q 667 806 660 800 q 683 814 675 814 q 699 796 699 814 q 688 772 699 783 q 753 757 728 767 q 785 728 779 747 l 785 722 q 749 733 785 719 q 668 753 714 747 q 566 635 622 706 q 453 483 510 564 q 349 321 396 401 q 272 173 301 240 q 243 64 243 106 q 253 29 243 44 q 258 21 256 26 l 300 21 q 375 19 336 21 q 456 14 414 18 q 478 4 478 13 q 468 -6 478 -1 q 451 -10 458 -10 q 413 -9 433 -10 q 371 -8 393 -8 q 249 -11 313 -8 q 128 -19 185 -14 q 31 -32 71 -25 m 706 869 q 613 936 613 869 q 613 948 613 943 q 614 954 614 953 q 622 974 617 969 q 631 978 626 978 q 644 953 642 978 q 661 915 647 928 q 722 901 675 901 q 802 917 771 901 q 853 951 833 932 q 865 966 861 960 q 874 972 869 972 q 876 963 882 972 q 847 925 871 947 q 788 886 824 903 q 706 869 751 869 z "},"Ǐ":{"ha":564,"x_min":24,"x_max":879,"o":"m 879 967 q 879 964 879 967 q 871 955 878 961 q 858 946 864 949 q 799 913 836 932 q 738 878 761 893 q 718 867 729 872 q 700 863 707 863 q 688 867 693 863 q 678 876 683 871 q 642 913 663 892 q 614 947 622 933 q 609 956 613 950 q 607 964 606 961 q 613 967 607 967 q 640 953 618 968 q 684 922 661 939 q 714 899 707 906 q 750 915 725 904 q 803 938 775 926 q 853 958 832 950 q 879 967 875 967 m 31 -32 q 24 -19 24 -25 q 34 -6 24 -12 q 56 4 44 0 q 139 13 97 8 q 222 19 181 17 q 210 65 210 36 q 237 181 210 113 q 308 327 264 249 q 408 485 353 406 q 517 635 463 565 q 619 757 572 706 q 578 758 596 758 q 557 757 560 757 q 415 740 483 751 q 310 713 346 728 q 254 683 275 699 q 233 649 233 667 q 275 601 233 625 q 278 596 278 599 q 275 589 278 592 q 268 588 272 586 q 214 658 214 619 q 289 739 214 710 q 358 757 310 749 q 470 771 407 765 q 593 776 533 776 q 615 776 604 776 q 636 775 626 775 q 652 792 644 783 q 667 806 660 800 q 683 814 675 814 q 699 796 699 814 q 688 772 699 783 q 753 757 728 767 q 785 728 779 747 l 785 722 q 749 733 785 719 q 668 753 714 747 q 566 635 622 706 q 453 483 510 564 q 349 321 396 401 q 272 173 301 240 q 243 64 243 106 q 253 29 243 44 q 258 21 256 26 l 300 21 q 375 19 336 21 q 456 14 414 18 q 478 4 478 13 q 468 -6 478 -1 q 451 -10 458 -10 q 413 -9 433 -10 q 371 -8 393 -8 q 249 -11 313 -8 q 128 -19 185 -14 q 31 -32 71 -25 z "},"Î":{"ha":564,"x_min":24,"x_max":839,"o":"m 31 -32 q 24 -19 24 -25 q 34 -6 24 -12 q 56 4 44 0 q 139 13 97 8 q 222 19 181 17 q 210 65 210 36 q 237 181 210 113 q 308 327 264 249 q 408 485 353 406 q 517 635 463 565 q 619 757 572 706 q 578 758 596 758 q 557 757 560 757 q 415 740 483 751 q 310 713 346 728 q 254 683 275 699 q 233 649 233 667 q 275 601 233 625 q 278 596 278 599 q 275 589 278 592 q 268 588 272 586 q 214 658 214 619 q 289 739 214 710 q 358 757 310 749 q 470 771 407 765 q 593 776 533 776 q 615 776 604 776 q 636 775 626 775 q 652 792 644 783 q 667 806 660 800 q 683 814 675 814 q 699 796 699 814 q 688 772 699 783 q 753 757 728 767 q 785 728 779 747 l 785 722 q 749 733 785 719 q 668 753 714 747 q 566 635 622 706 q 453 483 510 564 q 349 321 396 401 q 272 173 301 240 q 243 64 243 106 q 253 29 243 44 q 258 21 256 26 l 300 21 q 375 19 336 21 q 456 14 414 18 q 478 4 478 13 q 468 -6 478 -1 q 451 -10 458 -10 q 413 -9 433 -10 q 371 -8 393 -8 q 249 -11 313 -8 q 128 -19 185 -14 q 31 -32 71 -25 m 565 863 q 565 865 565 863 q 574 874 567 868 q 586 883 581 881 q 647 917 610 897 q 707 951 683 936 q 726 962 715 957 q 744 967 738 967 q 756 963 751 967 q 767 953 761 958 q 802 917 782 938 q 831 882 822 896 q 836 874 833 881 q 838 865 839 868 q 832 863 838 863 q 806 876 828 863 q 761 907 783 890 q 731 931 739 924 q 694 914 719 925 q 641 891 669 903 q 591 871 613 879 q 565 863 569 863 z "},"Ȉ":{"ha":564,"x_min":24,"x_max":785,"o":"m 718 869 q 694 882 713 869 q 656 910 676 894 q 622 936 636 926 q 597 957 613 944 q 583 978 582 969 l 583 979 q 592 991 585 988 q 608 993 599 994 q 620 987 615 992 q 631 976 625 982 q 672 933 646 960 q 710 890 697 906 q 717 881 713 886 q 722 872 722 875 q 718 869 721 869 m 656 868 q 631 878 650 868 q 589 901 611 888 q 551 922 567 914 q 524 940 542 929 q 507 958 507 950 l 507 960 q 514 972 507 968 q 531 976 521 976 q 543 972 538 976 q 554 963 549 968 q 601 925 572 949 q 644 888 631 901 q 653 879 647 885 q 658 871 658 874 q 656 868 658 868 m 31 -32 q 24 -19 24 -25 q 34 -6 24 -12 q 56 4 44 0 q 139 13 97 8 q 222 19 181 17 q 210 65 210 36 q 237 181 210 113 q 308 327 264 249 q 408 485 353 406 q 517 635 463 565 q 619 757 572 706 q 578 758 596 758 q 557 757 560 757 q 415 740 483 751 q 310 713 346 728 q 254 683 275 699 q 233 649 233 667 q 275 601 233 625 q 278 596 278 599 q 275 589 278 592 q 268 588 272 586 q 214 658 214 619 q 289 739 214 710 q 358 757 310 749 q 470 771 407 765 q 593 776 533 776 q 615 776 604 776 q 636 775 626 775 q 652 792 644 783 q 667 806 660 800 q 683 814 675 814 q 699 796 699 814 q 688 772 699 783 q 753 757 728 767 q 785 728 779 747 l 785 722 q 749 733 785 719 q 668 753 714 747 q 566 635 622 706 q 453 483 510 564 q 349 321 396 401 q 272 173 301 240 q 243 64 243 106 q 253 29 243 44 q 258 21 256 26 l 300 21 q 375 19 336 21 q 456 14 414 18 q 478 4 478 13 q 468 -6 478 -1 q 451 -10 458 -10 q 413 -9 433 -10 q 371 -8 393 -8 q 249 -11 313 -8 q 128 -19 185 -14 q 31 -32 71 -25 z "},"Ï":{"ha":564,"x_min":24,"x_max":813,"o":"m 31 -32 q 24 -19 24 -25 q 34 -6 24 -12 q 56 4 44 0 q 139 13 97 8 q 222 19 181 17 q 210 65 210 36 q 237 181 210 113 q 308 327 264 249 q 408 485 353 406 q 517 635 463 565 q 619 757 572 706 q 578 758 596 758 q 557 757 560 757 q 415 740 483 751 q 310 713 346 728 q 254 683 275 699 q 233 649 233 667 q 275 601 233 625 q 278 596 278 599 q 275 589 278 592 q 268 588 272 586 q 214 658 214 619 q 289 739 214 710 q 358 757 310 749 q 470 771 407 765 q 593 776 533 776 q 615 776 604 776 q 636 775 626 775 q 652 792 644 783 q 667 806 660 800 q 683 814 675 814 q 699 796 699 814 q 688 772 699 783 q 753 757 728 767 q 785 728 779 747 l 785 722 q 749 733 785 719 q 668 753 714 747 q 566 635 622 706 q 453 483 510 564 q 349 321 396 401 q 272 173 301 240 q 243 64 243 106 q 253 29 243 44 q 258 21 256 26 l 300 21 q 375 19 336 21 q 456 14 414 18 q 478 4 478 13 q 468 -6 478 -1 q 451 -10 458 -10 q 413 -9 433 -10 q 371 -8 393 -8 q 249 -11 313 -8 q 128 -19 185 -14 q 31 -32 71 -25 m 763 868 q 749 878 753 868 q 746 897 746 889 q 769 928 746 913 q 806 943 792 943 q 813 938 813 943 q 808 922 813 932 q 797 904 803 913 q 788 881 792 894 q 763 868 785 868 m 638 868 q 624 878 628 868 q 621 897 621 889 q 644 928 621 913 q 681 943 667 943 q 688 938 688 943 q 683 922 688 932 q 672 904 678 913 q 663 881 667 894 q 638 868 660 868 z "},"İ":{"ha":564,"x_min":24,"x_max":785,"o":"m 31 -32 q 24 -19 24 -25 q 34 -6 24 -12 q 56 4 44 0 q 139 13 97 8 q 222 19 181 17 q 210 65 210 36 q 237 181 210 113 q 308 327 264 249 q 408 485 353 406 q 517 635 463 565 q 619 757 572 706 q 578 758 596 758 q 557 757 560 757 q 415 740 483 751 q 310 713 346 728 q 254 683 275 699 q 233 649 233 667 q 275 601 233 625 q 278 596 278 599 q 275 589 278 592 q 268 588 272 586 q 214 658 214 619 q 289 739 214 710 q 358 757 310 749 q 470 771 407 765 q 593 776 533 776 q 615 776 604 776 q 636 775 626 775 q 652 792 644 783 q 667 806 660 800 q 683 814 675 814 q 699 796 699 814 q 688 772 699 783 q 753 757 728 767 q 785 728 779 747 l 785 722 q 749 733 785 719 q 668 753 714 747 q 566 635 622 706 q 453 483 510 564 q 349 321 396 401 q 272 173 301 240 q 243 64 243 106 q 253 29 243 44 q 258 21 256 26 l 300 21 q 375 19 336 21 q 456 14 414 18 q 478 4 478 13 q 468 -6 478 -1 q 451 -10 458 -10 q 413 -9 433 -10 q 371 -8 393 -8 q 249 -11 313 -8 q 128 -19 185 -14 q 31 -32 71 -25 m 699 872 q 683 884 689 872 q 676 904 676 896 q 690 926 676 915 q 719 945 703 938 q 744 953 735 953 q 751 947 751 953 q 749 933 751 942 q 738 914 746 925 q 726 888 731 904 q 699 872 721 872 z "},"Ị":{"ha":564,"x_min":24,"x_max":785,"o":"m 31 -32 q 24 -19 24 -25 q 34 -6 24 -12 q 56 4 44 0 q 139 13 97 8 q 222 19 181 17 q 210 65 210 36 q 237 181 210 113 q 308 327 264 249 q 408 485 353 406 q 517 635 463 565 q 619 757 572 706 q 578 758 596 758 q 557 757 560 757 q 415 740 483 751 q 310 713 346 728 q 254 683 275 699 q 233 649 233 667 q 275 601 233 625 q 278 596 278 599 q 275 589 278 592 q 268 588 272 586 q 214 658 214 619 q 289 739 214 710 q 358 757 310 749 q 470 771 407 765 q 593 776 533 776 q 615 776 604 776 q 636 775 626 775 q 652 792 644 783 q 667 806 660 800 q 683 814 675 814 q 699 796 699 814 q 688 772 699 783 q 753 757 728 767 q 785 728 779 747 l 785 722 q 749 733 785 719 q 668 753 714 747 q 566 635 622 706 q 453 483 510 564 q 349 321 396 401 q 272 173 301 240 q 243 64 243 106 q 253 29 243 44 q 258 21 256 26 l 300 21 q 375 19 336 21 q 456 14 414 18 q 478 4 478 13 q 468 -6 478 -1 q 451 -10 458 -10 q 413 -9 433 -10 q 371 -8 393 -8 q 249 -11 313 -8 q 128 -19 185 -14 q 31 -32 71 -25 m 182 -165 q 166 -153 172 -165 q 160 -133 160 -142 q 173 -111 160 -122 q 202 -92 186 -100 q 228 -85 218 -85 q 235 -90 235 -85 q 232 -104 235 -96 q 221 -124 229 -112 q 209 -149 214 -133 q 182 -165 204 -165 z "},"Ì":{"ha":564,"x_min":24,"x_max":785,"o":"m 31 -32 q 24 -19 24 -25 q 34 -6 24 -12 q 56 4 44 0 q 139 13 97 8 q 222 19 181 17 q 210 65 210 36 q 237 181 210 113 q 308 327 264 249 q 408 485 353 406 q 517 635 463 565 q 619 757 572 706 q 578 758 596 758 q 557 757 560 757 q 415 740 483 751 q 310 713 346 728 q 254 683 275 699 q 233 649 233 667 q 275 601 233 625 q 278 596 278 599 q 275 589 278 592 q 268 588 272 586 q 214 658 214 619 q 289 739 214 710 q 358 757 310 749 q 470 771 407 765 q 593 776 533 776 q 615 776 604 776 q 636 775 626 775 q 652 792 644 783 q 667 806 660 800 q 683 814 675 814 q 699 796 699 814 q 688 772 699 783 q 753 757 728 767 q 785 728 779 747 l 785 722 q 749 733 785 719 q 668 753 714 747 q 566 635 622 706 q 453 483 510 564 q 349 321 396 401 q 272 173 301 240 q 243 64 243 106 q 253 29 243 44 q 258 21 256 26 l 300 21 q 375 19 336 21 q 456 14 414 18 q 478 4 478 13 q 468 -6 478 -1 q 451 -10 458 -10 q 413 -9 433 -10 q 371 -8 393 -8 q 249 -11 313 -8 q 128 -19 185 -14 q 31 -32 71 -25 m 719 868 q 689 883 714 868 q 636 915 664 897 q 593 942 608 933 q 566 959 583 949 q 549 978 549 969 l 549 979 q 556 992 549 988 q 572 996 563 996 q 585 992 579 996 q 596 982 590 988 q 631 953 608 972 q 676 916 654 935 q 708 888 699 897 q 717 879 711 885 q 722 871 722 874 q 719 868 722 868 z "},"Ỉ":{"ha":564,"x_min":24,"x_max":792,"o":"m 31 -32 q 24 -19 24 -25 q 34 -6 24 -12 q 56 4 44 0 q 139 13 97 8 q 222 19 181 17 q 210 65 210 36 q 237 181 210 113 q 308 327 264 249 q 408 485 353 406 q 517 635 463 565 q 619 757 572 706 q 578 758 596 758 q 557 757 560 757 q 415 740 483 751 q 310 713 346 728 q 254 683 275 699 q 233 649 233 667 q 275 601 233 625 q 278 596 278 599 q 275 589 278 592 q 268 588 272 586 q 214 658 214 619 q 289 739 214 710 q 358 757 310 749 q 470 771 407 765 q 593 776 533 776 q 615 776 604 776 q 636 775 626 775 q 652 792 644 783 q 667 806 660 800 q 683 814 675 814 q 699 796 699 814 q 688 772 699 783 q 753 757 728 767 q 785 728 779 747 l 785 722 q 749 733 785 719 q 668 753 714 747 q 566 635 622 706 q 453 483 510 564 q 349 321 396 401 q 272 173 301 240 q 243 64 243 106 q 253 29 243 44 q 258 21 256 26 l 300 21 q 375 19 336 21 q 456 14 414 18 q 478 4 478 13 q 468 -6 478 -1 q 451 -10 458 -10 q 413 -9 433 -10 q 371 -8 393 -8 q 249 -11 313 -8 q 128 -19 185 -14 q 31 -32 71 -25 m 699 854 q 692 860 692 854 q 699 872 692 863 q 711 885 706 879 q 721 896 717 890 q 754 947 750 924 q 755 952 754 950 q 756 956 756 954 q 724 978 756 978 q 692 968 707 978 q 667 951 676 958 q 660 953 658 944 q 689 992 665 976 q 750 1008 713 1008 q 782 994 772 1008 q 792 965 792 981 q 742 885 792 921 q 725 874 736 882 q 706 860 714 867 q 699 854 697 854 z "},"Ȋ":{"ha":564,"x_min":24,"x_max":825,"o":"m 732 957 q 825 890 825 957 q 824 880 825 885 q 824 872 824 875 q 816 853 821 858 q 807 849 811 849 q 793 874 796 849 q 777 912 790 899 q 715 925 764 925 q 636 910 668 925 q 585 875 604 894 q 572 860 576 867 q 564 854 568 854 q 561 864 557 854 q 590 902 567 881 q 651 940 614 924 q 732 957 688 957 m 31 -32 q 24 -19 24 -25 q 34 -6 24 -12 q 56 4 44 0 q 139 13 97 8 q 222 19 181 17 q 210 65 210 36 q 237 181 210 113 q 308 327 264 249 q 408 485 353 406 q 517 635 463 565 q 619 757 572 706 q 578 758 596 758 q 557 757 560 757 q 415 740 483 751 q 310 713 346 728 q 254 683 275 699 q 233 649 233 667 q 275 601 233 625 q 278 596 278 599 q 275 589 278 592 q 268 588 272 586 q 214 658 214 619 q 289 739 214 710 q 358 757 310 749 q 470 771 407 765 q 593 776 533 776 q 615 776 604 776 q 636 775 626 775 q 652 792 644 783 q 667 806 660 800 q 683 814 675 814 q 699 796 699 814 q 688 772 699 783 q 753 757 728 767 q 785 728 779 747 l 785 722 q 749 733 785 719 q 668 753 714 747 q 566 635 622 706 q 453 483 510 564 q 349 321 396 401 q 272 173 301 240 q 243 64 243 106 q 253 29 243 44 q 258 21 256 26 l 300 21 q 375 19 336 21 q 456 14 414 18 q 478 4 478 13 q 468 -6 478 -1 q 451 -10 458 -10 q 413 -9 433 -10 q 371 -8 393 -8 q 249 -11 313 -8 q 128 -19 185 -14 q 31 -32 71 -25 z "},"Ī":{"ha":564,"x_min":24,"x_max":832,"o":"m 31 -32 q 24 -19 24 -25 q 34 -6 24 -12 q 56 4 44 0 q 139 13 97 8 q 222 19 181 17 q 210 65 210 36 q 237 181 210 113 q 308 327 264 249 q 408 485 353 406 q 517 635 463 565 q 619 757 572 706 q 578 758 596 758 q 557 757 560 757 q 415 740 483 751 q 310 713 346 728 q 254 683 275 699 q 233 649 233 667 q 275 601 233 625 q 278 596 278 599 q 275 589 278 592 q 268 588 272 586 q 214 658 214 619 q 289 739 214 710 q 358 757 310 749 q 470 771 407 765 q 593 776 533 776 q 615 776 604 776 q 636 775 626 775 q 652 792 644 783 q 667 806 660 800 q 683 814 675 814 q 699 796 699 814 q 688 772 699 783 q 753 757 728 767 q 785 728 779 747 l 785 722 q 749 733 785 719 q 668 753 714 747 q 566 635 622 706 q 453 483 510 564 q 349 321 396 401 q 272 173 301 240 q 243 64 243 106 q 253 29 243 44 q 258 21 256 26 l 300 21 q 375 19 336 21 q 456 14 414 18 q 478 4 478 13 q 468 -6 478 -1 q 451 -10 458 -10 q 413 -9 433 -10 q 371 -8 393 -8 q 249 -11 313 -8 q 128 -19 185 -14 q 31 -32 71 -25 m 579 876 q 569 884 574 876 q 564 897 564 892 l 565 899 q 603 904 578 903 q 655 906 629 906 q 693 907 681 907 q 731 906 707 907 q 781 903 756 904 q 819 899 806 901 q 832 892 832 897 q 813 885 832 886 q 763 881 794 883 q 694 878 731 879 q 627 877 658 878 q 579 876 596 876 z "},"Į":{"ha":564,"x_min":24,"x_max":785,"o":"m 31 -32 q 24 -19 24 -25 q 34 -6 24 -12 q 56 4 44 0 q 139 13 97 8 q 222 19 181 17 q 210 65 210 36 q 237 181 210 113 q 308 327 264 249 q 408 485 353 406 q 517 635 463 565 q 619 757 572 706 q 578 758 596 758 q 557 757 560 757 q 415 740 483 751 q 310 713 346 728 q 254 683 275 699 q 233 649 233 667 q 275 601 233 625 q 278 596 278 599 q 275 589 278 592 q 268 588 272 586 q 214 658 214 619 q 289 739 214 710 q 358 757 310 749 q 470 771 407 765 q 593 776 533 776 q 615 776 604 776 q 636 775 626 775 q 652 792 644 783 q 667 806 660 800 q 683 814 675 814 q 699 796 699 814 q 688 772 699 783 q 753 757 728 767 q 785 728 779 747 l 785 722 q 749 733 785 719 q 668 753 714 747 q 566 635 622 706 q 453 483 510 564 q 349 321 396 401 q 272 173 301 240 q 243 64 243 106 q 253 29 243 44 q 258 21 256 26 l 300 21 q 375 19 336 21 q 456 14 414 18 q 478 4 478 13 q 468 -6 478 -1 q 451 -10 458 -10 q 413 -9 433 -10 q 371 -8 393 -8 q 249 -11 313 -8 q 128 -19 185 -14 q 31 -32 71 -25 m 208 -179 q 169 -167 189 -179 q 154 -115 149 -156 q 173 -66 158 -92 q 206 -21 188 -40 q 242 -1 225 -1 l 247 -4 q 209 -49 229 -21 q 189 -112 189 -76 q 199 -139 189 -131 q 225 -147 210 -147 q 313 -126 268 -147 q 318 -133 318 -124 q 297 -154 317 -143 q 253 -172 278 -165 q 208 -179 229 -179 z "},"Ĩ":{"ha":564,"x_min":24,"x_max":854,"o":"m 31 -32 q 24 -19 24 -25 q 34 -6 24 -12 q 56 4 44 0 q 139 13 97 8 q 222 19 181 17 q 210 65 210 36 q 237 181 210 113 q 308 327 264 249 q 408 485 353 406 q 517 635 463 565 q 619 757 572 706 q 578 758 596 758 q 557 757 560 757 q 415 740 483 751 q 310 713 346 728 q 254 683 275 699 q 233 649 233 667 q 275 601 233 625 q 278 596 278 599 q 275 589 278 592 q 268 588 272 586 q 214 658 214 619 q 289 739 214 710 q 358 757 310 749 q 470 771 407 765 q 593 776 533 776 q 615 776 604 776 q 636 775 626 775 q 652 792 644 783 q 667 806 660 800 q 683 814 675 814 q 699 796 699 814 q 688 772 699 783 q 753 757 728 767 q 785 728 779 747 l 785 722 q 749 733 785 719 q 668 753 714 747 q 566 635 622 706 q 453 483 510 564 q 349 321 396 401 q 272 173 301 240 q 243 64 243 106 q 253 29 243 44 q 258 21 256 26 l 300 21 q 375 19 336 21 q 456 14 414 18 q 478 4 478 13 q 468 -6 478 -1 q 451 -10 458 -10 q 413 -9 433 -10 q 371 -8 393 -8 q 249 -11 313 -8 q 128 -19 185 -14 q 31 -32 71 -25 m 586 871 q 583 881 579 871 q 597 902 588 888 q 619 929 606 917 q 647 942 632 942 q 692 933 667 942 q 747 916 718 925 q 801 907 775 907 q 831 922 819 907 q 846 939 842 938 q 847 924 854 939 q 824 888 839 904 q 793 872 808 872 q 744 881 772 872 q 690 899 717 890 q 643 908 663 908 q 617 899 629 908 q 598 881 606 890 q 586 871 590 871 z "},"J":{"ha":803,"x_min":15,"x_max":997,"o":"m 482 588 q 428 658 428 618 q 501 739 428 711 q 572 756 522 747 q 685 771 622 765 q 810 776 749 776 q 936 766 882 776 q 997 728 990 756 l 997 722 q 993 699 997 711 q 985 688 989 688 q 979 703 981 688 q 946 738 976 726 q 876 753 915 750 q 806 757 838 757 q 769 757 774 757 q 628 740 697 751 q 522 713 560 728 q 467 683 488 699 q 446 649 446 667 q 488 601 446 625 q 490 596 490 600 q 488 589 490 592 q 482 588 485 586 m 121 -94 q 47 -76 78 -94 q 15 -8 15 -57 q 60 105 15 43 q 191 220 106 167 q 396 300 276 274 q 525 319 453 313 q 674 328 597 326 q 768 533 735 432 q 815 710 801 633 q 832 729 818 721 q 860 740 846 738 q 871 733 874 743 q 817 533 856 638 q 715 328 778 429 q 780 327 756 329 q 833 322 804 325 q 847 310 847 322 q 836 300 847 297 q 801 306 825 304 q 750 310 776 308 q 706 311 724 311 q 612 187 664 247 q 497 74 560 126 q 346 -32 425 11 q 289 -58 326 -43 q 207 -83 251 -72 q 121 -94 163 -94 m 163 -62 q 331 -16 247 -62 q 486 94 414 31 q 585 199 540 144 q 664 311 629 254 q 535 303 597 310 q 422 285 472 296 q 275 233 342 267 q 164 161 208 200 q 98 83 125 126 q 71 3 71 39 q 92 -44 71 -26 q 163 -62 114 -62 z "},"Ĵ":{"ha":803,"x_min":15,"x_max":1014,"o":"m 482 588 q 428 658 428 618 q 501 739 428 711 q 572 756 522 747 q 685 771 622 765 q 810 776 749 776 q 936 766 882 776 q 997 728 990 756 l 997 722 q 993 699 997 711 q 985 688 989 688 q 979 703 981 688 q 946 738 976 726 q 876 753 915 750 q 806 757 838 757 q 769 757 774 757 q 628 740 697 751 q 522 713 560 728 q 467 683 488 699 q 446 649 446 667 q 488 601 446 625 q 490 596 490 600 q 488 589 490 592 q 482 588 485 586 m 121 -94 q 47 -76 78 -94 q 15 -8 15 -57 q 60 105 15 43 q 191 220 106 167 q 396 300 276 274 q 525 319 453 313 q 674 328 597 326 q 768 533 735 432 q 815 710 801 633 q 832 729 818 721 q 860 740 846 738 q 871 733 874 743 q 817 533 856 638 q 715 328 778 429 q 780 327 756 329 q 833 322 804 325 q 847 310 847 322 q 836 300 847 297 q 801 306 825 304 q 750 310 776 308 q 706 311 724 311 q 612 187 664 247 q 497 74 560 126 q 346 -32 425 11 q 289 -58 326 -43 q 207 -83 251 -72 q 121 -94 163 -94 m 163 -62 q 331 -16 247 -62 q 486 94 414 31 q 585 199 540 144 q 664 311 629 254 q 535 303 597 310 q 422 285 472 296 q 275 233 342 267 q 164 161 208 200 q 98 83 125 126 q 71 3 71 39 q 92 -44 71 -26 q 163 -62 114 -62 m 740 854 q 740 857 740 854 q 749 866 742 860 q 761 875 756 872 q 822 908 785 889 q 882 943 858 928 q 901 953 890 949 q 919 958 913 958 q 931 954 926 958 q 942 944 936 950 q 977 908 957 929 q 1006 874 997 888 q 1011 866 1008 872 q 1013 857 1014 860 q 1007 854 1013 854 q 981 868 1003 854 q 936 899 958 882 q 906 922 914 915 q 869 906 894 917 q 816 883 844 894 q 766 863 788 871 q 740 854 744 854 z "},"K":{"ha":864,"x_min":15,"x_max":1224,"o":"m 721 -37 q 693 -33 707 -37 q 667 -22 679 -28 q 592 50 631 -1 q 520 167 554 101 q 462 297 486 232 q 428 408 438 361 l 426 407 q 349 340 392 376 q 282 268 306 303 q 227 152 247 206 q 207 64 207 99 q 217 29 207 40 q 225 8 225 17 q 208 0 225 -6 q 174 65 174 15 q 198 172 174 110 q 263 308 222 235 q 353 458 303 382 q 455 603 403 533 q 554 726 507 672 q 507 747 538 740 q 443 756 476 754 q 386 758 410 758 q 358 757 363 757 q 216 740 285 751 q 111 713 147 728 q 56 683 76 699 q 35 649 35 667 q 76 601 35 625 q 79 596 79 599 q 76 589 79 592 q 69 588 74 586 q 28 622 42 603 q 15 660 15 642 q 35 704 15 683 q 89 739 54 725 q 161 756 111 747 q 274 771 211 765 q 399 776 338 776 q 525 766 471 776 q 586 728 579 756 l 586 725 q 581 699 586 713 q 572 689 576 686 l 560 672 q 444 522 504 606 q 335 357 385 439 q 379 393 357 375 q 424 432 401 411 q 431 459 422 449 q 447 469 439 469 q 460 461 456 469 q 608 582 522 519 q 791 699 694 644 q 982 788 888 754 q 1156 822 1076 822 q 1184 821 1171 822 q 1210 817 1197 819 q 1224 803 1224 813 q 1216 789 1224 794 q 1196 785 1208 783 q 1151 789 1175 789 q 992 758 1082 789 q 806 677 901 728 q 621 565 710 626 q 465 444 532 504 q 490 367 472 417 q 531 258 507 317 q 583 143 556 199 q 637 47 610 88 q 689 -8 664 6 q 721 -17 704 -17 q 769 1 749 -17 q 805 41 790 18 q 828 79 819 64 q 839 86 832 86 q 846 79 846 86 q 844 76 846 76 q 819 28 836 56 q 778 -18 803 1 q 721 -37 754 -37 z "},"Ķ":{"ha":864,"x_min":15,"x_max":1224,"o":"m 721 -37 q 693 -33 707 -37 q 667 -22 679 -28 q 592 50 631 -1 q 520 167 554 101 q 462 297 486 232 q 428 408 438 361 l 426 407 q 349 340 392 376 q 282 268 306 303 q 227 152 247 206 q 207 64 207 99 q 217 29 207 40 q 225 8 225 17 q 208 0 225 -6 q 174 65 174 15 q 198 172 174 110 q 263 308 222 235 q 353 458 303 382 q 455 603 403 533 q 554 726 507 672 q 507 747 538 740 q 443 756 476 754 q 386 758 410 758 q 358 757 363 757 q 216 740 285 751 q 111 713 147 728 q 56 683 76 699 q 35 649 35 667 q 76 601 35 625 q 79 596 79 599 q 76 589 79 592 q 69 588 74 586 q 28 622 42 603 q 15 660 15 642 q 35 704 15 683 q 89 739 54 725 q 161 756 111 747 q 274 771 211 765 q 399 776 338 776 q 525 766 471 776 q 586 728 579 756 l 586 725 q 581 699 586 713 q 572 689 576 686 l 560 672 q 444 522 504 606 q 335 357 385 439 q 379 393 357 375 q 424 432 401 411 q 431 459 422 449 q 447 469 439 469 q 460 461 456 469 q 608 582 522 519 q 791 699 694 644 q 982 788 888 754 q 1156 822 1076 822 q 1184 821 1171 822 q 1210 817 1197 819 q 1224 803 1224 813 q 1216 789 1224 794 q 1196 785 1208 783 q 1151 789 1175 789 q 992 758 1082 789 q 806 677 901 728 q 621 565 710 626 q 465 444 532 504 q 490 367 472 417 q 531 258 507 317 q 583 143 556 199 q 637 47 610 88 q 689 -8 664 6 q 721 -17 704 -17 q 769 1 749 -17 q 805 41 790 18 q 828 79 819 64 q 839 86 832 86 q 846 79 846 86 q 844 76 846 76 q 819 28 836 56 q 778 -18 803 1 q 721 -37 754 -37 m 419 -71 q 446 -97 446 -71 q 421 -162 446 -132 q 375 -214 396 -193 q 360 -228 371 -217 q 339 -249 350 -240 q 336 -250 338 -250 q 331 -246 333 -250 q 331 -237 329 -242 q 347 -221 333 -233 q 372 -194 361 -208 q 404 -126 404 -156 q 398 -109 404 -117 q 392 -93 392 -101 q 399 -78 392 -86 q 419 -71 406 -71 z "},"L":{"ha":921,"x_min":-49,"x_max":876,"o":"m 707 -89 q 611 -77 660 -89 q 524 -50 563 -65 q 392 8 460 -24 q 282 58 325 40 q 244 73 267 65 q 204 86 221 81 q 160 56 188 75 q 101 21 133 36 q 59 5 79 10 q 22 0 39 0 q -30 16 -11 0 q -49 53 -49 32 q -36 85 -49 71 q 19 122 -12 113 q 85 132 50 132 q 203 117 142 132 q 276 206 239 149 q 349 333 313 263 q 425 475 386 403 q 504 607 464 547 q 566 685 532 649 q 641 746 600 722 q 731 769 682 769 q 799 738 783 769 q 803 722 803 728 q 796 714 803 714 q 783 726 790 714 q 756 736 779 736 q 711 729 736 736 q 623 671 668 715 q 536 567 578 626 q 454 440 496 510 q 372 304 413 371 q 296 185 332 238 q 229 107 260 132 q 367 54 297 86 q 505 -6 438 22 q 633 -46 572 -33 q 706 -54 671 -54 q 836 -11 796 -54 q 858 43 858 11 q 840 104 858 72 q 794 152 828 125 q 729 189 761 179 q 725 193 725 189 q 728 199 725 196 q 738 201 732 203 q 808 163 774 192 q 854 113 842 133 q 876 39 876 74 q 826 -54 876 -19 q 707 -89 776 -89 m 18 15 q 69 26 42 15 q 107 43 97 38 q 144 67 126 54 q 179 94 163 79 q 139 103 158 100 q 100 106 119 106 q 41 95 68 106 q -4 58 14 85 q -10 39 -10 53 q -1 21 -10 26 q 18 15 7 15 z "},"Ǉ":{"ha":1724,"x_min":-49,"x_max":1918,"o":"m 707 -89 q 611 -77 660 -89 q 524 -50 563 -65 q 392 8 460 -24 q 282 58 325 40 q 244 73 267 65 q 204 86 221 81 q 160 56 188 75 q 101 21 133 36 q 59 5 79 10 q 22 0 39 0 q -30 16 -11 0 q -49 53 -49 32 q -36 85 -49 71 q 19 122 -12 113 q 85 132 50 132 q 203 117 142 132 q 276 206 239 149 q 349 333 313 263 q 425 475 386 403 q 504 607 464 547 q 566 685 532 649 q 641 746 600 722 q 731 769 682 769 q 799 738 783 769 q 803 722 803 728 q 796 714 803 714 q 783 726 790 714 q 756 736 779 736 q 711 729 736 736 q 623 671 668 715 q 536 567 578 626 q 454 440 496 510 q 372 304 413 371 q 296 185 332 238 q 229 107 260 132 q 367 54 297 86 q 505 -6 438 22 q 633 -46 572 -33 q 706 -54 671 -54 q 836 -11 796 -54 q 858 43 858 11 q 840 104 858 72 q 794 152 828 125 q 729 189 761 179 q 725 193 725 189 q 728 199 725 196 q 738 201 732 203 q 808 163 774 192 q 854 113 842 133 q 876 39 876 74 q 826 -54 876 -19 q 707 -89 776 -89 m 18 15 q 69 26 42 15 q 107 43 97 38 q 144 67 126 54 q 179 94 163 79 q 139 103 158 100 q 100 106 119 106 q 41 95 68 106 q -4 58 14 85 q -10 39 -10 53 q -1 21 -10 26 q 18 15 7 15 m 1403 588 q 1349 658 1349 618 q 1422 739 1349 711 q 1493 756 1443 747 q 1606 771 1543 765 q 1731 776 1669 776 q 1857 766 1803 776 q 1918 728 1911 756 l 1918 722 q 1914 699 1918 711 q 1906 688 1910 688 q 1900 703 1901 688 q 1867 738 1897 726 q 1797 753 1836 750 q 1726 757 1758 757 q 1690 757 1694 757 q 1549 740 1618 751 q 1443 713 1481 728 q 1388 683 1408 699 q 1367 649 1367 667 q 1408 601 1367 625 q 1411 596 1411 600 q 1408 589 1411 592 q 1403 588 1406 586 m 1042 -94 q 967 -76 999 -94 q 936 -8 936 -57 q 981 105 936 43 q 1112 220 1026 167 q 1317 300 1197 274 q 1446 319 1374 313 q 1594 328 1518 326 q 1689 533 1656 432 q 1736 710 1722 633 q 1753 729 1739 721 q 1781 740 1767 738 q 1792 733 1794 743 q 1738 533 1776 638 q 1636 328 1699 429 q 1701 327 1676 329 q 1754 322 1725 325 q 1768 310 1768 322 q 1757 300 1768 297 q 1722 306 1746 304 q 1671 310 1697 308 q 1626 311 1644 311 q 1533 187 1585 247 q 1418 74 1481 126 q 1267 -32 1346 11 q 1210 -58 1247 -43 q 1128 -83 1172 -72 q 1042 -94 1083 -94 m 1083 -62 q 1251 -16 1168 -62 q 1407 94 1335 31 q 1506 199 1461 144 q 1585 311 1550 254 q 1456 303 1518 310 q 1343 285 1393 296 q 1196 233 1263 267 q 1085 161 1129 200 q 1019 83 1046 126 q 992 3 992 39 q 1013 -44 992 -26 q 1083 -62 1035 -62 z "},"Ĺ":{"ha":921,"x_min":-49,"x_max":876,"o":"m 707 -89 q 611 -77 660 -89 q 524 -50 563 -65 q 392 8 460 -24 q 282 58 325 40 q 244 73 267 65 q 204 86 221 81 q 160 56 188 75 q 101 21 133 36 q 59 5 79 10 q 22 0 39 0 q -30 16 -11 0 q -49 53 -49 32 q -36 85 -49 71 q 19 122 -12 113 q 85 132 50 132 q 203 117 142 132 q 276 206 239 149 q 349 333 313 263 q 425 475 386 403 q 504 607 464 547 q 566 685 532 649 q 641 746 600 722 q 731 769 682 769 q 799 738 783 769 q 803 722 803 728 q 796 714 803 714 q 783 726 790 714 q 756 736 779 736 q 711 729 736 736 q 623 671 668 715 q 536 567 578 626 q 454 440 496 510 q 372 304 413 371 q 296 185 332 238 q 229 107 260 132 q 367 54 297 86 q 505 -6 438 22 q 633 -46 572 -33 q 706 -54 671 -54 q 836 -11 796 -54 q 858 43 858 11 q 840 104 858 72 q 794 152 828 125 q 729 189 761 179 q 725 193 725 189 q 728 199 725 196 q 738 201 732 203 q 808 163 774 192 q 854 113 842 133 q 876 39 876 74 q 826 -54 876 -19 q 707 -89 776 -89 m 18 15 q 69 26 42 15 q 107 43 97 38 q 144 67 126 54 q 179 94 163 79 q 139 103 158 100 q 100 106 119 106 q 41 95 68 106 q -4 58 14 85 q -10 39 -10 53 q -1 21 -10 26 q 18 15 7 15 m 696 851 q 693 854 693 851 q 699 863 693 857 q 707 871 704 868 q 739 899 717 881 q 785 937 761 918 q 819 965 808 956 q 832 975 826 971 q 843 979 838 979 q 860 975 853 979 q 867 961 868 971 q 850 942 867 953 q 822 925 833 932 q 779 899 807 917 q 727 866 751 881 q 696 851 703 851 z "},"Ľ":{"ha":921,"x_min":-49,"x_max":969,"o":"m 707 -89 q 611 -77 660 -89 q 524 -50 563 -65 q 392 8 460 -24 q 282 58 325 40 q 244 73 267 65 q 204 86 221 81 q 160 56 188 75 q 101 21 133 36 q 59 5 79 10 q 22 0 39 0 q -30 16 -11 0 q -49 53 -49 32 q -36 85 -49 71 q 19 122 -12 113 q 85 132 50 132 q 203 117 142 132 q 276 206 239 149 q 349 333 313 263 q 425 475 386 403 q 504 607 464 547 q 566 685 532 649 q 641 746 600 722 q 731 769 682 769 q 799 738 783 769 q 803 722 803 728 q 796 714 803 714 q 783 726 790 714 q 756 736 779 736 q 711 729 736 736 q 623 671 668 715 q 536 567 578 626 q 454 440 496 510 q 372 304 413 371 q 296 185 332 238 q 229 107 260 132 q 367 54 297 86 q 505 -6 438 22 q 633 -46 572 -33 q 706 -54 671 -54 q 836 -11 796 -54 q 858 43 858 11 q 840 104 858 72 q 794 152 828 125 q 729 189 761 179 q 725 193 725 189 q 728 199 725 196 q 738 201 732 203 q 808 163 774 192 q 854 113 842 133 q 876 39 876 74 q 826 -54 876 -19 q 707 -89 776 -89 m 18 15 q 69 26 42 15 q 107 43 97 38 q 144 67 126 54 q 179 94 163 79 q 139 103 158 100 q 100 106 119 106 q 41 95 68 106 q -4 58 14 85 q -10 39 -10 53 q -1 21 -10 26 q 18 15 7 15 m 874 589 q 871 592 872 589 q 886 626 871 600 q 915 683 901 651 q 924 738 929 715 q 935 744 926 742 q 956 738 942 744 q 969 724 969 732 q 969 722 969 722 q 968 719 968 722 q 935 661 960 693 q 892 607 911 629 q 884 598 890 604 q 875 589 878 592 l 874 589 z "},"Ļ":{"ha":921,"x_min":-49,"x_max":876,"o":"m 707 -89 q 611 -77 660 -89 q 524 -50 563 -65 q 392 8 460 -24 q 282 58 325 40 q 244 73 267 65 q 204 86 221 81 q 160 56 188 75 q 101 21 133 36 q 59 5 79 10 q 22 0 39 0 q -30 16 -11 0 q -49 53 -49 32 q -36 85 -49 71 q 19 122 -12 113 q 85 132 50 132 q 203 117 142 132 q 276 206 239 149 q 349 333 313 263 q 425 475 386 403 q 504 607 464 547 q 566 685 532 649 q 641 746 600 722 q 731 769 682 769 q 799 738 783 769 q 803 722 803 728 q 796 714 803 714 q 783 726 790 714 q 756 736 779 736 q 711 729 736 736 q 623 671 668 715 q 536 567 578 626 q 454 440 496 510 q 372 304 413 371 q 296 185 332 238 q 229 107 260 132 q 367 54 297 86 q 505 -6 438 22 q 633 -46 572 -33 q 706 -54 671 -54 q 836 -11 796 -54 q 858 43 858 11 q 840 104 858 72 q 794 152 828 125 q 729 189 761 179 q 725 193 725 189 q 728 199 725 196 q 738 201 732 203 q 808 163 774 192 q 854 113 842 133 q 876 39 876 74 q 826 -54 876 -19 q 707 -89 776 -89 m 18 15 q 69 26 42 15 q 107 43 97 38 q 144 67 126 54 q 179 94 163 79 q 139 103 158 100 q 100 106 119 106 q 41 95 68 106 q -4 58 14 85 q -10 39 -10 53 q -1 21 -10 26 q 18 15 7 15 m 428 -112 q 454 -139 454 -112 q 429 -204 454 -174 q 383 -256 404 -235 q 369 -270 379 -258 q 347 -290 358 -282 q 344 -292 346 -292 q 340 -287 342 -292 q 339 -279 338 -283 q 356 -262 342 -275 q 381 -236 369 -250 q 413 -168 413 -197 q 406 -151 413 -158 q 400 -135 400 -143 q 407 -120 400 -128 q 428 -112 414 -112 z "},"Ŀ":{"ha":921,"x_min":-49,"x_max":876,"o":"m 707 -89 q 611 -77 660 -89 q 524 -50 563 -65 q 392 8 460 -24 q 282 58 325 40 q 244 73 267 65 q 204 86 221 81 q 160 56 188 75 q 101 21 133 36 q 59 5 79 10 q 22 0 39 0 q -30 16 -11 0 q -49 53 -49 32 q -36 85 -49 71 q 19 122 -12 113 q 85 132 50 132 q 203 117 142 132 q 276 206 239 149 q 349 333 313 263 q 425 475 386 403 q 504 607 464 547 q 566 685 532 649 q 641 746 600 722 q 731 769 682 769 q 799 738 783 769 q 803 722 803 728 q 796 714 803 714 q 783 726 790 714 q 756 736 779 736 q 711 729 736 736 q 623 671 668 715 q 536 567 578 626 q 454 440 496 510 q 372 304 413 371 q 296 185 332 238 q 229 107 260 132 q 367 54 297 86 q 505 -6 438 22 q 633 -46 572 -33 q 706 -54 671 -54 q 836 -11 796 -54 q 858 43 858 11 q 840 104 858 72 q 794 152 828 125 q 729 189 761 179 q 725 193 725 189 q 728 199 725 196 q 738 201 732 203 q 808 163 774 192 q 854 113 842 133 q 876 39 876 74 q 826 -54 876 -19 q 707 -89 776 -89 m 18 15 q 69 26 42 15 q 107 43 97 38 q 144 67 126 54 q 179 94 163 79 q 139 103 158 100 q 100 106 119 106 q 41 95 68 106 q -4 58 14 85 q -10 39 -10 53 q -1 21 -10 26 q 18 15 7 15 m 757 317 q 742 326 749 317 q 735 344 736 335 l 735 346 q 742 363 735 356 q 751 371 750 369 q 778 389 757 376 q 808 400 800 401 l 808 407 q 813 396 813 399 q 811 392 813 393 q 808 390 810 390 q 804 386 807 389 q 796 374 801 382 q 786 349 790 365 q 778 331 783 339 q 760 317 774 324 l 757 317 z "},"ǈ":{"ha":1143,"x_min":-49,"x_max":1093,"o":"m 707 -89 q 611 -77 660 -89 q 524 -50 563 -65 q 392 8 460 -24 q 282 58 325 40 q 244 73 267 65 q 204 86 221 81 q 160 56 188 75 q 101 21 133 36 q 59 5 79 10 q 22 0 39 0 q -30 16 -11 0 q -49 53 -49 32 q -36 85 -49 71 q 19 122 -12 113 q 85 132 50 132 q 203 117 142 132 q 276 206 239 149 q 349 333 313 263 q 425 475 386 403 q 504 607 464 547 q 566 685 532 649 q 641 746 600 722 q 731 769 682 769 q 799 738 783 769 q 803 722 803 728 q 796 714 803 714 q 783 726 790 714 q 756 736 779 736 q 711 729 736 736 q 623 671 668 715 q 536 567 578 626 q 454 440 496 510 q 372 304 413 371 q 296 185 332 238 q 229 107 260 132 q 367 54 297 86 q 505 -6 438 22 q 633 -46 572 -33 q 706 -54 671 -54 q 836 -11 796 -54 q 858 43 858 11 q 840 104 858 72 q 794 152 828 125 q 729 189 761 179 q 725 193 725 189 q 728 199 725 196 q 738 201 732 203 q 808 163 774 192 q 854 113 842 133 q 876 39 876 74 q 826 -54 876 -19 q 707 -89 776 -89 m 18 15 q 69 26 42 15 q 107 43 97 38 q 144 67 126 54 q 179 94 163 79 q 139 103 158 100 q 100 106 119 106 q 41 95 68 106 q -4 58 14 85 q -10 39 -10 53 q -1 21 -10 26 q 18 15 7 15 m 1050 400 q 1036 405 1043 400 q 1026 424 1029 410 q 1041 446 1025 435 q 1065 461 1057 457 q 1076 465 1072 464 q 1083 467 1081 467 q 1093 457 1093 467 q 1085 431 1093 446 q 1078 415 1078 415 q 1068 405 1076 410 q 1050 400 1060 400 m 738 -393 q 682 -367 699 -393 q 674 -335 674 -351 q 681 -298 674 -317 q 699 -260 688 -279 q 744 -197 718 -228 q 797 -142 771 -167 q 839 -103 824 -117 q 908 -47 868 -79 q 989 7 947 -15 q 994 8 992 8 q 999 4 999 8 q 992 -7 999 -4 q 947 -37 974 -17 q 892 -78 919 -57 q 846 -117 865 -100 q 808 -154 832 -129 q 760 -210 785 -179 q 719 -274 736 -242 q 707 -303 714 -285 q 700 -339 700 -322 q 708 -362 700 -353 q 733 -371 715 -371 q 793 -350 763 -371 q 852 -298 824 -329 q 903 -235 881 -267 q 939 -182 925 -204 q 1014 -5 988 -100 q 1033 176 1040 90 q 1011 249 1029 217 l 1011 250 q 1019 254 1011 254 q 1038 244 1029 254 q 1059 190 1053 222 q 1065 122 1065 158 q 1044 -22 1065 56 q 988 -171 1024 -99 q 895 -304 949 -246 q 786 -383 842 -362 q 738 -393 761 -393 z "},"Ł":{"ha":921,"x_min":-49,"x_max":876,"o":"m 707 -89 q 611 -77 660 -89 q 524 -50 563 -65 q 392 8 460 -24 q 282 58 325 40 q 244 73 267 65 q 204 86 221 81 q 160 56 188 75 q 101 21 133 36 q 59 5 79 10 q 22 0 39 0 q -30 16 -11 0 q -49 53 -49 32 q -36 85 -49 71 q 19 122 -12 113 q 85 132 50 132 q 203 117 142 132 q 267 193 235 144 q 332 301 300 242 q 257 284 294 293 q 182 265 219 275 q 179 267 179 265 q 187 284 179 272 q 200 297 194 296 q 274 316 236 307 q 350 333 311 325 q 426 475 388 403 q 504 607 464 547 q 566 685 532 649 q 641 746 600 722 q 731 769 682 769 q 799 738 783 769 q 803 722 803 728 q 796 714 803 714 q 783 726 790 714 q 756 736 779 736 q 711 729 736 736 q 623 671 668 715 q 536 567 578 626 q 466 459 501 518 q 396 343 431 400 q 503 363 450 354 q 608 378 557 372 l 610 378 q 618 371 618 378 q 608 361 618 363 q 493 338 551 350 q 376 313 435 325 q 299 189 336 244 q 229 107 261 133 q 367 54 297 86 q 505 -6 438 22 q 633 -46 572 -33 q 706 -54 671 -54 q 836 -11 796 -54 q 858 43 858 11 q 840 104 858 72 q 794 152 828 125 q 729 189 761 179 q 725 193 725 189 q 728 199 725 196 q 738 201 732 203 q 808 163 774 192 q 854 113 842 133 q 876 39 876 74 q 826 -54 876 -19 q 707 -89 776 -89 m 18 15 q 69 26 42 15 q 107 43 97 38 q 144 67 126 54 q 179 94 163 79 q 139 103 158 100 q 100 106 119 106 q 41 95 68 106 q -4 58 14 85 q -10 39 -10 53 q -1 21 -10 26 q 18 15 7 15 z "},"M":{"ha":1208,"x_min":15,"x_max":1351,"o":"m 1132 -174 q 1072 -153 1097 -174 q 1032 -100 1047 -133 q 1016 -44 1021 -72 q 1011 11 1011 -17 q 1015 79 1011 46 q 1040 197 1022 132 q 1081 331 1057 263 q 1129 460 1104 399 q 1160 527 1144 494 q 1189 590 1175 560 q 1081 463 1142 532 q 968 336 1021 393 q 822 191 892 251 q 693 131 751 131 q 591 177 626 131 q 542 297 556 224 q 528 454 528 371 q 531 551 528 503 q 538 642 533 599 q 408 442 471 550 q 299 228 344 335 q 267 133 281 188 q 257 44 254 79 q 276 8 263 8 q 293 17 285 8 q 307 33 300 24 q 315 43 314 43 q 319 40 318 43 q 319 36 319 36 q 306 -5 322 13 q 271 -22 290 -22 q 240 -4 254 -22 q 225 53 225 14 q 244 164 225 99 q 299 306 264 229 q 376 460 333 382 q 467 614 421 539 q 544 733 513 689 q 495 749 525 744 q 435 756 465 754 q 384 757 406 757 q 358 757 363 757 q 216 740 285 751 q 111 713 147 728 q 56 683 76 699 q 35 649 35 667 q 76 601 35 625 q 79 596 79 599 q 76 589 79 592 q 69 588 74 586 q 28 622 42 603 q 15 660 15 642 q 35 704 15 683 q 89 739 54 725 q 145 754 107 746 q 233 769 183 763 q 333 781 282 776 q 425 786 383 786 q 556 776 507 786 q 611 743 606 767 l 611 740 q 608 728 611 735 q 603 715 606 722 q 597 680 600 697 q 592 646 594 663 q 580 533 585 592 q 575 417 575 474 q 583 289 575 347 q 612 195 592 231 q 665 160 632 160 q 782 210 710 160 q 926 333 854 260 q 1025 439 975 383 q 1120 547 1075 494 q 1199 640 1165 600 q 1249 701 1232 681 q 1280 738 1264 721 q 1301 758 1296 754 q 1322 756 1310 764 q 1343 735 1335 747 q 1346 714 1351 722 q 1253 574 1294 639 q 1178 444 1211 508 q 1117 308 1144 381 q 1065 144 1089 236 q 1046 0 1046 67 q 1057 -86 1046 -49 q 1091 -139 1068 -121 q 1150 -151 1114 -157 l 1154 -151 q 1169 -161 1169 -151 q 1151 -172 1169 -171 q 1141 -174 1146 -174 q 1132 -174 1136 -174 z "},"N":{"ha":1103,"x_min":40,"x_max":1165,"o":"m 292 -22 q 260 -4 274 -22 q 246 53 246 14 q 265 164 246 99 q 319 306 285 229 q 397 460 354 382 q 478 603 436 531 q 569 739 521 675 q 520 757 550 751 q 460 764 490 763 q 408 765 429 765 q 382 764 386 764 q 241 747 310 758 q 135 721 172 736 q 79 691 100 707 q 58 656 58 675 q 100 608 58 632 q 103 603 103 607 q 100 596 103 599 q 94 594 97 593 q 40 665 40 625 q 114 746 40 718 q 203 772 150 761 q 315 790 256 783 q 428 796 374 796 q 530 788 485 796 q 596 764 575 781 q 615 756 610 771 q 617 717 619 740 q 612 636 614 692 q 610 519 610 581 q 610 459 610 489 q 613 401 611 429 q 632 265 617 333 q 672 142 647 197 q 733 52 697 86 q 814 18 768 18 q 826 19 819 18 q 838 21 832 19 q 917 72 878 29 q 990 178 956 115 q 1050 312 1024 242 q 1092 442 1076 382 q 1104 517 1099 472 q 1110 608 1110 561 q 1105 683 1110 647 q 1089 743 1100 718 q 1043 779 1072 779 q 1017 774 1031 779 q 985 761 1003 769 q 978 760 983 760 q 967 763 972 760 q 968 772 961 765 q 1003 792 979 782 q 1047 806 1028 803 q 1059 808 1054 807 q 1069 808 1064 808 q 1142 762 1119 808 q 1165 642 1165 715 q 1148 490 1165 574 q 1099 324 1131 407 q 1024 168 1067 240 q 929 48 981 96 q 822 -11 878 0 q 806 -13 814 -12 q 789 -14 797 -14 q 691 24 731 -14 q 626 124 651 63 q 590 260 601 186 q 578 406 579 333 q 575 480 576 440 q 574 558 574 519 q 575 617 574 588 q 582 672 576 646 q 436 453 507 571 q 319 228 365 335 q 290 144 304 192 q 276 60 276 96 q 283 20 276 32 q 297 8 289 8 q 314 17 306 8 q 327 33 321 24 q 335 43 333 43 q 338 40 338 43 q 340 36 339 36 q 327 -5 343 13 q 292 -22 311 -22 z "},"Ǌ":{"ha":1906,"x_min":40,"x_max":2100,"o":"m 292 -22 q 260 -4 274 -22 q 246 53 246 14 q 265 164 246 99 q 319 306 285 229 q 397 460 354 382 q 478 603 436 531 q 569 739 521 675 q 520 757 550 751 q 460 764 490 763 q 408 765 429 765 q 382 764 386 764 q 241 747 310 758 q 135 721 172 736 q 79 691 100 707 q 58 656 58 675 q 100 608 58 632 q 103 603 103 607 q 100 596 103 599 q 94 594 97 593 q 40 665 40 625 q 114 746 40 718 q 203 772 150 761 q 315 790 256 783 q 428 796 374 796 q 530 788 485 796 q 596 764 575 781 q 615 756 610 771 q 617 717 619 740 q 612 636 614 692 q 610 519 610 581 q 610 459 610 489 q 613 401 611 429 q 632 265 617 333 q 672 142 647 197 q 733 52 697 86 q 814 18 768 18 q 826 19 819 18 q 838 21 832 19 q 917 72 878 29 q 990 178 956 115 q 1050 312 1024 242 q 1092 442 1076 382 q 1104 517 1099 472 q 1110 608 1110 561 q 1105 683 1110 647 q 1089 743 1100 718 q 1043 779 1072 779 q 1017 774 1031 779 q 985 761 1003 769 q 978 760 983 760 q 967 763 972 760 q 968 772 961 765 q 1003 792 979 782 q 1047 806 1028 803 q 1059 808 1054 807 q 1069 808 1064 808 q 1142 762 1119 808 q 1165 642 1165 715 q 1148 490 1165 574 q 1099 324 1131 407 q 1024 168 1067 240 q 929 48 981 96 q 822 -11 878 0 q 806 -13 814 -12 q 789 -14 797 -14 q 691 24 731 -14 q 626 124 651 63 q 590 260 601 186 q 578 406 579 333 q 575 480 576 440 q 574 558 574 519 q 575 617 574 588 q 582 672 576 646 q 436 453 507 571 q 319 228 365 335 q 290 144 304 192 q 276 60 276 96 q 283 20 276 32 q 297 8 289 8 q 314 17 306 8 q 327 33 321 24 q 335 43 333 43 q 338 40 338 43 q 340 36 339 36 q 327 -5 343 13 q 292 -22 311 -22 m 1585 588 q 1531 658 1531 618 q 1604 739 1531 711 q 1675 756 1625 747 q 1788 771 1725 765 q 1913 776 1851 776 q 2039 766 1985 776 q 2100 728 2093 756 l 2100 722 q 2096 699 2100 711 q 2088 688 2092 688 q 2082 703 2083 688 q 2049 738 2079 726 q 1979 753 2018 750 q 1908 757 1940 757 q 1872 757 1876 757 q 1731 740 1800 751 q 1625 713 1663 728 q 1569 683 1590 699 q 1549 649 1549 667 q 1590 601 1549 625 q 1593 596 1593 600 q 1590 589 1593 592 q 1585 588 1588 586 m 1224 -94 q 1149 -76 1181 -94 q 1118 -8 1118 -57 q 1163 105 1118 43 q 1294 220 1208 167 q 1499 300 1379 274 q 1628 319 1556 313 q 1776 328 1700 326 q 1871 533 1838 432 q 1918 710 1904 633 q 1935 729 1921 721 q 1963 740 1949 738 q 1974 733 1976 743 q 1919 533 1958 638 q 1818 328 1881 429 q 1883 327 1858 329 q 1936 322 1907 325 q 1950 310 1950 322 q 1939 300 1950 297 q 1903 306 1928 304 q 1853 310 1879 308 q 1808 311 1826 311 q 1715 187 1767 247 q 1600 74 1663 126 q 1449 -32 1528 11 q 1392 -58 1429 -43 q 1310 -83 1354 -72 q 1224 -94 1265 -94 m 1265 -62 q 1433 -16 1350 -62 q 1589 94 1517 31 q 1688 199 1643 144 q 1767 311 1732 254 q 1638 303 1700 310 q 1525 285 1575 296 q 1378 233 1444 267 q 1267 161 1311 200 q 1201 83 1228 126 q 1174 3 1174 39 q 1195 -44 1174 -26 q 1265 -62 1217 -62 z "}}}
